<?xml version="1.0" encoding="utf-8"?>
<!-- Generator: Adobe Illustrator 16.0.0, SVG Export Plug-In . SVG Version: 6.00 Build 0)  -->
<!DOCTYPE svg PUBLIC "-//W3C//DTD SVG 1.1//EN" "http://www.w3.org/Graphics/SVG/1.1/DTD/svg11.dtd">
<svg version="1.1" id="Layer_1" xmlns="http://www.w3.org/2000/svg" xmlns:xlink="http://www.w3.org/1999/xlink" x="0px" y="0px"
	 width="1605px" height="770.689px" viewBox="0 0 1605 770.689" enable-background="new 0 0 1605 770.689" xml:space="preserve">
<g>
	<defs>
		<rect id="SVGID_1_" y="-136.31" width="1605" height="907"/>
	</defs>
	<clipPath id="SVGID_2_">
		<use xlink:href="#SVGID_1_"  overflow="visible"/>
	</clipPath>
	<g clip-path="url(#SVGID_2_)">
		<defs>
			<rect id="SVGID_3_" y="-136.31" width="1605" height="907"/>
		</defs>
		<clipPath id="SVGID_4_">
			<use xlink:href="#SVGID_3_"  overflow="visible"/>
		</clipPath>
		<path clip-path="url(#SVGID_4_)" fill="#F9C223" d="M1109.831-0.351c0,99.591-80.74,180.321-180.329,180.321
			S749.182,99.24,749.182-0.351"/>
		<polygon clip-path="url(#SVGID_4_)" fill="#14ADE3" points="173.248,-0.656 260.077,-0.656 216.66,74.539 173.248,149.735 
			129.836,74.539 86.424,-0.656 		"/>
		<polygon clip-path="url(#SVGID_4_)" fill="#14ADE3" points="173.248,147.94 260.077,147.94 216.66,223.135 173.248,298.33 
			129.836,223.135 86.424,147.94 		"/>
		<polygon clip-path="url(#SVGID_4_)" fill="#14ADE3" points="173.248,295.443 260.077,295.443 216.66,370.64 173.248,445.833 
			129.836,370.64 86.424,295.443 		"/>
		<polygon clip-path="url(#SVGID_4_)" fill="#14ADE3" points="-0.405,-0.656 86.424,-0.656 43.007,74.539 -0.405,149.735 		"/>
		<polygon clip-path="url(#SVGID_4_)" fill="#14ADE3" points="-0.405,147.94 86.424,147.94 43.007,223.135 -0.405,298.33 		"/>
		<polygon clip-path="url(#SVGID_4_)" fill="#14ADE3" points="-0.405,295.443 86.424,295.443 43.007,370.64 -0.405,445.833 		"/>
		<path clip-path="url(#SVGID_4_)" fill="#4B2B7F" d="M1301.225,22.667c0,10.209-8.279,18.484-18.481,18.484
			c-10.21,0-18.488-8.275-18.488-18.484c0-10.211,8.278-18.486,18.488-18.486C1292.945,4.182,1301.225,12.457,1301.225,22.667"/>
		<path clip-path="url(#SVGID_4_)" fill="#4B2B7F" d="M1362.072,22.667c0,10.209-8.279,18.484-18.486,18.484
			c-10.205,0-18.485-8.275-18.485-18.484c0-10.211,8.28-18.486,18.485-18.486C1353.793,4.182,1362.072,12.457,1362.072,22.667"/>
		<path clip-path="url(#SVGID_4_)" fill="#4B2B7F" d="M1422.918,22.667c0,10.209-8.282,18.484-18.488,18.484
			c-10.209,0-18.484-8.275-18.484-18.484c0-10.211,8.275-18.486,18.484-18.486C1414.636,4.182,1422.918,12.457,1422.918,22.667"/>
		<path clip-path="url(#SVGID_4_)" fill="#4B2B7F" d="M1483.765,22.667c0,10.209-8.278,18.484-18.489,18.484
			s-18.49-8.275-18.49-18.484c0-10.211,8.279-18.486,18.49-18.486S1483.765,12.457,1483.765,22.667"/>
		<path clip-path="url(#SVGID_4_)" fill="#4B2B7F" d="M1544.604,22.667c0,10.209-8.272,18.484-18.483,18.484
			c-10.21,0-18.488-8.275-18.488-18.484c0-10.211,8.278-18.486,18.488-18.486C1536.331,4.182,1544.604,12.457,1544.604,22.667"/>
		<path clip-path="url(#SVGID_4_)" fill="#4B2B7F" d="M1605.449,22.667c0,10.209-8.275,18.484-18.484,18.484
			s-18.48-8.275-18.48-18.484c0-10.211,8.271-18.486,18.48-18.486S1605.449,12.457,1605.449,22.667"/>
		<path clip-path="url(#SVGID_4_)" fill="#4B2B7F" d="M1301.225,77.684c0,10.208-8.279,18.482-18.481,18.482
			c-10.21,0-18.488-8.274-18.488-18.482c0-10.213,8.278-18.488,18.488-18.488C1292.945,59.196,1301.225,67.471,1301.225,77.684"/>
		<path clip-path="url(#SVGID_4_)" fill="#4B2B7F" d="M1362.072,77.684c0,10.208-8.279,18.482-18.486,18.482
			c-10.205,0-18.485-8.274-18.485-18.482c0-10.213,8.28-18.488,18.485-18.488C1353.793,59.196,1362.072,67.471,1362.072,77.684"/>
		<path clip-path="url(#SVGID_4_)" fill="#4B2B7F" d="M1422.918,77.684c0,10.208-8.282,18.482-18.488,18.482
			c-10.209,0-18.484-8.274-18.484-18.482c0-10.213,8.275-18.488,18.484-18.488C1414.636,59.196,1422.918,67.471,1422.918,77.684"/>
		<path clip-path="url(#SVGID_4_)" fill="#4B2B7F" d="M1483.765,77.684c0,10.208-8.278,18.482-18.489,18.482
			s-18.49-8.274-18.49-18.482c0-10.213,8.279-18.488,18.49-18.488S1483.765,67.471,1483.765,77.684"/>
		<path clip-path="url(#SVGID_4_)" fill="#4B2B7F" d="M1544.604,77.684c0,10.208-8.272,18.482-18.483,18.482
			c-10.21,0-18.488-8.274-18.488-18.482c0-10.213,8.278-18.488,18.488-18.488C1536.331,59.196,1544.604,67.471,1544.604,77.684"/>
		<path clip-path="url(#SVGID_4_)" fill="#4B2B7F" d="M1605.449,77.684c0,10.208-8.275,18.482-18.484,18.482
			s-18.48-8.274-18.48-18.482c0-10.213,8.271-18.488,18.48-18.488S1605.449,67.471,1605.449,77.684"/>
		<path clip-path="url(#SVGID_4_)" fill="#4B2B7F" d="M1301.225,132.698c0,10.209-8.279,18.484-18.481,18.484
			c-10.21,0-18.488-8.275-18.488-18.484c0-10.211,8.278-18.486,18.488-18.486C1292.945,114.212,1301.225,122.487,1301.225,132.698"
			/>
		<path clip-path="url(#SVGID_4_)" fill="#4B2B7F" d="M1362.072,132.698c0,10.209-8.279,18.484-18.486,18.484
			c-10.205,0-18.485-8.275-18.485-18.484c0-10.211,8.28-18.486,18.485-18.486C1353.793,114.212,1362.072,122.487,1362.072,132.698"
			/>
		<path clip-path="url(#SVGID_4_)" fill="#4B2B7F" d="M1422.918,132.698c0,10.209-8.282,18.484-18.488,18.484
			c-10.209,0-18.484-8.275-18.484-18.484c0-10.211,8.275-18.486,18.484-18.486C1414.636,114.212,1422.918,122.487,1422.918,132.698"
			/>
		<path clip-path="url(#SVGID_4_)" fill="#4B2B7F" d="M1483.765,132.698c0,10.209-8.278,18.484-18.489,18.484
			s-18.49-8.275-18.49-18.484c0-10.211,8.279-18.486,18.49-18.486S1483.765,122.487,1483.765,132.698"/>
		<path clip-path="url(#SVGID_4_)" fill="#4B2B7F" d="M1544.604,132.698c0,10.209-8.272,18.484-18.483,18.484
			c-10.21,0-18.488-8.275-18.488-18.484c0-10.211,8.278-18.486,18.488-18.486C1536.331,114.212,1544.604,122.487,1544.604,132.698"
			/>
		<path clip-path="url(#SVGID_4_)" fill="#4B2B7F" d="M1605.449,132.698c0,10.209-8.275,18.484-18.484,18.484
			s-18.48-8.275-18.48-18.484c0-10.211,8.271-18.486,18.48-18.486S1605.449,122.487,1605.449,132.698"/>
		<path clip-path="url(#SVGID_4_)" fill="#4B2B7F" d="M1301.225,187.71c0,10.215-8.279,18.486-18.481,18.486
			c-10.21,0-18.488-8.271-18.488-18.486c0-10.208,8.278-18.486,18.488-18.486C1292.945,169.224,1301.225,177.502,1301.225,187.71"/>
		<path clip-path="url(#SVGID_4_)" fill="#4B2B7F" d="M1362.072,187.71c0,10.215-8.279,18.486-18.486,18.486
			c-10.205,0-18.485-8.271-18.485-18.486c0-10.208,8.28-18.486,18.485-18.486C1353.793,169.224,1362.072,177.502,1362.072,187.71"/>
		<path clip-path="url(#SVGID_4_)" fill="#4B2B7F" d="M1422.918,187.71c0,10.215-8.282,18.486-18.488,18.486
			c-10.209,0-18.484-8.271-18.484-18.486c0-10.208,8.275-18.486,18.484-18.486C1414.636,169.224,1422.918,177.502,1422.918,187.71"
			/>
		<path clip-path="url(#SVGID_4_)" fill="#4B2B7F" d="M1483.765,187.71c0,10.215-8.278,18.486-18.489,18.486
			s-18.49-8.271-18.49-18.486c0-10.208,8.279-18.486,18.49-18.486S1483.765,177.502,1483.765,187.71"/>
		<path clip-path="url(#SVGID_4_)" fill="#4B2B7F" d="M1544.604,187.71c0,10.215-8.272,18.486-18.483,18.486
			c-10.21,0-18.488-8.271-18.488-18.486c0-10.208,8.278-18.486,18.488-18.486C1536.331,169.224,1544.604,177.502,1544.604,187.71"/>
		<path clip-path="url(#SVGID_4_)" fill="#4B2B7F" d="M1605.449,187.71c0,10.215-8.275,18.486-18.484,18.486
			s-18.48-8.271-18.48-18.486c0-10.208,8.271-18.486,18.48-18.486S1605.449,177.502,1605.449,187.71"/>
		<polygon clip-path="url(#SVGID_4_)" fill="#E6E6E6" points="1507.517,402.108 1462.054,426.015 1470.725,375.376 1433.938,339.51 
			1484.781,332.119 1507.517,286.045 1530.265,332.119 1581.107,339.51 1544.321,375.376 1553.007,426.015 		"/>
	</g>
	<g clip-path="url(#SVGID_2_)">
		<defs>
			<rect id="SVGID_5_" x="1419.716" y="700.208" width="185.284" height="70.481"/>
		</defs>
		<clipPath id="SVGID_6_">
			<use xlink:href="#SVGID_5_"  overflow="visible"/>
		</clipPath>
		<path clip-path="url(#SVGID_6_)" fill="#14ADE3" d="M1237.508,640.245c0-123.274,90.557-223.215,202.26-223.215
			s202.276,99.94,202.276,223.215c0,123.266-90.573,223.19-202.276,223.19S1237.508,763.51,1237.508,640.245"/>
	</g>
	<g clip-path="url(#SVGID_2_)">
		<defs>
			<rect id="SVGID_7_" y="-136.31" width="1605" height="907"/>
		</defs>
		<clipPath id="SVGID_8_">
			<use xlink:href="#SVGID_7_"  overflow="visible"/>
		</clipPath>
	</g>
	<g clip-path="url(#SVGID_2_)">
	</g>
	<g clip-path="url(#SVGID_2_)">
		<text transform="matrix(1 0 0 1 1000.6748 717.2183)" fill="#FFFFFF" font-family="'Roboto-Regular'" font-size="23.5913"> </text>
	</g>
	<g clip-path="url(#SVGID_2_)">
	</g>
	<g clip-path="url(#SVGID_2_)">
		<defs>
			<rect id="SVGID_9_" y="-136.31" width="1605" height="907"/>
		</defs>
		<clipPath id="SVGID_10_">
			<use xlink:href="#SVGID_9_"  overflow="visible"/>
		</clipPath>
	</g>
	<g clip-path="url(#SVGID_2_)">
		<defs>
			<rect id="SVGID_11_" y="-136.31" width="1605" height="907"/>
		</defs>
		<clipPath id="SVGID_12_">
			<use xlink:href="#SVGID_11_"  overflow="visible"/>
		</clipPath>
	</g>
	<g clip-path="url(#SVGID_2_)">
		<defs>
			<rect id="SVGID_13_" y="-136.31" width="1605" height="907"/>
		</defs>
		<clipPath id="SVGID_14_">
			<use xlink:href="#SVGID_13_"  overflow="visible"/>
		</clipPath>
	</g>
</g>
</svg>
