<?xml version="1.0" encoding="utf-8"?>
<!-- Generator: Adobe Illustrator 16.0.0, SVG Export Plug-In . SVG Version: 6.00 Build 0)  -->
<!DOCTYPE svg PUBLIC "-//W3C//DTD SVG 1.1//EN" "http://www.w3.org/Graphics/SVG/1.1/DTD/svg11.dtd">
<svg version="1.1" id="Layer_1" xmlns="http://www.w3.org/2000/svg" xmlns:xlink="http://www.w3.org/1999/xlink" x="0px" y="0px"
	 width="697.109px" height="1143.115px" viewBox="0 0 697.109 1143.115" enable-background="new 0 0 697.109 1143.115"
	 xml:space="preserve">
<g>
	<defs>
		<polyline id="SVGID_1_" points="697.105,1389.245 -902.83,1389.245 -902.83,-127.139 697.105,-127.139 		"/>
	</defs>
	<clipPath id="SVGID_2_">
		<use xlink:href="#SVGID_1_"  overflow="visible"/>
	</clipPath>
	<polygon clip-path="url(#SVGID_2_)" fill="#14ADE3" points="35.243,325.715 47.439,319.306 45.112,332.886 54.978,342.505 
		41.342,344.487 35.243,356.842 29.145,344.487 15.51,342.505 25.374,332.886 23.045,319.306 	"/>
	<polygon clip-path="url(#SVGID_2_)" fill="#14ADE3" points="35.243,272.902 47.439,266.491 45.112,280.071 54.978,289.688 
		41.342,291.671 35.243,304.029 29.145,291.671 15.51,289.688 25.374,280.071 23.045,266.491 	"/>
	<polygon clip-path="url(#SVGID_2_)" fill="#14ADE3" points="35.243,220.087 47.439,213.675 45.112,227.255 54.978,236.875 
		41.342,238.858 35.243,251.213 29.145,238.858 15.51,236.875 25.374,227.255 23.045,213.675 	"/>
</g>
<g>
	<defs>
		<polyline id="SVGID_3_" points="697.105,1389.245 -902.83,1389.245 -902.83,-127.139 697.105,-127.139 		"/>
	</defs>
	<clipPath id="SVGID_4_">
		<use xlink:href="#SVGID_3_"  overflow="visible"/>
	</clipPath>
	<rect x="605.752" y="197.366" clip-path="url(#SVGID_4_)" fill="#C44791" width="93.354" height="189.251"/>
	<rect x="534.139" y="197.367" clip-path="url(#SVGID_4_)" fill="#14ADE3" width="71.613" height="189.251"/>
	<rect x="284.949" y="197.367" clip-path="url(#SVGID_4_)" fill="#E32E2D" width="249.189" height="189.251"/>
	<rect x="64.516" y="197.367" clip-path="url(#SVGID_4_)" fill="#4B2B7F" width="220.434" height="189.251"/>
	<rect x="27.043" y="8.116" clip-path="url(#SVGID_4_)" fill="#C44791" width="391.491" height="189.251"/>
	<rect x="418.534" y="8.116" clip-path="url(#SVGID_4_)" fill="#14ADE3" width="71.614" height="189.251"/>
	<polygon clip-path="url(#SVGID_4_)" fill="#F9C223" points="699.105,197.12 665.056,197.363 665.056,8.114 699.105,8.12 	"/>
	<rect x="621.33" y="8.114" clip-path="url(#SVGID_4_)" fill="#F9C223" width="30.555" height="189.249"/>
	<rect x="577.603" y="8.114" clip-path="url(#SVGID_4_)" fill="#F9C223" width="30.556" height="189.249"/>
	<rect x="533.873" y="8.114" clip-path="url(#SVGID_4_)" fill="#F9C223" width="30.559" height="189.249"/>
	<rect x="490.148" y="8.114" clip-path="url(#SVGID_4_)" fill="#F9C223" width="30.556" height="189.249"/>
	<path clip-path="url(#SVGID_4_)" fill="#4B2B7F" d="M670.571,362.494c0-4.295,3.481-7.779,7.778-7.779
		c4.293,0,7.782,3.484,7.782,7.779s-3.489,7.782-7.782,7.782C674.053,370.276,670.571,366.789,670.571,362.494"/>
	<path clip-path="url(#SVGID_4_)" fill="#4B2B7F" d="M644.966,362.494c0-4.295,3.481-7.779,7.778-7.779s7.779,3.484,7.779,7.779
		s-3.482,7.782-7.779,7.782S644.966,366.789,644.966,362.494"/>
	<path clip-path="url(#SVGID_4_)" fill="#4B2B7F" d="M619.358,362.494c0-4.295,3.481-7.779,7.78-7.779
		c4.297,0,7.778,3.484,7.778,7.779s-3.481,7.782-7.778,7.782C622.84,370.276,619.358,366.789,619.358,362.494"/>
	<path clip-path="url(#SVGID_4_)" fill="#4B2B7F" d="M670.571,339.344c0-4.297,3.481-7.781,7.778-7.781
		c4.293,0,7.782,3.484,7.782,7.781c0,4.297-3.489,7.777-7.782,7.777C674.053,347.121,670.571,343.641,670.571,339.344"/>
	<path clip-path="url(#SVGID_4_)" fill="#4B2B7F" d="M644.966,339.344c0-4.297,3.481-7.781,7.778-7.781s7.779,3.484,7.779,7.781
		c0,4.297-3.482,7.777-7.779,7.777S644.966,343.641,644.966,339.344"/>
	<path clip-path="url(#SVGID_4_)" fill="#4B2B7F" d="M619.358,339.344c0-4.297,3.481-7.781,7.78-7.781
		c4.297,0,7.778,3.484,7.778,7.781c0,4.297-3.481,7.777-7.778,7.777C622.84,347.121,619.358,343.641,619.358,339.344"/>
	<path clip-path="url(#SVGID_4_)" fill="#4B2B7F" d="M670.571,316.191c0-4.297,3.481-7.783,7.778-7.783
		c4.293,0,7.782,3.486,7.782,7.783c0,4.295-3.489,7.777-7.782,7.777C674.053,323.968,670.571,320.486,670.571,316.191"/>
	<path clip-path="url(#SVGID_4_)" fill="#4B2B7F" d="M644.966,316.191c0-4.297,3.481-7.783,7.778-7.783s7.779,3.486,7.779,7.783
		c0,4.295-3.482,7.777-7.779,7.777S644.966,320.486,644.966,316.191"/>
	<path clip-path="url(#SVGID_4_)" fill="#4B2B7F" d="M619.358,316.191c0-4.297,3.481-7.783,7.78-7.783
		c4.297,0,7.778,3.486,7.778,7.783c0,4.295-3.481,7.777-7.778,7.777C622.84,323.968,619.358,320.486,619.358,316.191"/>
	<path clip-path="url(#SVGID_4_)" fill="#4B2B7F" d="M670.571,293.036c0-4.295,3.481-7.777,7.778-7.777
		c4.293,0,7.782,3.482,7.782,7.777s-3.489,7.782-7.782,7.782C674.053,300.817,670.571,297.331,670.571,293.036"/>
	<path clip-path="url(#SVGID_4_)" fill="#4B2B7F" d="M644.966,293.036c0-4.295,3.481-7.777,7.778-7.777s7.779,3.482,7.779,7.777
		s-3.482,7.782-7.779,7.782S644.966,297.331,644.966,293.036"/>
	<path clip-path="url(#SVGID_4_)" fill="#4B2B7F" d="M619.358,293.036c0-4.295,3.481-7.777,7.78-7.777
		c4.297,0,7.778,3.482,7.778,7.777s-3.481,7.782-7.778,7.782C622.84,300.817,619.358,297.331,619.358,293.036"/>
	<path clip-path="url(#SVGID_4_)" fill="#4B2B7F" d="M670.571,268.322c0-4.295,3.481-7.781,7.778-7.781
		c4.293,0,7.782,3.486,7.782,7.781c0,4.297-3.489,7.779-7.782,7.779C674.053,276.101,670.571,272.619,670.571,268.322"/>
	<path clip-path="url(#SVGID_4_)" fill="#4B2B7F" d="M644.966,268.322c0-4.295,3.481-7.781,7.778-7.781s7.779,3.486,7.779,7.781
		c0,4.297-3.482,7.779-7.779,7.779S644.966,272.619,644.966,268.322"/>
	<path clip-path="url(#SVGID_4_)" fill="#4B2B7F" d="M619.358,268.322c0-4.295,3.481-7.781,7.78-7.781
		c4.297,0,7.778,3.486,7.778,7.781c0,4.297-3.481,7.779-7.778,7.779C622.84,276.101,619.358,272.619,619.358,268.322"/>
	<path clip-path="url(#SVGID_4_)" fill="#4B2B7F" d="M670.571,245.168c0-4.295,3.481-7.777,7.778-7.777
		c4.293,0,7.782,3.482,7.782,7.777c0,4.297-3.489,7.781-7.782,7.781C674.053,252.949,670.571,249.465,670.571,245.168"/>
	<path clip-path="url(#SVGID_4_)" fill="#4B2B7F" d="M644.966,245.168c0-4.295,3.481-7.777,7.778-7.777s7.779,3.482,7.779,7.777
		c0,4.297-3.482,7.781-7.779,7.781S644.966,249.465,644.966,245.168"/>
	<path clip-path="url(#SVGID_4_)" fill="#4B2B7F" d="M619.358,245.168c0-4.295,3.481-7.777,7.78-7.777
		c4.297,0,7.778,3.482,7.778,7.777c0,4.297-3.481,7.781-7.778,7.781C622.84,252.949,619.358,249.465,619.358,245.168"/>
	<path clip-path="url(#SVGID_4_)" fill="#4B2B7F" d="M670.571,222.015c0-4.297,3.481-7.777,7.778-7.777
		c4.293,0,7.782,3.48,7.782,7.777c0,4.295-3.489,7.779-7.782,7.779C674.053,229.794,670.571,226.31,670.571,222.015"/>
	<path clip-path="url(#SVGID_4_)" fill="#4B2B7F" d="M644.966,222.015c0-4.297,3.481-7.777,7.778-7.777s7.779,3.48,7.779,7.777
		c0,4.295-3.482,7.779-7.779,7.779S644.966,226.31,644.966,222.015"/>
	<path clip-path="url(#SVGID_4_)" fill="#4B2B7F" d="M619.358,222.015c0-4.297,3.481-7.777,7.78-7.777
		c4.297,0,7.778,3.48,7.778,7.777c0,4.295-3.481,7.779-7.778,7.779C622.84,229.794,619.358,226.31,619.358,222.015"/>
	<polygon clip-path="url(#SVGID_4_)" fill="#14ADE3" points="248.21,197.301 284.949,197.301 266.579,229.116 248.21,260.936 
		229.841,229.116 211.471,197.301 	"/>
	<polygon clip-path="url(#SVGID_4_)" fill="#14ADE3" points="248.21,260.175 284.949,260.175 266.579,291.992 248.21,323.81 
		229.841,291.992 211.471,260.175 	"/>
	<polygon clip-path="url(#SVGID_4_)" fill="#14ADE3" points="248.21,322.584 284.949,322.584 266.579,354.403 248.21,386.218 
		229.841,354.403 211.471,322.584 	"/>
	<polygon clip-path="url(#SVGID_4_)" fill="#4B2B7F" points="454.34,8.174 491.079,8.174 472.708,39.992 454.34,71.809 
		435.969,39.992 417.604,8.174 	"/>
	<polygon clip-path="url(#SVGID_4_)" fill="#14ADE3" points="174.731,197.301 211.471,197.301 193.102,229.116 174.731,260.936 
		156.362,229.116 137.994,197.301 	"/>
	<polygon clip-path="url(#SVGID_4_)" fill="#14ADE3" points="174.731,260.175 211.471,260.175 193.102,291.992 174.731,323.81 
		156.362,291.992 137.994,260.175 	"/>
	<polygon clip-path="url(#SVGID_4_)" fill="#14ADE3" points="174.731,322.584 211.471,322.584 193.102,354.403 174.731,386.218 
		156.362,354.403 137.994,322.584 	"/>
	<polygon clip-path="url(#SVGID_4_)" fill="#14ADE3" points="101.255,197.301 137.994,197.301 119.622,229.116 101.255,260.936 
		82.887,229.116 64.517,197.301 	"/>
	<polygon clip-path="url(#SVGID_4_)" fill="#14ADE3" points="101.255,260.175 137.994,260.175 119.622,291.992 101.255,323.81 
		82.887,291.992 64.517,260.175 	"/>
	<polygon clip-path="url(#SVGID_4_)" fill="#14ADE3" points="101.255,322.584 137.994,322.584 119.622,354.403 101.255,386.218 
		82.887,354.403 64.517,322.584 	"/>
	<polygon clip-path="url(#SVGID_4_)" fill="#F9C223" points="467.853,197.366 522.487,291.995 467.853,386.617 358.59,386.617 
		303.961,291.995 358.59,197.366 	"/>
	<polygon clip-path="url(#SVGID_4_)" fill="#E32E2D" points="454.722,220.115 496.22,291.996 454.722,363.872 371.723,363.872 
		330.227,291.996 371.723,220.115 	"/>
	<polygon clip-path="url(#SVGID_4_)" fill="#F9C223" points="444.768,237.36 476.307,291.996 444.768,346.621 381.682,346.621 
		350.141,291.996 381.682,237.36 	"/>
	<polygon clip-path="url(#SVGID_4_)" fill="#E32E2D" points="435.89,252.733 458.555,291.995 435.89,331.248 390.557,331.248 
		367.892,291.995 390.557,252.733 	"/>
	<polygon clip-path="url(#SVGID_4_)" fill="#F9C223" points="571.337,332.45 583.533,326.038 581.206,339.622 591.072,349.235 
		577.436,351.221 571.337,363.578 565.237,351.221 551.602,349.235 561.467,339.622 559.14,326.038 	"/>
	<polygon clip-path="url(#SVGID_4_)" fill="#F9C223" points="571.337,279.634 583.533,273.223 581.206,286.805 591.072,296.42 
		577.436,298.404 571.337,310.761 565.237,298.404 551.602,296.42 561.467,286.805 559.14,273.223 	"/>
	<polygon clip-path="url(#SVGID_4_)" fill="#F9C223" points="571.337,226.819 583.533,220.409 581.206,233.992 591.072,243.605 
		577.436,245.59 571.337,257.948 565.237,245.59 551.602,243.605 561.467,233.992 559.14,220.409 	"/>
	<rect x="190.513" y="70.468" clip-path="url(#SVGID_4_)" fill="#4B2B7F" width="64.547" height="64.545"/>
</g>
<g>
	<defs>
		<rect id="SVGID_5_" x="27.043" y="8.116" width="391.491" height="189.251"/>
	</defs>
	<clipPath id="SVGID_6_">
		<use xlink:href="#SVGID_5_"  overflow="visible"/>
	</clipPath>
	
		<line clip-path="url(#SVGID_6_)" fill="none" stroke="#4B2B7F" stroke-width="5.22" stroke-miterlimit="10" x1="194.172" y1="498.159" x2="587.906" y2="104.427"/>
	
		<line clip-path="url(#SVGID_6_)" fill="none" stroke="#4B2B7F" stroke-width="5.22" stroke-miterlimit="10" x1="179.808" y1="483.794" x2="573.54" y2="90.06"/>
	
		<line clip-path="url(#SVGID_6_)" fill="none" stroke="#4B2B7F" stroke-width="5.22" stroke-miterlimit="10" x1="165.44" y1="469.429" x2="559.174" y2="75.697"/>
	
		<line clip-path="url(#SVGID_6_)" fill="none" stroke="#4B2B7F" stroke-width="5.22" stroke-miterlimit="10" x1="151.074" y1="455.064" x2="544.809" y2="61.33"/>
	
		<line clip-path="url(#SVGID_6_)" fill="none" stroke="#4B2B7F" stroke-width="5.22" stroke-miterlimit="10" x1="136.709" y1="440.699" x2="530.443" y2="46.963"/>
	
		<line clip-path="url(#SVGID_6_)" fill="none" stroke="#4B2B7F" stroke-width="5.22" stroke-miterlimit="10" x1="122.346" y1="426.332" x2="516.076" y2="32.599"/>
	
		<line clip-path="url(#SVGID_6_)" fill="none" stroke="#4B2B7F" stroke-width="5.22" stroke-miterlimit="10" x1="107.979" y1="411.967" x2="501.711" y2="18.233"/>
	
		<line clip-path="url(#SVGID_6_)" fill="none" stroke="#4B2B7F" stroke-width="5.22" stroke-miterlimit="10" x1="93.617" y1="397.602" x2="487.347" y2="3.868"/>
	
		<line clip-path="url(#SVGID_6_)" fill="none" stroke="#4B2B7F" stroke-width="5.22" stroke-miterlimit="10" x1="79.247" y1="383.238" x2="472.981" y2="-10.498"/>
	
		<line clip-path="url(#SVGID_6_)" fill="none" stroke="#4B2B7F" stroke-width="5.22" stroke-miterlimit="10" x1="64.883" y1="368.87" x2="458.614" y2="-24.863"/>
	
		<line clip-path="url(#SVGID_6_)" fill="none" stroke="#4B2B7F" stroke-width="5.22" stroke-miterlimit="10" x1="50.517" y1="354.504" x2="444.254" y2="-39.227"/>
	
		<line clip-path="url(#SVGID_6_)" fill="none" stroke="#4B2B7F" stroke-width="5.22" stroke-miterlimit="10" x1="36.153" y1="340.14" x2="429.886" y2="-53.593"/>
	
		<line clip-path="url(#SVGID_6_)" fill="none" stroke="#4B2B7F" stroke-width="5.22" stroke-miterlimit="10" x1="21.787" y1="325.774" x2="415.52" y2="-67.961"/>
	
		<line clip-path="url(#SVGID_6_)" fill="none" stroke="#4B2B7F" stroke-width="5.22" stroke-miterlimit="10" x1="7.423" y1="311.41" x2="401.157" y2="-82.325"/>
	
		<line clip-path="url(#SVGID_6_)" fill="none" stroke="#4B2B7F" stroke-width="5.22" stroke-miterlimit="10" x1="-6.943" y1="297.044" x2="386.79" y2="-96.691"/>
	
		<line clip-path="url(#SVGID_6_)" fill="none" stroke="#4B2B7F" stroke-width="5.22" stroke-miterlimit="10" x1="-21.308" y1="282.678" x2="372.425" y2="-111.056"/>
	
		<line clip-path="url(#SVGID_6_)" fill="none" stroke="#4B2B7F" stroke-width="5.22" stroke-miterlimit="10" x1="-35.674" y1="268.314" x2="358.059" y2="-125.421"/>
	
		<line clip-path="url(#SVGID_6_)" fill="none" stroke="#4B2B7F" stroke-width="5.22" stroke-miterlimit="10" x1="-50.04" y1="253.947" x2="343.693" y2="-139.788"/>
	
		<line clip-path="url(#SVGID_6_)" fill="none" stroke="#4B2B7F" stroke-width="5.22" stroke-miterlimit="10" x1="-64.404" y1="239.584" x2="329.329" y2="-154.153"/>
	
		<line clip-path="url(#SVGID_6_)" fill="none" stroke="#4B2B7F" stroke-width="5.22" stroke-miterlimit="10" x1="-78.771" y1="225.215" x2="314.965" y2="-168.519"/>
	
		<line clip-path="url(#SVGID_6_)" fill="none" stroke="#4B2B7F" stroke-width="5.22" stroke-miterlimit="10" x1="-93.135" y1="210.85" x2="300.599" y2="-182.884"/>
	
		<line clip-path="url(#SVGID_6_)" fill="none" stroke="#4B2B7F" stroke-width="5.22" stroke-miterlimit="10" x1="-107.5" y1="196.485" x2="286.233" y2="-197.249"/>
	
		<line clip-path="url(#SVGID_6_)" fill="none" stroke="#4B2B7F" stroke-width="5.22" stroke-miterlimit="10" x1="-121.867" y1="182.121" x2="271.867" y2="-211.615"/>
	
		<line clip-path="url(#SVGID_6_)" fill="none" stroke="#4B2B7F" stroke-width="5.22" stroke-miterlimit="10" x1="-136.231" y1="167.755" x2="257.503" y2="-225.98"/>
	
		<line clip-path="url(#SVGID_6_)" fill="none" stroke="#4B2B7F" stroke-width="5.22" stroke-miterlimit="10" x1="-150.598" y1="153.39" x2="243.137" y2="-240.346"/>
	
		<line clip-path="url(#SVGID_6_)" fill="none" stroke="#4B2B7F" stroke-width="5.22" stroke-miterlimit="10" x1="-164.963" y1="139.025" x2="228.771" y2="-254.711"/>
</g>
<g>
	<defs>
		<polyline id="SVGID_7_" points="697.105,1389.245 -902.83,1389.245 -902.83,-127.139 697.105,-127.139 		"/>
	</defs>
	<clipPath id="SVGID_8_">
		<use xlink:href="#SVGID_7_"  overflow="visible"/>
	</clipPath>
	<rect x="418.536" y="386.617" clip-path="url(#SVGID_8_)" fill="#14ADE3" width="71.612" height="189.251"/>
	<rect x="490.148" y="386.617" clip-path="url(#SVGID_8_)" fill="#E32E2D" width="208.957" height="189.251"/>
	<rect x="605.753" y="575.867" clip-path="url(#SVGID_8_)" fill="#C44791" width="93.351" height="189.251"/>
	<rect x="534.139" y="575.868" clip-path="url(#SVGID_8_)" fill="#14ADE3" width="71.615" height="189.251"/>
	<rect x="284.949" y="575.872" clip-path="url(#SVGID_8_)" fill="#F9C223" width="30.553" height="189.249"/>
	<rect x="328.675" y="575.872" clip-path="url(#SVGID_8_)" fill="#F9C223" width="30.558" height="189.249"/>
	<rect x="372.403" y="575.872" clip-path="url(#SVGID_8_)" fill="#F9C223" width="30.555" height="189.249"/>
	<rect x="416.13" y="575.872" clip-path="url(#SVGID_8_)" fill="#F9C223" width="30.555" height="189.249"/>
	<rect x="459.855" y="575.872" clip-path="url(#SVGID_8_)" fill="#F9C223" width="30.56" height="189.249"/>
	<rect x="503.584" y="575.872" clip-path="url(#SVGID_8_)" fill="#F9C223" width="30.555" height="189.249"/>
	<rect x="131.785" y="575.868" clip-path="url(#SVGID_8_)" fill="#14ADE3" width="153.164" height="189.252"/>
	<path clip-path="url(#SVGID_8_)" fill="#E32E2D" d="M195.852,613.399c0,13.243-10.735,23.978-23.979,23.978
		c-13.242,0-23.976-10.735-23.976-23.978c0-13.241,10.733-23.974,23.976-23.974C185.116,589.425,195.852,600.158,195.852,613.399"/>
	<path clip-path="url(#SVGID_8_)" fill="#C44791" d="M27.043,575.868h391.492V386.617H27.043V575.868z M54.981,558.996
		c-4.297,0-7.784-3.48-7.784-7.777c0-4.295,3.487-7.779,7.784-7.779c4.295,0,7.776,3.484,7.776,7.779
		C62.758,555.516,59.276,558.996,54.981,558.996 M54.981,535.843c-4.297,0-7.784-3.482-7.784-7.777c0-4.297,3.487-7.781,7.784-7.781
		c4.295,0,7.776,3.484,7.776,7.781C62.758,532.361,59.276,535.843,54.981,535.843 M54.981,512.693c-4.297,0-7.784-3.485-7.784-7.781
		c0-4.297,3.487-7.778,7.784-7.778c4.295,0,7.776,3.481,7.776,7.778C62.758,509.208,59.276,512.693,54.981,512.693 M54.981,487.976
		c-4.297,0-7.784-3.482-7.784-7.777c0-4.296,3.487-7.783,7.784-7.783c4.295,0,7.776,3.487,7.776,7.783
		C62.758,484.494,59.276,487.976,54.981,487.976 M54.981,464.826c-4.297,0-7.784-3.485-7.784-7.783c0-4.295,3.487-7.777,7.784-7.777
		c4.295,0,7.776,3.482,7.776,7.777C62.758,461.341,59.276,464.826,54.981,464.826 M54.981,441.671c-4.297,0-7.784-3.484-7.784-7.781
		c0-4.297,3.487-7.777,7.784-7.777c4.295,0,7.776,3.48,7.776,7.777C62.758,438.187,59.276,441.671,54.981,441.671 M54.981,418.519
		c-4.297,0-7.784-3.483-7.784-7.779c0-4.295,3.487-7.782,7.784-7.782c4.295,0,7.776,3.487,7.776,7.782
		C62.758,415.036,59.276,418.519,54.981,418.519 M80.585,558.996c-4.296,0-7.778-3.48-7.778-7.777c0-4.295,3.482-7.779,7.778-7.779
		c4.301,0,7.782,3.484,7.782,7.779C88.367,555.516,84.886,558.996,80.585,558.996 M80.585,535.843c-4.296,0-7.778-3.482-7.778-7.777
		c0-4.297,3.482-7.781,7.778-7.781c4.301,0,7.782,3.484,7.782,7.781C88.367,532.361,84.886,535.843,80.585,535.843 M80.585,512.693
		c-4.296,0-7.778-3.485-7.778-7.781c0-4.297,3.482-7.778,7.778-7.778c4.301,0,7.782,3.481,7.782,7.778
		C88.367,509.208,84.886,512.693,80.585,512.693 M80.585,487.976c-4.296,0-7.778-3.482-7.778-7.777c0-4.296,3.482-7.783,7.778-7.783
		c4.301,0,7.782,3.487,7.782,7.783C88.367,484.494,84.886,487.976,80.585,487.976 M80.585,464.826c-4.296,0-7.778-3.485-7.778-7.783
		c0-4.295,3.482-7.777,7.778-7.777c4.301,0,7.782,3.482,7.782,7.777C88.367,461.341,84.886,464.826,80.585,464.826 M80.585,441.671
		c-4.296,0-7.778-3.484-7.778-7.781c0-4.297,3.482-7.777,7.778-7.777c4.301,0,7.782,3.48,7.782,7.777
		C88.367,438.187,84.886,441.671,80.585,441.671 M80.585,418.519c-4.296,0-7.778-3.483-7.778-7.779c0-4.295,3.482-7.782,7.778-7.782
		c4.301,0,7.782,3.487,7.782,7.782C88.367,415.036,84.886,418.519,80.585,418.519 M106.192,558.996c-4.295,0-7.779-3.48-7.779-7.777
		c0-4.295,3.484-7.779,7.779-7.779s7.778,3.484,7.778,7.779C113.971,555.516,110.487,558.996,106.192,558.996 M106.192,535.843
		c-4.295,0-7.779-3.482-7.779-7.777c0-4.297,3.484-7.781,7.779-7.781s7.778,3.484,7.778,7.781
		C113.971,532.361,110.487,535.843,106.192,535.843 M106.192,512.693c-4.295,0-7.779-3.485-7.779-7.781
		c0-4.297,3.484-7.778,7.779-7.778s7.778,3.481,7.778,7.778C113.971,509.208,110.487,512.693,106.192,512.693 M106.192,487.976
		c-4.295,0-7.779-3.482-7.779-7.777c0-4.296,3.484-7.783,7.779-7.783s7.778,3.487,7.778,7.783
		C113.971,484.494,110.487,487.976,106.192,487.976 M106.192,464.826c-4.295,0-7.779-3.485-7.779-7.783
		c0-4.295,3.484-7.777,7.779-7.777s7.778,3.482,7.778,7.777C113.971,461.341,110.487,464.826,106.192,464.826 M106.192,441.671
		c-4.295,0-7.779-3.484-7.779-7.781c0-4.297,3.484-7.777,7.779-7.777s7.778,3.48,7.778,7.777
		C113.971,438.187,110.487,441.671,106.192,441.671 M106.192,418.519c-4.295,0-7.779-3.483-7.779-7.779
		c0-4.295,3.484-7.782,7.779-7.782s7.778,3.487,7.778,7.782C113.971,415.036,110.487,418.519,106.192,418.519 M131.798,558.996
		c-4.296,0-7.78-3.48-7.78-7.777c0-4.295,3.484-7.779,7.78-7.779c4.3,0,7.782,3.484,7.782,7.779
		C139.58,555.516,136.098,558.996,131.798,558.996 M131.798,535.843c-4.296,0-7.78-3.482-7.78-7.777c0-4.297,3.484-7.781,7.78-7.781
		c4.3,0,7.782,3.484,7.782,7.781C139.58,532.361,136.098,535.843,131.798,535.843 M131.798,512.693c-4.296,0-7.78-3.485-7.78-7.781
		c0-4.297,3.484-7.778,7.78-7.778c4.3,0,7.782,3.481,7.782,7.778C139.58,509.208,136.098,512.693,131.798,512.693 M131.798,487.976
		c-4.296,0-7.78-3.482-7.78-7.777c0-4.296,3.484-7.783,7.78-7.783c4.3,0,7.782,3.487,7.782,7.783
		C139.58,484.494,136.098,487.976,131.798,487.976 M131.798,464.826c-4.296,0-7.78-3.485-7.78-7.783c0-4.295,3.484-7.777,7.78-7.777
		c4.3,0,7.782,3.482,7.782,7.777C139.58,461.341,136.098,464.826,131.798,464.826 M131.798,441.671c-4.296,0-7.78-3.484-7.78-7.781
		c0-4.297,3.484-7.777,7.78-7.777c4.3,0,7.782,3.48,7.782,7.777C139.58,438.187,136.098,441.671,131.798,441.671 M131.798,418.519
		c-4.296,0-7.78-3.483-7.78-7.779c0-4.295,3.484-7.782,7.78-7.782c4.3,0,7.782,3.487,7.782,7.782
		C139.58,415.036,136.098,418.519,131.798,418.519 M157.405,558.996c-4.295,0-7.782-3.48-7.782-7.777
		c0-4.295,3.487-7.779,7.782-7.779c4.299,0,7.778,3.484,7.778,7.779C165.184,555.516,161.704,558.996,157.405,558.996
		 M157.405,535.843c-4.295,0-7.782-3.482-7.782-7.777c0-4.297,3.487-7.781,7.782-7.781c4.299,0,7.778,3.484,7.778,7.781
		C165.184,532.361,161.704,535.843,157.405,535.843 M157.405,512.693c-4.295,0-7.782-3.485-7.782-7.781
		c0-4.297,3.487-7.778,7.782-7.778c4.299,0,7.778,3.481,7.778,7.778C165.184,509.208,161.704,512.693,157.405,512.693
		 M157.405,487.976c-4.295,0-7.782-3.482-7.782-7.777c0-4.296,3.487-7.783,7.782-7.783c4.299,0,7.778,3.487,7.778,7.783
		C165.184,484.494,161.704,487.976,157.405,487.976 M157.405,464.826c-4.295,0-7.782-3.485-7.782-7.783
		c0-4.295,3.487-7.777,7.782-7.777c4.299,0,7.778,3.482,7.778,7.777C165.184,461.341,161.704,464.826,157.405,464.826
		 M157.405,441.671c-4.295,0-7.782-3.484-7.782-7.781c0-4.297,3.487-7.777,7.782-7.777c4.299,0,7.778,3.48,7.778,7.777
		C165.184,438.187,161.704,441.671,157.405,441.671 M157.405,418.519c-4.295,0-7.782-3.483-7.782-7.779
		c0-4.295,3.487-7.782,7.782-7.782c4.299,0,7.778,3.487,7.778,7.782C165.184,415.036,161.704,418.519,157.405,418.519
		 M183.012,558.996c-4.297,0-7.781-3.48-7.781-7.777c0-4.295,3.484-7.779,7.781-7.779c4.299,0,7.779,3.484,7.779,7.779
		C190.791,555.516,187.311,558.996,183.012,558.996 M183.012,535.843c-4.297,0-7.781-3.482-7.781-7.777
		c0-4.297,3.484-7.781,7.781-7.781c4.299,0,7.779,3.484,7.779,7.781C190.791,532.361,187.311,535.843,183.012,535.843
		 M183.012,512.693c-4.297,0-7.781-3.485-7.781-7.781c0-4.297,3.484-7.778,7.781-7.778c4.299,0,7.779,3.481,7.779,7.778
		C190.791,509.208,187.311,512.693,183.012,512.693 M183.012,487.976c-4.297,0-7.781-3.482-7.781-7.777
		c0-4.296,3.484-7.783,7.781-7.783c4.299,0,7.779,3.487,7.779,7.783C190.791,484.494,187.311,487.976,183.012,487.976
		 M183.012,464.826c-4.297,0-7.781-3.485-7.781-7.783c0-4.295,3.484-7.777,7.781-7.777c4.299,0,7.779,3.482,7.779,7.777
		C190.791,461.341,187.311,464.826,183.012,464.826 M183.012,441.671c-4.297,0-7.781-3.484-7.781-7.781
		c0-4.297,3.484-7.777,7.781-7.777c4.299,0,7.779,3.48,7.779,7.777C190.791,438.187,187.311,441.671,183.012,441.671
		 M183.012,418.519c-4.297,0-7.781-3.483-7.781-7.779c0-4.295,3.484-7.782,7.781-7.782c4.299,0,7.779,3.487,7.779,7.782
		C190.791,415.036,187.311,418.519,183.012,418.519 M208.618,558.996c-4.299,0-7.779-3.48-7.779-7.777
		c0-4.295,3.48-7.779,7.779-7.779c4.297,0,7.779,3.484,7.779,7.779C216.397,555.516,212.915,558.996,208.618,558.996
		 M208.618,535.843c-4.299,0-7.779-3.482-7.779-7.777c0-4.297,3.48-7.781,7.779-7.781c4.297,0,7.779,3.484,7.779,7.781
		C216.397,532.361,212.915,535.843,208.618,535.843 M208.618,512.693c-4.299,0-7.779-3.485-7.779-7.781
		c0-4.297,3.48-7.778,7.779-7.778c4.297,0,7.779,3.481,7.779,7.778C216.397,509.208,212.915,512.693,208.618,512.693
		 M208.618,487.976c-4.299,0-7.779-3.482-7.779-7.777c0-4.296,3.48-7.783,7.779-7.783c4.297,0,7.779,3.487,7.779,7.783
		C216.397,484.494,212.915,487.976,208.618,487.976 M208.618,464.826c-4.299,0-7.779-3.485-7.779-7.783
		c0-4.295,3.48-7.777,7.779-7.777c4.297,0,7.779,3.482,7.779,7.777C216.397,461.341,212.915,464.826,208.618,464.826
		 M208.618,441.671c-4.299,0-7.779-3.484-7.779-7.781c0-4.297,3.48-7.777,7.779-7.777c4.297,0,7.779,3.48,7.779,7.777
		C216.397,438.187,212.915,441.671,208.618,441.671 M208.618,418.519c-4.299,0-7.779-3.483-7.779-7.779
		c0-4.295,3.48-7.782,7.779-7.782c4.297,0,7.779,3.487,7.779,7.782C216.397,415.036,212.915,418.519,208.618,418.519
		 M235.514,558.996c-4.297,0-7.781-3.48-7.781-7.777c0-4.295,3.484-7.779,7.781-7.779c4.295,0,7.779,3.484,7.779,7.779
		C243.293,555.516,239.809,558.996,235.514,558.996 M235.514,535.843c-4.297,0-7.781-3.482-7.781-7.777
		c0-4.297,3.484-7.781,7.781-7.781c4.295,0,7.779,3.484,7.779,7.781C243.293,532.361,239.809,535.843,235.514,535.843
		 M235.514,512.693c-4.297,0-7.781-3.485-7.781-7.781c0-4.297,3.484-7.778,7.781-7.778c4.295,0,7.779,3.481,7.779,7.778
		C243.293,509.208,239.809,512.693,235.514,512.693 M235.514,487.976c-4.297,0-7.781-3.482-7.781-7.777
		c0-4.296,3.484-7.783,7.781-7.783c4.295,0,7.779,3.487,7.779,7.783C243.293,484.494,239.809,487.976,235.514,487.976
		 M235.514,464.826c-4.297,0-7.781-3.485-7.781-7.783c0-4.295,3.484-7.777,7.781-7.777c4.295,0,7.779,3.482,7.779,7.777
		C243.293,461.341,239.809,464.826,235.514,464.826 M235.514,441.671c-4.297,0-7.781-3.484-7.781-7.781
		c0-4.297,3.484-7.777,7.781-7.777c4.295,0,7.779,3.48,7.779,7.777C243.293,438.187,239.809,441.671,235.514,441.671
		 M235.514,418.519c-4.297,0-7.781-3.483-7.781-7.779c0-4.295,3.484-7.782,7.781-7.782c4.295,0,7.779,3.487,7.779,7.782
		C243.293,415.036,239.809,418.519,235.514,418.519 M261.12,558.996c-4.298,0-7.781-3.48-7.781-7.777
		c0-4.295,3.483-7.779,7.781-7.779c4.297,0,7.778,3.484,7.778,7.779C268.898,555.516,265.417,558.996,261.12,558.996
		 M261.12,535.843c-4.298,0-7.781-3.482-7.781-7.777c0-4.297,3.483-7.781,7.781-7.781c4.297,0,7.778,3.484,7.778,7.781
		C268.898,532.361,265.417,535.843,261.12,535.843 M261.12,512.693c-4.298,0-7.781-3.485-7.781-7.781
		c0-4.297,3.483-7.778,7.781-7.778c4.297,0,7.778,3.481,7.778,7.778C268.898,509.208,265.417,512.693,261.12,512.693
		 M261.12,487.976c-4.298,0-7.781-3.482-7.781-7.777c0-4.296,3.483-7.783,7.781-7.783c4.297,0,7.778,3.487,7.778,7.783
		C268.898,484.494,265.417,487.976,261.12,487.976 M261.12,464.826c-4.298,0-7.781-3.485-7.781-7.783
		c0-4.295,3.483-7.777,7.781-7.777c4.297,0,7.778,3.482,7.778,7.777C268.898,461.341,265.417,464.826,261.12,464.826
		 M261.12,441.671c-4.298,0-7.781-3.484-7.781-7.781c0-4.297,3.483-7.777,7.781-7.777c4.297,0,7.778,3.48,7.778,7.777
		C268.898,438.187,265.417,441.671,261.12,441.671 M261.12,418.519c-4.298,0-7.781-3.483-7.781-7.779
		c0-4.295,3.483-7.782,7.781-7.782c4.297,0,7.778,3.487,7.778,7.782C268.898,415.036,265.417,418.519,261.12,418.519
		 M286.725,558.996c-4.297,0-7.778-3.48-7.778-7.777c0-4.295,3.481-7.779,7.778-7.779c4.296,0,7.781,3.484,7.781,7.779
		C294.506,555.516,291.021,558.996,286.725,558.996 M286.725,535.843c-4.297,0-7.778-3.482-7.778-7.777
		c0-4.297,3.481-7.781,7.778-7.781c4.296,0,7.781,3.484,7.781,7.781C294.506,532.361,291.021,535.843,286.725,535.843
		 M286.725,512.693c-4.297,0-7.778-3.485-7.778-7.781c0-4.297,3.481-7.778,7.778-7.778c4.296,0,7.781,3.481,7.781,7.778
		C294.506,509.208,291.021,512.693,286.725,512.693 M286.725,487.976c-4.297,0-7.778-3.482-7.778-7.777
		c0-4.296,3.481-7.783,7.778-7.783c4.296,0,7.781,3.487,7.781,7.783C294.506,484.494,291.021,487.976,286.725,487.976
		 M286.725,464.826c-4.297,0-7.778-3.485-7.778-7.783c0-4.295,3.481-7.777,7.778-7.777c4.296,0,7.781,3.482,7.781,7.777
		C294.506,461.341,291.021,464.826,286.725,464.826 M286.725,441.671c-4.297,0-7.778-3.484-7.778-7.781
		c0-4.297,3.481-7.777,7.778-7.777c4.296,0,7.781,3.48,7.781,7.777C294.506,438.187,291.021,441.671,286.725,441.671
		 M286.725,418.519c-4.297,0-7.778-3.483-7.778-7.779c0-4.295,3.481-7.782,7.778-7.782c4.296,0,7.781,3.487,7.781,7.782
		C294.506,415.036,291.021,418.519,286.725,418.519 M312.331,558.996c-4.296,0-7.781-3.48-7.781-7.777
		c0-4.295,3.485-7.779,7.781-7.779c4.299,0,7.782,3.484,7.782,7.779C320.113,555.516,316.63,558.996,312.331,558.996
		 M312.331,535.843c-4.296,0-7.781-3.482-7.781-7.777c0-4.297,3.485-7.781,7.781-7.781c4.299,0,7.782,3.484,7.782,7.781
		C320.113,532.361,316.63,535.843,312.331,535.843 M312.331,512.693c-4.296,0-7.781-3.485-7.781-7.781
		c0-4.297,3.485-7.778,7.781-7.778c4.299,0,7.782,3.481,7.782,7.778C320.113,509.208,316.63,512.693,312.331,512.693
		 M312.331,487.976c-4.296,0-7.781-3.482-7.781-7.777c0-4.296,3.485-7.783,7.781-7.783c4.299,0,7.782,3.487,7.782,7.783
		C320.113,484.494,316.63,487.976,312.331,487.976 M312.331,464.826c-4.296,0-7.781-3.485-7.781-7.783
		c0-4.295,3.485-7.777,7.781-7.777c4.299,0,7.782,3.482,7.782,7.777C320.113,461.341,316.63,464.826,312.331,464.826
		 M312.331,441.671c-4.296,0-7.781-3.484-7.781-7.781c0-4.297,3.485-7.777,7.781-7.777c4.299,0,7.782,3.48,7.782,7.777
		C320.113,438.187,316.63,441.671,312.331,441.671 M312.331,418.519c-4.296,0-7.781-3.483-7.781-7.779
		c0-4.295,3.485-7.782,7.781-7.782c4.299,0,7.782,3.487,7.782,7.782C320.113,415.036,316.63,418.519,312.331,418.519
		 M337.938,558.996c-4.294,0-7.782-3.48-7.782-7.777c0-4.295,3.488-7.779,7.782-7.779c4.297,0,7.778,3.484,7.778,7.779
		C345.717,555.516,342.235,558.996,337.938,558.996 M337.938,535.843c-4.294,0-7.782-3.482-7.782-7.777
		c0-4.297,3.488-7.781,7.782-7.781c4.297,0,7.778,3.484,7.778,7.781C345.717,532.361,342.235,535.843,337.938,535.843
		 M337.938,512.693c-4.294,0-7.782-3.485-7.782-7.781c0-4.297,3.488-7.778,7.782-7.778c4.297,0,7.778,3.481,7.778,7.778
		C345.717,509.208,342.235,512.693,337.938,512.693 M337.938,487.976c-4.294,0-7.782-3.482-7.782-7.777
		c0-4.296,3.488-7.783,7.782-7.783c4.297,0,7.778,3.487,7.778,7.783C345.717,484.494,342.235,487.976,337.938,487.976
		 M337.938,464.826c-4.294,0-7.782-3.485-7.782-7.783c0-4.295,3.488-7.777,7.782-7.777c4.297,0,7.778,3.482,7.778,7.777
		C345.717,461.341,342.235,464.826,337.938,464.826 M337.938,441.671c-4.294,0-7.782-3.484-7.782-7.781
		c0-4.297,3.488-7.777,7.782-7.777c4.297,0,7.778,3.48,7.778,7.777C345.717,438.187,342.235,441.671,337.938,441.671
		 M337.938,418.519c-4.294,0-7.782-3.483-7.782-7.779c0-4.295,3.488-7.782,7.782-7.782c4.297,0,7.778,3.487,7.778,7.782
		C345.717,415.036,342.235,418.519,337.938,418.519 M363.544,558.996c-4.298,0-7.778-3.48-7.778-7.777
		c0-4.295,3.48-7.779,7.778-7.779c4.297,0,7.778,3.484,7.778,7.779C371.322,555.516,367.841,558.996,363.544,558.996
		 M363.544,535.843c-4.298,0-7.778-3.482-7.778-7.777c0-4.297,3.48-7.781,7.778-7.781c4.297,0,7.778,3.484,7.778,7.781
		C371.322,532.361,367.841,535.843,363.544,535.843 M363.544,512.693c-4.298,0-7.778-3.485-7.778-7.781
		c0-4.297,3.48-7.778,7.778-7.778c4.297,0,7.778,3.481,7.778,7.778C371.322,509.208,367.841,512.693,363.544,512.693
		 M363.544,487.976c-4.298,0-7.778-3.482-7.778-7.777c0-4.296,3.48-7.783,7.778-7.783c4.297,0,7.778,3.487,7.778,7.783
		C371.322,484.494,367.841,487.976,363.544,487.976 M363.544,464.826c-4.298,0-7.778-3.485-7.778-7.783
		c0-4.295,3.48-7.777,7.778-7.777c4.297,0,7.778,3.482,7.778,7.777C371.322,461.341,367.841,464.826,363.544,464.826
		 M363.544,441.671c-4.298,0-7.778-3.484-7.778-7.781c0-4.297,3.48-7.777,7.778-7.777c4.297,0,7.778,3.48,7.778,7.777
		C371.322,438.187,367.841,441.671,363.544,441.671 M363.544,418.519c-4.298,0-7.778-3.483-7.778-7.779
		c0-4.295,3.48-7.782,7.778-7.782c4.297,0,7.778,3.487,7.778,7.782C371.322,415.036,367.841,418.519,363.544,418.519
		 M389.149,558.996c-4.298,0-7.779-3.48-7.779-7.777c0-4.295,3.481-7.779,7.779-7.779c4.299,0,7.78,3.484,7.78,7.779
		C396.93,555.516,393.448,558.996,389.149,558.996 M389.149,535.843c-4.298,0-7.779-3.482-7.779-7.777
		c0-4.297,3.481-7.781,7.779-7.781c4.299,0,7.78,3.484,7.78,7.781C396.93,532.361,393.448,535.843,389.149,535.843 M389.149,512.693
		c-4.298,0-7.779-3.485-7.779-7.781c0-4.297,3.481-7.778,7.779-7.778c4.299,0,7.78,3.481,7.78,7.778
		C396.93,509.208,393.448,512.693,389.149,512.693 M389.149,487.976c-4.298,0-7.779-3.482-7.779-7.777
		c0-4.296,3.481-7.783,7.779-7.783c4.299,0,7.78,3.487,7.78,7.783C396.93,484.494,393.448,487.976,389.149,487.976 M389.149,464.826
		c-4.298,0-7.779-3.485-7.779-7.783c0-4.295,3.481-7.777,7.779-7.777c4.299,0,7.78,3.482,7.78,7.777
		C396.93,461.341,393.448,464.826,389.149,464.826 M389.149,441.671c-4.298,0-7.779-3.484-7.779-7.781
		c0-4.297,3.481-7.777,7.779-7.777c4.299,0,7.78,3.48,7.78,7.777C396.93,438.187,393.448,441.671,389.149,441.671 M389.149,418.519
		c-4.298,0-7.779-3.483-7.779-7.779c0-4.295,3.481-7.782,7.779-7.782c4.299,0,7.78,3.487,7.78,7.782
		C396.93,415.036,393.448,418.519,389.149,418.519"/>
	<path clip-path="url(#SVGID_8_)" fill="#4B2B7F" d="M54.981,402.958c-4.298,0-7.784,3.487-7.784,7.782
		c0,4.296,3.486,7.779,7.784,7.779c4.295,0,7.776-3.483,7.776-7.779C62.758,406.444,59.276,402.958,54.981,402.958"/>
	<path clip-path="url(#SVGID_8_)" fill="#4B2B7F" d="M80.585,402.958c-4.295,0-7.779,3.487-7.779,7.782
		c0,4.296,3.484,7.779,7.779,7.779c4.301,0,7.782-3.483,7.782-7.779C88.367,406.444,84.886,402.958,80.585,402.958"/>
	<path clip-path="url(#SVGID_8_)" fill="#4B2B7F" d="M106.192,402.958c-4.295,0-7.779,3.487-7.779,7.782
		c0,4.296,3.484,7.779,7.779,7.779s7.779-3.483,7.779-7.779C113.972,406.444,110.487,402.958,106.192,402.958"/>
	<path clip-path="url(#SVGID_8_)" fill="#4B2B7F" d="M131.798,402.958c-4.295,0-7.781,3.487-7.781,7.782
		c0,4.296,3.486,7.779,7.781,7.779c4.299,0,7.782-3.483,7.782-7.779C139.58,406.444,136.097,402.958,131.798,402.958"/>
	<path clip-path="url(#SVGID_8_)" fill="#4B2B7F" d="M157.405,402.958c-4.295,0-7.782,3.487-7.782,7.782
		c0,4.296,3.487,7.779,7.782,7.779c4.299,0,7.779-3.483,7.779-7.779C165.185,406.444,161.704,402.958,157.405,402.958"/>
	<path clip-path="url(#SVGID_8_)" fill="#4B2B7F" d="M183.013,402.958c-4.297,0-7.782,3.487-7.782,7.782
		c0,4.296,3.485,7.779,7.782,7.779s7.778-3.483,7.778-7.779C190.791,406.444,187.31,402.958,183.013,402.958"/>
	<path clip-path="url(#SVGID_8_)" fill="#4B2B7F" d="M208.618,402.958c-4.299,0-7.779,3.487-7.779,7.782
		c0,4.296,3.48,7.779,7.779,7.779c4.297,0,7.779-3.483,7.779-7.779C216.397,406.444,212.915,402.958,208.618,402.958"/>
	<path clip-path="url(#SVGID_8_)" fill="#4B2B7F" d="M54.981,426.113c-4.298,0-7.784,3.48-7.784,7.777
		c0,4.297,3.486,7.781,7.784,7.781c4.295,0,7.776-3.484,7.776-7.781C62.758,429.593,59.276,426.113,54.981,426.113"/>
	<path clip-path="url(#SVGID_8_)" fill="#4B2B7F" d="M80.585,426.113c-4.295,0-7.779,3.48-7.779,7.777
		c0,4.297,3.484,7.781,7.779,7.781c4.301,0,7.782-3.484,7.782-7.781C88.367,429.593,84.886,426.113,80.585,426.113"/>
	<path clip-path="url(#SVGID_8_)" fill="#4B2B7F" d="M106.192,426.113c-4.295,0-7.779,3.48-7.779,7.777
		c0,4.297,3.484,7.781,7.779,7.781s7.779-3.484,7.779-7.781C113.972,429.593,110.487,426.113,106.192,426.113"/>
	<path clip-path="url(#SVGID_8_)" fill="#4B2B7F" d="M131.798,426.113c-4.295,0-7.781,3.48-7.781,7.777
		c0,4.297,3.486,7.781,7.781,7.781c4.299,0,7.782-3.484,7.782-7.781C139.58,429.593,136.097,426.113,131.798,426.113"/>
	<path clip-path="url(#SVGID_8_)" fill="#4B2B7F" d="M157.405,426.113c-4.295,0-7.782,3.48-7.782,7.777
		c0,4.297,3.487,7.781,7.782,7.781c4.299,0,7.779-3.484,7.779-7.781C165.185,429.593,161.704,426.113,157.405,426.113"/>
	<path clip-path="url(#SVGID_8_)" fill="#4B2B7F" d="M183.013,426.113c-4.297,0-7.782,3.48-7.782,7.777
		c0,4.297,3.485,7.781,7.782,7.781s7.778-3.484,7.778-7.781C190.791,429.593,187.31,426.113,183.013,426.113"/>
	<path clip-path="url(#SVGID_8_)" fill="#4B2B7F" d="M208.618,426.113c-4.299,0-7.779,3.48-7.779,7.777
		c0,4.297,3.48,7.781,7.779,7.781c4.297,0,7.779-3.484,7.779-7.781C216.397,429.593,212.915,426.113,208.618,426.113"/>
	<path clip-path="url(#SVGID_8_)" fill="#4B2B7F" d="M54.981,449.266c-4.298,0-7.784,3.482-7.784,7.777
		c0,4.297,3.486,7.783,7.784,7.783c4.295,0,7.776-3.486,7.776-7.783C62.758,452.748,59.276,449.266,54.981,449.266"/>
	<path clip-path="url(#SVGID_8_)" fill="#4B2B7F" d="M80.585,449.266c-4.295,0-7.779,3.482-7.779,7.777
		c0,4.297,3.484,7.783,7.779,7.783c4.301,0,7.782-3.486,7.782-7.783C88.367,452.748,84.886,449.266,80.585,449.266"/>
	<path clip-path="url(#SVGID_8_)" fill="#4B2B7F" d="M106.192,449.266c-4.295,0-7.779,3.482-7.779,7.777
		c0,4.297,3.484,7.783,7.779,7.783s7.779-3.486,7.779-7.783C113.972,452.748,110.487,449.266,106.192,449.266"/>
	<path clip-path="url(#SVGID_8_)" fill="#4B2B7F" d="M131.798,449.266c-4.295,0-7.781,3.482-7.781,7.777
		c0,4.297,3.486,7.783,7.781,7.783c4.299,0,7.782-3.486,7.782-7.783C139.58,452.748,136.097,449.266,131.798,449.266"/>
	<path clip-path="url(#SVGID_8_)" fill="#4B2B7F" d="M157.405,449.266c-4.295,0-7.782,3.482-7.782,7.777
		c0,4.297,3.487,7.783,7.782,7.783c4.299,0,7.779-3.486,7.779-7.783C165.185,452.748,161.704,449.266,157.405,449.266"/>
	<path clip-path="url(#SVGID_8_)" fill="#4B2B7F" d="M183.013,449.266c-4.297,0-7.782,3.482-7.782,7.777
		c0,4.297,3.485,7.783,7.782,7.783s7.778-3.486,7.778-7.783C190.791,452.748,187.31,449.266,183.013,449.266"/>
	<path clip-path="url(#SVGID_8_)" fill="#4B2B7F" d="M208.618,449.266c-4.299,0-7.779,3.482-7.779,7.777
		c0,4.297,3.48,7.783,7.779,7.783c4.297,0,7.779-3.486,7.779-7.783C216.397,452.748,212.915,449.266,208.618,449.266"/>
	<path clip-path="url(#SVGID_8_)" fill="#4B2B7F" d="M54.981,472.416c-4.298,0-7.784,3.487-7.784,7.782
		c0,4.296,3.486,7.777,7.784,7.777c4.295,0,7.776-3.481,7.776-7.777C62.758,475.903,59.276,472.416,54.981,472.416"/>
	<path clip-path="url(#SVGID_8_)" fill="#4B2B7F" d="M80.585,472.416c-4.295,0-7.779,3.487-7.779,7.782
		c0,4.296,3.484,7.777,7.779,7.777c4.301,0,7.782-3.481,7.782-7.777C88.367,475.903,84.886,472.416,80.585,472.416"/>
	<path clip-path="url(#SVGID_8_)" fill="#4B2B7F" d="M106.192,472.416c-4.295,0-7.779,3.487-7.779,7.782
		c0,4.296,3.484,7.777,7.779,7.777s7.779-3.481,7.779-7.777C113.972,475.903,110.487,472.416,106.192,472.416"/>
	<path clip-path="url(#SVGID_8_)" fill="#4B2B7F" d="M131.798,472.416c-4.295,0-7.781,3.487-7.781,7.782
		c0,4.296,3.486,7.777,7.781,7.777c4.299,0,7.782-3.481,7.782-7.777C139.58,475.903,136.097,472.416,131.798,472.416"/>
	<path clip-path="url(#SVGID_8_)" fill="#4B2B7F" d="M157.405,472.416c-4.295,0-7.782,3.487-7.782,7.782
		c0,4.296,3.487,7.777,7.782,7.777c4.299,0,7.779-3.481,7.779-7.777C165.185,475.903,161.704,472.416,157.405,472.416"/>
	<path clip-path="url(#SVGID_8_)" fill="#4B2B7F" d="M183.013,472.416c-4.297,0-7.782,3.487-7.782,7.782
		c0,4.296,3.485,7.777,7.782,7.777s7.778-3.481,7.778-7.777C190.791,475.903,187.31,472.416,183.013,472.416"/>
	<path clip-path="url(#SVGID_8_)" fill="#4B2B7F" d="M208.618,472.416c-4.299,0-7.779,3.487-7.779,7.782
		c0,4.296,3.48,7.777,7.779,7.777c4.297,0,7.779-3.481,7.779-7.777C216.397,475.903,212.915,472.416,208.618,472.416"/>
	<path clip-path="url(#SVGID_8_)" fill="#4B2B7F" d="M235.514,402.958c-4.297,0-7.781,3.487-7.781,7.782
		c0,4.296,3.484,7.779,7.781,7.779c4.295,0,7.779-3.483,7.779-7.779C243.293,406.444,239.809,402.958,235.514,402.958"/>
	<path clip-path="url(#SVGID_8_)" fill="#4B2B7F" d="M261.12,402.958c-4.298,0-7.781,3.487-7.781,7.782
		c0,4.296,3.483,7.779,7.781,7.779c4.297,0,7.778-3.483,7.778-7.779C268.898,406.444,265.417,402.958,261.12,402.958"/>
	<path clip-path="url(#SVGID_8_)" fill="#4B2B7F" d="M286.726,402.958c-4.298,0-7.779,3.487-7.779,7.782
		c0,4.296,3.481,7.779,7.779,7.779c4.295,0,7.78-3.483,7.78-7.779C294.506,406.444,291.021,402.958,286.726,402.958"/>
	<path clip-path="url(#SVGID_8_)" fill="#4B2B7F" d="M312.331,402.958c-4.295,0-7.781,3.487-7.781,7.782
		c0,4.296,3.486,7.779,7.781,7.779c4.299,0,7.782-3.483,7.782-7.779C320.113,406.444,316.63,402.958,312.331,402.958"/>
	<path clip-path="url(#SVGID_8_)" fill="#4B2B7F" d="M337.938,402.958c-4.294,0-7.782,3.487-7.782,7.782
		c0,4.296,3.488,7.779,7.782,7.779c4.297,0,7.778-3.483,7.778-7.779C345.717,406.444,342.235,402.958,337.938,402.958"/>
	<path clip-path="url(#SVGID_8_)" fill="#4B2B7F" d="M363.544,402.958c-4.297,0-7.779,3.487-7.779,7.782
		c0,4.296,3.482,7.779,7.779,7.779s7.778-3.483,7.778-7.779C371.322,406.444,367.841,402.958,363.544,402.958"/>
	<path clip-path="url(#SVGID_8_)" fill="#4B2B7F" d="M389.149,402.958c-4.298,0-7.779,3.487-7.779,7.782
		c0,4.296,3.481,7.779,7.779,7.779c4.299,0,7.78-3.483,7.78-7.779C396.93,406.444,393.448,402.958,389.149,402.958"/>
	<path clip-path="url(#SVGID_8_)" fill="#4B2B7F" d="M235.514,426.113c-4.297,0-7.781,3.48-7.781,7.777
		c0,4.297,3.484,7.781,7.781,7.781c4.295,0,7.779-3.484,7.779-7.781C243.293,429.593,239.809,426.113,235.514,426.113"/>
	<path clip-path="url(#SVGID_8_)" fill="#4B2B7F" d="M261.12,426.113c-4.298,0-7.781,3.48-7.781,7.777
		c0,4.297,3.483,7.781,7.781,7.781c4.297,0,7.778-3.484,7.778-7.781C268.898,429.593,265.417,426.113,261.12,426.113"/>
	<path clip-path="url(#SVGID_8_)" fill="#4B2B7F" d="M286.726,426.113c-4.298,0-7.779,3.48-7.779,7.777
		c0,4.297,3.481,7.781,7.779,7.781c4.295,0,7.78-3.484,7.78-7.781C294.506,429.593,291.021,426.113,286.726,426.113"/>
	<path clip-path="url(#SVGID_8_)" fill="#4B2B7F" d="M312.331,426.113c-4.295,0-7.781,3.48-7.781,7.777
		c0,4.297,3.486,7.781,7.781,7.781c4.299,0,7.782-3.484,7.782-7.781C320.113,429.593,316.63,426.113,312.331,426.113"/>
	<path clip-path="url(#SVGID_8_)" fill="#4B2B7F" d="M337.938,426.113c-4.294,0-7.782,3.48-7.782,7.777
		c0,4.297,3.488,7.781,7.782,7.781c4.297,0,7.778-3.484,7.778-7.781C345.717,429.593,342.235,426.113,337.938,426.113"/>
	<path clip-path="url(#SVGID_8_)" fill="#4B2B7F" d="M363.544,426.113c-4.297,0-7.779,3.48-7.779,7.777
		c0,4.297,3.482,7.781,7.779,7.781s7.778-3.484,7.778-7.781C371.322,429.593,367.841,426.113,363.544,426.113"/>
	<path clip-path="url(#SVGID_8_)" fill="#4B2B7F" d="M389.149,426.113c-4.298,0-7.779,3.48-7.779,7.777
		c0,4.297,3.481,7.781,7.779,7.781c4.299,0,7.78-3.484,7.78-7.781C396.93,429.593,393.448,426.113,389.149,426.113"/>
	<path clip-path="url(#SVGID_8_)" fill="#4B2B7F" d="M235.514,449.266c-4.297,0-7.781,3.482-7.781,7.777
		c0,4.297,3.484,7.783,7.781,7.783c4.295,0,7.779-3.486,7.779-7.783C243.293,452.748,239.809,449.266,235.514,449.266"/>
	<path clip-path="url(#SVGID_8_)" fill="#4B2B7F" d="M261.12,449.266c-4.298,0-7.781,3.482-7.781,7.777
		c0,4.297,3.483,7.783,7.781,7.783c4.297,0,7.778-3.486,7.778-7.783C268.898,452.748,265.417,449.266,261.12,449.266"/>
	<path clip-path="url(#SVGID_8_)" fill="#4B2B7F" d="M286.726,449.266c-4.298,0-7.779,3.482-7.779,7.777
		c0,4.297,3.481,7.783,7.779,7.783c4.295,0,7.78-3.486,7.78-7.783C294.506,452.748,291.021,449.266,286.726,449.266"/>
	<path clip-path="url(#SVGID_8_)" fill="#4B2B7F" d="M312.331,449.266c-4.295,0-7.781,3.482-7.781,7.777
		c0,4.297,3.486,7.783,7.781,7.783c4.299,0,7.782-3.486,7.782-7.783C320.113,452.748,316.63,449.266,312.331,449.266"/>
	<path clip-path="url(#SVGID_8_)" fill="#4B2B7F" d="M337.938,449.266c-4.294,0-7.782,3.482-7.782,7.777
		c0,4.297,3.488,7.783,7.782,7.783c4.297,0,7.778-3.486,7.778-7.783C345.717,452.748,342.235,449.266,337.938,449.266"/>
	<path clip-path="url(#SVGID_8_)" fill="#4B2B7F" d="M363.544,449.266c-4.297,0-7.779,3.482-7.779,7.777
		c0,4.297,3.482,7.783,7.779,7.783s7.778-3.486,7.778-7.783C371.322,452.748,367.841,449.266,363.544,449.266"/>
	<path clip-path="url(#SVGID_8_)" fill="#4B2B7F" d="M389.149,449.266c-4.298,0-7.779,3.482-7.779,7.777
		c0,4.297,3.481,7.783,7.779,7.783c4.299,0,7.78-3.486,7.78-7.783C396.93,452.748,393.448,449.266,389.149,449.266"/>
	<path clip-path="url(#SVGID_8_)" fill="#4B2B7F" d="M235.514,472.416c-4.297,0-7.781,3.487-7.781,7.782
		c0,4.296,3.484,7.777,7.781,7.777c4.295,0,7.779-3.481,7.779-7.777C243.293,475.903,239.809,472.416,235.514,472.416"/>
	<path clip-path="url(#SVGID_8_)" fill="#4B2B7F" d="M261.12,472.416c-4.298,0-7.781,3.487-7.781,7.782
		c0,4.296,3.483,7.777,7.781,7.777c4.297,0,7.778-3.481,7.778-7.777C268.898,475.903,265.417,472.416,261.12,472.416"/>
	<path clip-path="url(#SVGID_8_)" fill="#4B2B7F" d="M286.726,472.416c-4.298,0-7.779,3.487-7.779,7.782
		c0,4.296,3.481,7.777,7.779,7.777c4.295,0,7.78-3.481,7.78-7.777C294.506,475.903,291.021,472.416,286.726,472.416"/>
	<path clip-path="url(#SVGID_8_)" fill="#4B2B7F" d="M312.331,472.416c-4.295,0-7.781,3.487-7.781,7.782
		c0,4.296,3.486,7.777,7.781,7.777c4.299,0,7.782-3.481,7.782-7.777C320.113,475.903,316.63,472.416,312.331,472.416"/>
	<path clip-path="url(#SVGID_8_)" fill="#4B2B7F" d="M337.938,472.416c-4.294,0-7.782,3.487-7.782,7.782
		c0,4.296,3.488,7.777,7.782,7.777c4.297,0,7.778-3.481,7.778-7.777C345.717,475.903,342.235,472.416,337.938,472.416"/>
	<path clip-path="url(#SVGID_8_)" fill="#4B2B7F" d="M363.544,472.416c-4.297,0-7.779,3.487-7.779,7.782
		c0,4.296,3.482,7.777,7.779,7.777s7.778-3.481,7.778-7.777C371.322,475.903,367.841,472.416,363.544,472.416"/>
	<path clip-path="url(#SVGID_8_)" fill="#4B2B7F" d="M389.149,472.416c-4.298,0-7.779,3.487-7.779,7.782
		c0,4.296,3.481,7.777,7.779,7.777c4.299,0,7.78-3.481,7.78-7.777C396.93,475.903,393.448,472.416,389.149,472.416"/>
	<path clip-path="url(#SVGID_8_)" fill="#4B2B7F" d="M54.981,497.133c-4.298,0-7.784,3.482-7.784,7.779
		c0,4.295,3.486,7.78,7.784,7.78c4.295,0,7.776-3.485,7.776-7.78C62.758,500.615,59.276,497.133,54.981,497.133"/>
	<path clip-path="url(#SVGID_8_)" fill="#4B2B7F" d="M80.585,497.133c-4.295,0-7.779,3.482-7.779,7.779
		c0,4.295,3.484,7.78,7.779,7.78c4.301,0,7.782-3.485,7.782-7.78C88.367,500.615,84.886,497.133,80.585,497.133"/>
	<path clip-path="url(#SVGID_8_)" fill="#4B2B7F" d="M106.192,497.133c-4.295,0-7.779,3.482-7.779,7.779
		c0,4.295,3.484,7.78,7.779,7.78s7.779-3.485,7.779-7.78C113.972,500.615,110.487,497.133,106.192,497.133"/>
	<path clip-path="url(#SVGID_8_)" fill="#4B2B7F" d="M131.798,497.133c-4.295,0-7.781,3.482-7.781,7.779
		c0,4.295,3.486,7.78,7.781,7.78c4.299,0,7.782-3.485,7.782-7.78C139.58,500.615,136.097,497.133,131.798,497.133"/>
	<path clip-path="url(#SVGID_8_)" fill="#4B2B7F" d="M157.405,497.133c-4.295,0-7.782,3.482-7.782,7.779
		c0,4.295,3.487,7.78,7.782,7.78c4.299,0,7.779-3.485,7.779-7.78C165.185,500.615,161.704,497.133,157.405,497.133"/>
	<path clip-path="url(#SVGID_8_)" fill="#4B2B7F" d="M183.013,497.133c-4.297,0-7.782,3.482-7.782,7.779
		c0,4.295,3.485,7.78,7.782,7.78s7.778-3.485,7.778-7.78C190.791,500.615,187.31,497.133,183.013,497.133"/>
	<path clip-path="url(#SVGID_8_)" fill="#4B2B7F" d="M208.618,497.133c-4.299,0-7.779,3.482-7.779,7.779
		c0,4.295,3.48,7.78,7.779,7.78c4.297,0,7.779-3.485,7.779-7.78C216.397,500.615,212.915,497.133,208.618,497.133"/>
	<path clip-path="url(#SVGID_8_)" fill="#4B2B7F" d="M54.981,520.285c-4.298,0-7.784,3.483-7.784,7.781
		c0,4.295,3.486,7.777,7.784,7.777c4.295,0,7.776-3.482,7.776-7.777C62.758,523.768,59.276,520.285,54.981,520.285"/>
	<path clip-path="url(#SVGID_8_)" fill="#4B2B7F" d="M80.585,520.285c-4.295,0-7.779,3.483-7.779,7.781
		c0,4.295,3.484,7.777,7.779,7.777c4.301,0,7.782-3.482,7.782-7.777C88.367,523.768,84.886,520.285,80.585,520.285"/>
	<path clip-path="url(#SVGID_8_)" fill="#4B2B7F" d="M106.192,520.285c-4.295,0-7.779,3.483-7.779,7.781
		c0,4.295,3.484,7.777,7.779,7.777s7.779-3.482,7.779-7.777C113.972,523.768,110.487,520.285,106.192,520.285"/>
	<path clip-path="url(#SVGID_8_)" fill="#4B2B7F" d="M131.798,520.285c-4.295,0-7.781,3.483-7.781,7.781
		c0,4.295,3.486,7.777,7.781,7.777c4.299,0,7.782-3.482,7.782-7.777C139.58,523.768,136.097,520.285,131.798,520.285"/>
	<path clip-path="url(#SVGID_8_)" fill="#4B2B7F" d="M157.405,520.285c-4.295,0-7.782,3.483-7.782,7.781
		c0,4.295,3.487,7.777,7.782,7.777c4.299,0,7.779-3.482,7.779-7.777C165.185,523.768,161.704,520.285,157.405,520.285"/>
	<path clip-path="url(#SVGID_8_)" fill="#4B2B7F" d="M183.013,520.285c-4.297,0-7.782,3.483-7.782,7.781
		c0,4.295,3.485,7.777,7.782,7.777s7.778-3.482,7.778-7.777C190.791,523.768,187.31,520.285,183.013,520.285"/>
	<path clip-path="url(#SVGID_8_)" fill="#4B2B7F" d="M208.618,520.285c-4.299,0-7.779,3.483-7.779,7.781
		c0,4.295,3.48,7.777,7.779,7.777c4.297,0,7.779-3.482,7.779-7.777C216.397,523.768,212.915,520.285,208.618,520.285"/>
	<path clip-path="url(#SVGID_8_)" fill="#4B2B7F" d="M54.981,543.44c-4.298,0-7.784,3.484-7.784,7.779
		c0,4.297,3.486,7.777,7.784,7.777c4.295,0,7.776-3.48,7.776-7.777C62.758,546.924,59.276,543.44,54.981,543.44"/>
	<path clip-path="url(#SVGID_8_)" fill="#4B2B7F" d="M80.585,543.44c-4.295,0-7.779,3.484-7.779,7.779
		c0,4.297,3.484,7.777,7.779,7.777c4.301,0,7.782-3.48,7.782-7.777C88.367,546.924,84.886,543.44,80.585,543.44"/>
	<path clip-path="url(#SVGID_8_)" fill="#4B2B7F" d="M106.192,543.44c-4.295,0-7.779,3.484-7.779,7.779
		c0,4.297,3.484,7.777,7.779,7.777s7.779-3.48,7.779-7.777C113.972,546.924,110.487,543.44,106.192,543.44"/>
	<path clip-path="url(#SVGID_8_)" fill="#4B2B7F" d="M131.798,543.44c-4.295,0-7.781,3.484-7.781,7.779
		c0,4.297,3.486,7.777,7.781,7.777c4.299,0,7.782-3.48,7.782-7.777C139.58,546.924,136.097,543.44,131.798,543.44"/>
	<path clip-path="url(#SVGID_8_)" fill="#4B2B7F" d="M157.405,543.44c-4.295,0-7.782,3.484-7.782,7.779
		c0,4.297,3.487,7.777,7.782,7.777c4.299,0,7.779-3.48,7.779-7.777C165.185,546.924,161.704,543.44,157.405,543.44"/>
	<path clip-path="url(#SVGID_8_)" fill="#4B2B7F" d="M183.013,543.44c-4.297,0-7.782,3.484-7.782,7.779
		c0,4.297,3.485,7.777,7.782,7.777s7.778-3.48,7.778-7.777C190.791,546.924,187.31,543.44,183.013,543.44"/>
	<path clip-path="url(#SVGID_8_)" fill="#4B2B7F" d="M208.618,543.44c-4.299,0-7.779,3.484-7.779,7.779
		c0,4.297,3.48,7.777,7.779,7.777c4.297,0,7.779-3.48,7.779-7.777C216.397,546.924,212.915,543.44,208.618,543.44"/>
	<path clip-path="url(#SVGID_8_)" fill="#4B2B7F" d="M235.514,497.133c-4.297,0-7.781,3.482-7.781,7.779
		c0,4.295,3.484,7.78,7.781,7.78c4.295,0,7.779-3.485,7.779-7.78C243.293,500.615,239.809,497.133,235.514,497.133"/>
	<path clip-path="url(#SVGID_8_)" fill="#4B2B7F" d="M261.12,497.133c-4.298,0-7.781,3.482-7.781,7.779
		c0,4.295,3.483,7.78,7.781,7.78c4.297,0,7.778-3.485,7.778-7.78C268.898,500.615,265.417,497.133,261.12,497.133"/>
	<path clip-path="url(#SVGID_8_)" fill="#4B2B7F" d="M286.726,497.133c-4.298,0-7.779,3.482-7.779,7.779
		c0,4.295,3.481,7.78,7.779,7.78c4.295,0,7.78-3.485,7.78-7.78C294.506,500.615,291.021,497.133,286.726,497.133"/>
	<path clip-path="url(#SVGID_8_)" fill="#4B2B7F" d="M312.331,497.133c-4.295,0-7.781,3.482-7.781,7.779
		c0,4.295,3.486,7.78,7.781,7.78c4.299,0,7.782-3.485,7.782-7.78C320.113,500.615,316.63,497.133,312.331,497.133"/>
	<path clip-path="url(#SVGID_8_)" fill="#4B2B7F" d="M337.938,497.133c-4.294,0-7.782,3.482-7.782,7.779
		c0,4.295,3.488,7.78,7.782,7.78c4.297,0,7.778-3.485,7.778-7.78C345.717,500.615,342.235,497.133,337.938,497.133"/>
	<path clip-path="url(#SVGID_8_)" fill="#4B2B7F" d="M363.544,497.133c-4.297,0-7.779,3.482-7.779,7.779
		c0,4.295,3.482,7.78,7.779,7.78s7.778-3.485,7.778-7.78C371.322,500.615,367.841,497.133,363.544,497.133"/>
	<path clip-path="url(#SVGID_8_)" fill="#4B2B7F" d="M389.149,497.133c-4.298,0-7.779,3.482-7.779,7.779
		c0,4.295,3.481,7.78,7.779,7.78c4.299,0,7.78-3.485,7.78-7.78C396.93,500.615,393.448,497.133,389.149,497.133"/>
	<path clip-path="url(#SVGID_8_)" fill="#4B2B7F" d="M235.514,520.285c-4.297,0-7.781,3.483-7.781,7.781
		c0,4.295,3.484,7.777,7.781,7.777c4.295,0,7.779-3.482,7.779-7.777C243.293,523.768,239.809,520.285,235.514,520.285"/>
	<path clip-path="url(#SVGID_8_)" fill="#4B2B7F" d="M261.12,520.285c-4.298,0-7.781,3.483-7.781,7.781
		c0,4.295,3.483,7.777,7.781,7.777c4.297,0,7.778-3.482,7.778-7.777C268.898,523.768,265.417,520.285,261.12,520.285"/>
	<path clip-path="url(#SVGID_8_)" fill="#4B2B7F" d="M286.726,520.285c-4.298,0-7.779,3.483-7.779,7.781
		c0,4.295,3.481,7.777,7.779,7.777c4.295,0,7.78-3.482,7.78-7.777C294.506,523.768,291.021,520.285,286.726,520.285"/>
	<path clip-path="url(#SVGID_8_)" fill="#4B2B7F" d="M312.331,520.285c-4.295,0-7.781,3.483-7.781,7.781
		c0,4.295,3.486,7.777,7.781,7.777c4.299,0,7.782-3.482,7.782-7.777C320.113,523.768,316.63,520.285,312.331,520.285"/>
	<path clip-path="url(#SVGID_8_)" fill="#4B2B7F" d="M337.938,520.285c-4.294,0-7.782,3.483-7.782,7.781
		c0,4.295,3.488,7.777,7.782,7.777c4.297,0,7.778-3.482,7.778-7.777C345.717,523.768,342.235,520.285,337.938,520.285"/>
	<path clip-path="url(#SVGID_8_)" fill="#4B2B7F" d="M363.544,520.285c-4.297,0-7.779,3.483-7.779,7.781
		c0,4.295,3.482,7.777,7.779,7.777s7.778-3.482,7.778-7.777C371.322,523.768,367.841,520.285,363.544,520.285"/>
	<path clip-path="url(#SVGID_8_)" fill="#4B2B7F" d="M389.149,520.285c-4.298,0-7.779,3.483-7.779,7.781
		c0,4.295,3.481,7.777,7.779,7.777c4.299,0,7.78-3.482,7.78-7.777C396.93,523.768,393.448,520.285,389.149,520.285"/>
	<path clip-path="url(#SVGID_8_)" fill="#4B2B7F" d="M235.514,543.44c-4.297,0-7.781,3.484-7.781,7.779
		c0,4.297,3.484,7.777,7.781,7.777c4.295,0,7.779-3.48,7.779-7.777C243.293,546.924,239.809,543.44,235.514,543.44"/>
	<path clip-path="url(#SVGID_8_)" fill="#4B2B7F" d="M261.12,543.44c-4.298,0-7.781,3.484-7.781,7.779
		c0,4.297,3.483,7.777,7.781,7.777c4.297,0,7.778-3.48,7.778-7.777C268.898,546.924,265.417,543.44,261.12,543.44"/>
	<path clip-path="url(#SVGID_8_)" fill="#4B2B7F" d="M286.726,543.44c-4.298,0-7.779,3.484-7.779,7.779
		c0,4.297,3.481,7.777,7.779,7.777c4.295,0,7.78-3.48,7.78-7.777C294.506,546.924,291.021,543.44,286.726,543.44"/>
	<path clip-path="url(#SVGID_8_)" fill="#4B2B7F" d="M312.331,543.44c-4.295,0-7.781,3.484-7.781,7.779
		c0,4.297,3.486,7.777,7.781,7.777c4.299,0,7.782-3.48,7.782-7.777C320.113,546.924,316.63,543.44,312.331,543.44"/>
	<path clip-path="url(#SVGID_8_)" fill="#4B2B7F" d="M337.938,543.44c-4.294,0-7.782,3.484-7.782,7.779
		c0,4.297,3.488,7.777,7.782,7.777c4.297,0,7.778-3.48,7.778-7.777C345.717,546.924,342.235,543.44,337.938,543.44"/>
	<path clip-path="url(#SVGID_8_)" fill="#4B2B7F" d="M363.544,543.44c-4.297,0-7.779,3.484-7.779,7.779
		c0,4.297,3.482,7.777,7.779,7.777s7.778-3.48,7.778-7.777C371.322,546.924,367.841,543.44,363.544,543.44"/>
	<path clip-path="url(#SVGID_8_)" fill="#4B2B7F" d="M389.149,543.44c-4.298,0-7.779,3.484-7.779,7.779
		c0,4.297,3.481,7.777,7.779,7.777c4.299,0,7.78-3.48,7.78-7.777C396.93,546.924,393.448,543.44,389.149,543.44"/>
	<polygon clip-path="url(#SVGID_8_)" fill="#4B2B7F" points="569.948,765.06 533.209,765.06 551.58,733.242 569.948,701.425 
		588.318,733.242 606.685,765.06 	"/>
	<polygon clip-path="url(#SVGID_8_)" fill="#F9C223" points="556.436,575.868 501.801,481.239 556.436,386.617 665.698,386.617 
		699.105,444.12 699.105,518.12 665.698,575.868 	"/>
	<polygon clip-path="url(#SVGID_8_)" fill="#E32E2D" points="569.566,553.118 528.068,481.238 569.566,409.362 652.565,409.362 
		694.062,481.238 652.565,553.118 	"/>
	<polygon clip-path="url(#SVGID_8_)" fill="#F9C223" points="579.521,535.874 547.981,481.238 579.521,426.613 642.605,426.613 
		674.146,481.238 642.605,535.874 	"/>
	<polygon clip-path="url(#SVGID_8_)" fill="#E32E2D" points="588.398,520.5 565.732,481.239 588.398,441.986 633.73,441.986 
		656.396,481.239 633.73,520.5 	"/>
	<polygon clip-path="url(#SVGID_8_)" fill="#F9C223" points="452.951,440.784 440.755,447.196 443.082,433.612 433.216,423.999 
		446.852,422.013 452.951,409.656 459.05,422.013 472.687,423.999 462.821,433.612 465.148,447.196 	"/>
	<polygon clip-path="url(#SVGID_8_)" fill="#F9C223" points="452.951,493.599 440.755,500.011 443.082,486.429 433.216,476.813 
		446.852,474.83 452.951,462.473 459.05,474.83 472.687,476.813 462.821,486.429 465.148,500.011 	"/>
	<polygon clip-path="url(#SVGID_8_)" fill="#F9C223" points="452.951,546.414 440.755,552.824 443.082,539.242 433.216,529.628 
		446.852,527.643 452.951,515.286 459.05,527.643 472.687,529.628 462.821,539.242 465.148,552.824 	"/>
</g>
<g>
	<defs>
		<rect id="SVGID_9_" x="131.785" y="575.868" width="153.164" height="189.252"/>
	</defs>
	<clipPath id="SVGID_10_">
		<use xlink:href="#SVGID_9_"  overflow="visible"/>
	</clipPath>
	<path clip-path="url(#SVGID_10_)" fill="#E32E2D" d="M415.028,803.911c0,79.742-64.646,144.39-144.392,144.39
		c-79.747,0-144.385-64.647-144.385-144.39c0-79.747,64.638-144.394,144.385-144.394
		C350.383,659.517,415.028,724.164,415.028,803.911"/>
</g>
<g>
	<defs>
		<polyline id="SVGID_11_" points="697.105,1389.245 -902.83,1389.245 -902.83,-127.139 697.105,-127.139 		"/>
	</defs>
	<clipPath id="SVGID_12_">
		<use xlink:href="#SVGID_11_"  overflow="visible"/>
	</clipPath>
	<polygon clip-path="url(#SVGID_12_)" fill="#4B2B7F" points="611.543,576.149 605.563,582.129 605.563,589.511 618.926,576.149 	
		"/>
	<polygon clip-path="url(#SVGID_12_)" fill="#4B2B7F" points="640.275,576.149 605.563,610.862 605.563,618.242 647.656,576.149 	
		"/>
	<polygon clip-path="url(#SVGID_12_)" fill="#4B2B7F" points="669.006,576.149 605.563,639.592 605.563,646.973 676.387,576.149 	
		"/>
	<polygon clip-path="url(#SVGID_12_)" fill="#4B2B7F" points="698.914,576.149 697.736,576.149 605.563,668.323 605.563,675.706 
		698.914,582.353 	"/>
	<polygon clip-path="url(#SVGID_12_)" fill="#4B2B7F" points="698.914,603.701 605.563,697.053 605.563,704.434 698.914,611.083 	
		"/>
	<polygon clip-path="url(#SVGID_12_)" fill="#4B2B7F" points="698.914,632.432 605.563,725.784 605.563,733.165 698.914,639.813 	
		"/>
	<polygon clip-path="url(#SVGID_12_)" fill="#4B2B7F" points="698.914,661.165 605.563,754.517 605.563,761.897 698.914,668.545 	
		"/>
	<polygon clip-path="url(#SVGID_12_)" fill="#4B2B7F" points="698.914,689.893 623.406,765.4 630.787,765.4 698.914,697.274 	"/>
	<polygon clip-path="url(#SVGID_12_)" fill="#4B2B7F" points="698.914,718.625 652.139,765.4 659.52,765.4 698.914,726.005 	"/>
	<polygon clip-path="url(#SVGID_12_)" fill="#4B2B7F" points="698.914,747.357 680.871,765.4 688.253,765.4 698.914,754.739 	"/>
	<polygon clip-path="url(#SVGID_12_)" fill="#14ADE3" points="35.243,1080.583 47.439,1074.174 45.112,1087.753 54.978,1097.374 
		41.342,1099.355 35.243,1111.709 29.145,1099.355 15.51,1097.374 25.374,1087.753 23.045,1074.174 	"/>
	<polygon clip-path="url(#SVGID_12_)" fill="#14ADE3" points="35.243,1027.771 47.439,1021.359 45.112,1034.939 54.978,1044.557 
		41.342,1046.54 35.243,1058.897 29.145,1046.54 15.51,1044.557 25.374,1034.939 23.045,1021.359 	"/>
	<polygon clip-path="url(#SVGID_12_)" fill="#14ADE3" points="35.243,974.956 47.439,968.543 45.112,982.124 54.978,991.744 
		41.342,993.727 35.243,1006.082 29.145,993.727 15.51,991.744 25.374,982.124 23.045,968.543 	"/>
	<polygon clip-path="url(#SVGID_12_)" fill="#C44791" points="80.587,709.002 92.783,702.592 90.456,716.172 100.32,725.792 
		86.685,727.774 80.587,740.128 74.487,727.774 60.853,725.792 70.718,716.172 68.389,702.592 	"/>
	<polygon clip-path="url(#SVGID_12_)" fill="#C44791" points="80.587,656.19 92.783,649.778 90.456,663.358 100.32,672.975 
		86.685,674.958 80.587,687.316 74.487,674.958 60.853,672.975 70.718,663.358 68.389,649.778 	"/>
	<polygon clip-path="url(#SVGID_12_)" fill="#C44791" points="80.587,603.375 92.783,596.962 90.456,610.542 100.32,620.163 
		86.685,622.146 80.587,634.5 74.487,622.146 60.853,620.163 70.718,610.542 68.389,596.962 	"/>
	<rect x="605.752" y="952.234" clip-path="url(#SVGID_12_)" fill="#C44791" width="93.354" height="189.251"/>
	<rect x="534.139" y="952.235" clip-path="url(#SVGID_12_)" fill="#14ADE3" width="71.613" height="189.251"/>
	<rect x="284.949" y="952.235" clip-path="url(#SVGID_12_)" fill="#E32E2D" width="249.189" height="189.251"/>
	<rect x="64.516" y="952.235" clip-path="url(#SVGID_12_)" fill="#4B2B7F" width="220.434" height="189.251"/>
	<rect x="27.043" y="762.984" clip-path="url(#SVGID_12_)" fill="#C44791" width="391.491" height="189.251"/>
	<rect x="418.534" y="762.984" clip-path="url(#SVGID_12_)" fill="#14ADE3" width="71.614" height="189.251"/>
	<polygon clip-path="url(#SVGID_12_)" fill="#F9C223" points="699.105,951.988 665.056,952.231 665.056,762.982 699.105,762.988 	
		"/>
	<rect x="621.33" y="762.982" clip-path="url(#SVGID_12_)" fill="#F9C223" width="30.555" height="189.249"/>
	<rect x="577.603" y="762.982" clip-path="url(#SVGID_12_)" fill="#F9C223" width="30.556" height="189.249"/>
	<rect x="533.873" y="762.982" clip-path="url(#SVGID_12_)" fill="#F9C223" width="30.559" height="189.249"/>
	<rect x="490.148" y="762.982" clip-path="url(#SVGID_12_)" fill="#F9C223" width="30.556" height="189.249"/>
	<path clip-path="url(#SVGID_12_)" fill="#4B2B7F" d="M670.571,1117.362c0-4.295,3.481-7.779,7.778-7.779
		c4.293,0,7.782,3.484,7.782,7.779s-3.489,7.783-7.782,7.783C674.053,1125.145,670.571,1121.657,670.571,1117.362"/>
	<path clip-path="url(#SVGID_12_)" fill="#4B2B7F" d="M644.966,1117.362c0-4.295,3.481-7.779,7.778-7.779s7.779,3.484,7.779,7.779
		s-3.482,7.783-7.779,7.783S644.966,1121.657,644.966,1117.362"/>
	<path clip-path="url(#SVGID_12_)" fill="#4B2B7F" d="M619.358,1117.362c0-4.295,3.481-7.779,7.78-7.779
		c4.297,0,7.778,3.484,7.778,7.779s-3.481,7.783-7.778,7.783C622.84,1125.145,619.358,1121.657,619.358,1117.362"/>
	<path clip-path="url(#SVGID_12_)" fill="#4B2B7F" d="M670.571,1094.212c0-4.297,3.481-7.781,7.778-7.781
		c4.293,0,7.782,3.484,7.782,7.781s-3.489,7.776-7.782,7.776C674.053,1101.989,670.571,1098.509,670.571,1094.212"/>
	<path clip-path="url(#SVGID_12_)" fill="#4B2B7F" d="M644.966,1094.212c0-4.297,3.481-7.781,7.778-7.781s7.779,3.484,7.779,7.781
		s-3.482,7.776-7.779,7.776S644.966,1098.509,644.966,1094.212"/>
	<path clip-path="url(#SVGID_12_)" fill="#4B2B7F" d="M619.358,1094.212c0-4.297,3.481-7.781,7.78-7.781
		c4.297,0,7.778,3.484,7.778,7.781s-3.481,7.776-7.778,7.776C622.84,1101.989,619.358,1098.509,619.358,1094.212"/>
	<path clip-path="url(#SVGID_12_)" fill="#4B2B7F" d="M670.571,1071.059c0-4.297,3.481-7.783,7.778-7.783
		c4.293,0,7.782,3.486,7.782,7.783c0,4.295-3.489,7.776-7.782,7.776C674.053,1078.835,670.571,1075.354,670.571,1071.059"/>
	<path clip-path="url(#SVGID_12_)" fill="#4B2B7F" d="M644.966,1071.059c0-4.297,3.481-7.783,7.778-7.783s7.779,3.486,7.779,7.783
		c0,4.295-3.482,7.776-7.779,7.776S644.966,1075.354,644.966,1071.059"/>
	<path clip-path="url(#SVGID_12_)" fill="#4B2B7F" d="M619.358,1071.059c0-4.297,3.481-7.783,7.78-7.783
		c4.297,0,7.778,3.486,7.778,7.783c0,4.295-3.481,7.776-7.778,7.776C622.84,1078.835,619.358,1075.354,619.358,1071.059"/>
	<path clip-path="url(#SVGID_12_)" fill="#4B2B7F" d="M670.571,1047.904c0-4.295,3.481-7.777,7.778-7.777
		c4.293,0,7.782,3.482,7.782,7.777s-3.489,7.783-7.782,7.783C674.053,1055.687,670.571,1052.199,670.571,1047.904"/>
	<path clip-path="url(#SVGID_12_)" fill="#4B2B7F" d="M644.966,1047.904c0-4.295,3.481-7.777,7.778-7.777s7.779,3.482,7.779,7.777
		s-3.482,7.783-7.779,7.783S644.966,1052.199,644.966,1047.904"/>
	<path clip-path="url(#SVGID_12_)" fill="#4B2B7F" d="M619.358,1047.904c0-4.295,3.481-7.777,7.78-7.777
		c4.297,0,7.778,3.482,7.778,7.777s-3.481,7.783-7.778,7.783C622.84,1055.687,619.358,1052.199,619.358,1047.904"/>
	<path clip-path="url(#SVGID_12_)" fill="#4B2B7F" d="M670.571,1023.19c0-4.295,3.481-7.781,7.778-7.781
		c4.293,0,7.782,3.486,7.782,7.781c0,4.297-3.489,7.779-7.782,7.779C674.053,1030.969,670.571,1027.487,670.571,1023.19"/>
	<path clip-path="url(#SVGID_12_)" fill="#4B2B7F" d="M644.966,1023.19c0-4.295,3.481-7.781,7.778-7.781s7.779,3.486,7.779,7.781
		c0,4.297-3.482,7.779-7.779,7.779S644.966,1027.487,644.966,1023.19"/>
	<path clip-path="url(#SVGID_12_)" fill="#4B2B7F" d="M619.358,1023.19c0-4.295,3.481-7.781,7.78-7.781
		c4.297,0,7.778,3.486,7.778,7.781c0,4.297-3.481,7.779-7.778,7.779C622.84,1030.969,619.358,1027.487,619.358,1023.19"/>
	<path clip-path="url(#SVGID_12_)" fill="#4B2B7F" d="M670.571,1000.037c0-4.295,3.481-7.777,7.778-7.777
		c4.293,0,7.782,3.482,7.782,7.777c0,4.297-3.489,7.78-7.782,7.78C674.053,1007.817,670.571,1004.333,670.571,1000.037"/>
	<path clip-path="url(#SVGID_12_)" fill="#4B2B7F" d="M644.966,1000.037c0-4.295,3.481-7.777,7.778-7.777s7.779,3.482,7.779,7.777
		c0,4.297-3.482,7.78-7.779,7.78S644.966,1004.333,644.966,1000.037"/>
	<path clip-path="url(#SVGID_12_)" fill="#4B2B7F" d="M619.358,1000.037c0-4.295,3.481-7.777,7.78-7.777
		c4.297,0,7.778,3.482,7.778,7.777c0,4.297-3.481,7.78-7.778,7.78C622.84,1007.817,619.358,1004.333,619.358,1000.037"/>
	<path clip-path="url(#SVGID_12_)" fill="#4B2B7F" d="M670.571,976.883c0-4.298,3.481-7.777,7.778-7.777
		c4.293,0,7.782,3.479,7.782,7.777c0,4.295-3.489,7.778-7.782,7.778C674.053,984.662,670.571,981.178,670.571,976.883"/>
	<path clip-path="url(#SVGID_12_)" fill="#4B2B7F" d="M644.966,976.883c0-4.298,3.481-7.777,7.778-7.777s7.779,3.479,7.779,7.777
		c0,4.295-3.482,7.778-7.779,7.778S644.966,981.178,644.966,976.883"/>
	<path clip-path="url(#SVGID_12_)" fill="#4B2B7F" d="M619.358,976.883c0-4.298,3.481-7.777,7.78-7.777
		c4.297,0,7.778,3.479,7.778,7.777c0,4.295-3.481,7.778-7.778,7.778C622.84,984.662,619.358,981.178,619.358,976.883"/>
	<polygon clip-path="url(#SVGID_12_)" fill="#14ADE3" points="248.21,952.169 284.949,952.169 266.579,983.984 248.21,1015.804 
		229.841,983.984 211.471,952.169 	"/>
	<polygon clip-path="url(#SVGID_12_)" fill="#14ADE3" points="248.21,1015.043 284.949,1015.043 266.579,1046.86 248.21,1078.678 
		229.841,1046.86 211.471,1015.043 	"/>
	<polygon clip-path="url(#SVGID_12_)" fill="#14ADE3" points="248.21,1077.453 284.949,1077.453 266.579,1109.271 248.21,1141.086 
		229.841,1109.271 211.471,1077.453 	"/>
	<polygon clip-path="url(#SVGID_12_)" fill="#14ADE3" points="174.731,952.169 211.471,952.169 193.102,983.984 174.731,1015.804 
		156.362,983.984 137.994,952.169 	"/>
	<polygon clip-path="url(#SVGID_12_)" fill="#14ADE3" points="174.731,1015.043 211.471,1015.043 193.102,1046.86 174.731,1078.678 
		156.362,1046.86 137.994,1015.043 	"/>
	<polygon clip-path="url(#SVGID_12_)" fill="#14ADE3" points="174.731,1077.453 211.471,1077.453 193.102,1109.271 
		174.731,1141.086 156.362,1109.271 137.994,1077.453 	"/>
	<polygon clip-path="url(#SVGID_12_)" fill="#14ADE3" points="101.255,952.169 137.994,952.169 119.622,983.984 101.255,1015.804 
		82.887,983.984 64.517,952.169 	"/>
	<polygon clip-path="url(#SVGID_12_)" fill="#14ADE3" points="101.255,1015.043 137.994,1015.043 119.622,1046.86 101.255,1078.678 
		82.887,1046.86 64.517,1015.043 	"/>
	<polygon clip-path="url(#SVGID_12_)" fill="#14ADE3" points="101.255,1077.453 137.994,1077.453 119.622,1109.271 
		101.255,1141.086 82.887,1109.271 64.517,1077.453 	"/>
	<polygon clip-path="url(#SVGID_12_)" fill="#F9C223" points="467.853,952.234 522.487,1046.864 467.853,1141.485 358.59,1141.485 
		303.961,1046.864 358.59,952.234 	"/>
	<polygon clip-path="url(#SVGID_12_)" fill="#E32E2D" points="454.722,974.984 496.22,1046.864 454.722,1118.74 371.723,1118.74 
		330.227,1046.864 371.723,974.984 	"/>
	<polygon clip-path="url(#SVGID_12_)" fill="#F9C223" points="444.768,992.229 476.307,1046.864 444.768,1101.489 381.682,1101.489 
		350.141,1046.864 381.682,992.229 	"/>
	<polygon clip-path="url(#SVGID_12_)" fill="#E32E2D" points="435.89,1007.601 458.555,1046.864 435.89,1086.117 390.557,1086.117 
		367.892,1046.864 390.557,1007.601 	"/>
	<polygon clip-path="url(#SVGID_12_)" fill="#F9C223" points="571.337,1087.318 583.533,1080.906 581.206,1094.49 591.072,1104.103 
		577.436,1106.088 571.337,1118.446 565.237,1106.088 551.602,1104.103 561.467,1094.49 559.14,1080.906 	"/>
	<polygon clip-path="url(#SVGID_12_)" fill="#F9C223" points="571.337,1034.502 583.533,1028.09 581.206,1041.672 591.072,1051.289 
		577.436,1053.272 571.337,1065.628 565.237,1053.272 551.602,1051.289 561.467,1041.672 559.14,1028.09 	"/>
	<polygon clip-path="url(#SVGID_12_)" fill="#F9C223" points="571.337,981.688 583.533,975.278 581.206,988.86 591.072,998.473 
		577.436,1000.458 571.337,1012.816 565.237,1000.458 551.602,998.473 561.467,988.86 559.14,975.278 	"/>
	<rect x="190.513" y="825.335" clip-path="url(#SVGID_12_)" fill="#4B2B7F" width="64.547" height="64.545"/>
</g>
<g>
	<defs>
		<rect id="SVGID_13_" x="27.043" y="762.985" width="391.491" height="189.25"/>
	</defs>
	<clipPath id="SVGID_14_">
		<use xlink:href="#SVGID_13_"  overflow="visible"/>
	</clipPath>
	
		<line clip-path="url(#SVGID_14_)" fill="none" stroke="#4B2B7F" stroke-width="5.22" stroke-miterlimit="10" x1="194.172" y1="1253.027" x2="587.906" y2="859.295"/>
	
		<line clip-path="url(#SVGID_14_)" fill="none" stroke="#4B2B7F" stroke-width="5.22" stroke-miterlimit="10" x1="179.808" y1="1238.662" x2="573.54" y2="844.928"/>
	
		<line clip-path="url(#SVGID_14_)" fill="none" stroke="#4B2B7F" stroke-width="5.22" stroke-miterlimit="10" x1="165.44" y1="1224.297" x2="559.174" y2="830.565"/>
	
		<line clip-path="url(#SVGID_14_)" fill="none" stroke="#4B2B7F" stroke-width="5.22" stroke-miterlimit="10" x1="151.074" y1="1209.932" x2="544.809" y2="816.198"/>
	
		<line clip-path="url(#SVGID_14_)" fill="none" stroke="#4B2B7F" stroke-width="5.22" stroke-miterlimit="10" x1="136.709" y1="1195.567" x2="530.443" y2="801.831"/>
	
		<line clip-path="url(#SVGID_14_)" fill="none" stroke="#4B2B7F" stroke-width="5.22" stroke-miterlimit="10" x1="122.346" y1="1181.2" x2="516.076" y2="787.467"/>
	
		<line clip-path="url(#SVGID_14_)" fill="none" stroke="#4B2B7F" stroke-width="5.22" stroke-miterlimit="10" x1="107.979" y1="1166.834" x2="501.711" y2="773.101"/>
	
		<line clip-path="url(#SVGID_14_)" fill="none" stroke="#4B2B7F" stroke-width="5.22" stroke-miterlimit="10" x1="93.617" y1="1152.47" x2="487.347" y2="758.736"/>
	
		<line clip-path="url(#SVGID_14_)" fill="none" stroke="#4B2B7F" stroke-width="5.22" stroke-miterlimit="10" x1="79.247" y1="1138.107" x2="472.981" y2="744.371"/>
	
		<line clip-path="url(#SVGID_14_)" fill="none" stroke="#4B2B7F" stroke-width="5.22" stroke-miterlimit="10" x1="64.883" y1="1123.738" x2="458.614" y2="730.005"/>
	
		<line clip-path="url(#SVGID_14_)" fill="none" stroke="#4B2B7F" stroke-width="5.22" stroke-miterlimit="10" x1="50.517" y1="1109.373" x2="444.254" y2="715.641"/>
	
		<line clip-path="url(#SVGID_14_)" fill="none" stroke="#4B2B7F" stroke-width="5.22" stroke-miterlimit="10" x1="36.153" y1="1095.008" x2="429.886" y2="701.275"/>
	
		<line clip-path="url(#SVGID_14_)" fill="none" stroke="#4B2B7F" stroke-width="5.22" stroke-miterlimit="10" x1="21.787" y1="1080.643" x2="415.52" y2="686.907"/>
	
		<line clip-path="url(#SVGID_14_)" fill="none" stroke="#4B2B7F" stroke-width="5.22" stroke-miterlimit="10" x1="7.423" y1="1066.278" x2="401.157" y2="672.543"/>
	
		<line clip-path="url(#SVGID_14_)" fill="none" stroke="#4B2B7F" stroke-width="5.22" stroke-miterlimit="10" x1="-6.943" y1="1051.913" x2="386.79" y2="658.176"/>
	
		<line clip-path="url(#SVGID_14_)" fill="none" stroke="#4B2B7F" stroke-width="5.22" stroke-miterlimit="10" x1="-21.308" y1="1037.545" x2="372.425" y2="643.812"/>
	
		<line clip-path="url(#SVGID_14_)" fill="none" stroke="#4B2B7F" stroke-width="5.22" stroke-miterlimit="10" x1="-35.674" y1="1023.182" x2="358.059" y2="629.446"/>
	
		<line clip-path="url(#SVGID_14_)" fill="none" stroke="#4B2B7F" stroke-width="5.22" stroke-miterlimit="10" x1="-50.04" y1="1008.816" x2="343.693" y2="615.081"/>
	
		<line clip-path="url(#SVGID_14_)" fill="none" stroke="#4B2B7F" stroke-width="5.22" stroke-miterlimit="10" x1="-64.404" y1="994.453" x2="329.329" y2="600.715"/>
	
		<line clip-path="url(#SVGID_14_)" fill="none" stroke="#4B2B7F" stroke-width="5.22" stroke-miterlimit="10" x1="-78.771" y1="980.083" x2="314.965" y2="586.35"/>
	
		<line clip-path="url(#SVGID_14_)" fill="none" stroke="#4B2B7F" stroke-width="5.22" stroke-miterlimit="10" x1="-93.135" y1="965.718" x2="300.599" y2="571.984"/>
	
		<line clip-path="url(#SVGID_14_)" fill="none" stroke="#4B2B7F" stroke-width="5.22" stroke-miterlimit="10" x1="-107.5" y1="951.354" x2="286.233" y2="557.62"/>
	
		<line clip-path="url(#SVGID_14_)" fill="none" stroke="#4B2B7F" stroke-width="5.22" stroke-miterlimit="10" x1="-121.867" y1="936.989" x2="271.867" y2="543.253"/>
	
		<line clip-path="url(#SVGID_14_)" fill="none" stroke="#4B2B7F" stroke-width="5.22" stroke-miterlimit="10" x1="-136.231" y1="922.624" x2="257.503" y2="528.889"/>
	
		<line clip-path="url(#SVGID_14_)" fill="none" stroke="#4B2B7F" stroke-width="5.22" stroke-miterlimit="10" x1="-150.598" y1="908.258" x2="243.137" y2="514.522"/>
	
		<line clip-path="url(#SVGID_14_)" fill="none" stroke="#4B2B7F" stroke-width="5.22" stroke-miterlimit="10" x1="-164.963" y1="893.893" x2="228.771" y2="500.157"/>
</g>
<g>
	<defs>
		<polyline id="SVGID_15_" points="697.105,1389.245 -902.83,1389.245 -902.83,-127.139 697.105,-127.139 		"/>
	</defs>
	<clipPath id="SVGID_16_">
		<use xlink:href="#SVGID_15_"  overflow="visible"/>
	</clipPath>
</g>
<g>
	<defs>
		<polyline id="SVGID_17_" points="-902.83,1389.245 -902.83,-127.139 697.105,-127.139 		"/>
	</defs>
	<clipPath id="SVGID_18_">
		<use xlink:href="#SVGID_17_"  overflow="visible"/>
	</clipPath>
</g>
<g>
	<defs>
		<polyline id="SVGID_19_" points="697.105,1389.245 -902.83,1389.245 -902.83,-127.139 697.105,-127.139 		"/>
	</defs>
	<clipPath id="SVGID_20_">
		<use xlink:href="#SVGID_19_"  overflow="visible"/>
	</clipPath>
</g>
</svg>
