<?xml version="1.0" encoding="utf-8"?>
<!-- Generator: Adobe Illustrator 16.0.0, SVG Export Plug-In . SVG Version: 6.00 Build 0)  -->
<!DOCTYPE svg PUBLIC "-//W3C//DTD SVG 1.1//EN" "http://www.w3.org/Graphics/SVG/1.1/DTD/svg11.dtd">
<svg version="1.1" id="Layer_1" xmlns="http://www.w3.org/2000/svg" xmlns:xlink="http://www.w3.org/1999/xlink" x="0px" y="0px"
	 width="1600px" height="1149.115px" viewBox="0 0 1600 1149.115" enable-background="new 0 0 1600 1149.115" xml:space="preserve">
<g>
	<defs>
		<polyline id="SVGID_1_" points="1600,1384.243 1600,-140.757 0,-140.757 0,1384.243 		"/>
	</defs>
	<clipPath id="SVGID_2_">
		<use xlink:href="#SVGID_1_"  overflow="visible"/>
	</clipPath>
	<polygon clip-path="url(#SVGID_2_)" fill="#F9C223" points="0.828,3.769 0.828,27.533 59.729,27.533 103.078,102.617 
		59.729,177.699 0.828,177.699 0.828,201.458 73.445,201.458 130.516,102.617 73.445,3.769 	"/>
	<polygon clip-path="url(#SVGID_2_)" fill="#C44791" points="0.828,27.532 0.828,45.545 49.331,45.545 82.276,102.617 
		49.331,159.678 0.828,159.678 0.828,177.698 59.729,177.698 103.078,102.617 59.729,27.532 	"/>
	<polygon clip-path="url(#SVGID_2_)" fill="#F9C223" points="0.828,45.546 0.828,61.605 40.058,61.605 63.734,102.617 
		40.058,143.62 0.828,143.62 0.828,159.679 49.331,159.679 82.276,102.617 49.331,45.546 	"/>
	<polygon clip-path="url(#SVGID_2_)" fill="#C44791" points="0.828,61.604 0.828,143.62 40.058,143.62 63.734,102.617 
		40.058,61.604 	"/>
	<polygon clip-path="url(#SVGID_2_)" fill="#4B2B7F" points="6.975,946.22 0,952.555 0,960.567 15.798,946.22 	"/>
	<polygon clip-path="url(#SVGID_2_)" fill="#4B2B7F" points="41.315,946.22 0,983.742 0,991.754 50.137,946.22 	"/>
	<polygon clip-path="url(#SVGID_2_)" fill="#4B2B7F" points="75.655,946.22 0,1014.928 0,1022.94 84.476,946.22 	"/>
	<polygon clip-path="url(#SVGID_2_)" fill="#4B2B7F" points="109.994,946.22 0,1046.114 0,1054.126 111.401,952.955 111.401,946.22 
			"/>
	<polygon clip-path="url(#SVGID_2_)" fill="#4B2B7F" points="0,1077.3 0,1085.313 111.401,984.139 111.401,976.126 	"/>
	<polygon clip-path="url(#SVGID_2_)" fill="#4B2B7F" points="0,1108.486 0,1116.499 111.401,1015.326 111.401,1007.313 	"/>
	<polygon clip-path="url(#SVGID_2_)" fill="#4B2B7F" points="0,1139.673 0,1147.686 111.401,1046.512 111.401,1038.501 	"/>
	<polygon clip-path="url(#SVGID_2_)" fill="#4B2B7F" points="111.401,1069.684 21.154,1151.644 29.976,1151.644 111.401,1077.697 	
		"/>
	<polygon clip-path="url(#SVGID_2_)" fill="#4B2B7F" points="111.401,1100.872 55.495,1151.644 64.317,1151.644 111.401,1108.883 	
		"/>
	<polygon clip-path="url(#SVGID_2_)" fill="#4B2B7F" points="111.401,1132.059 89.836,1151.644 98.659,1151.644 111.401,1140.073 	
		"/>
	<polygon clip-path="url(#SVGID_2_)" fill="#E32E2D" points="37.809,479.73 50.005,473.321 47.678,486.901 57.543,496.521 
		43.907,498.501 37.809,510.857 31.71,498.501 18.075,496.521 27.94,486.901 25.611,473.321 	"/>
	<polygon clip-path="url(#SVGID_2_)" fill="#E32E2D" points="37.809,426.917 50.005,420.505 47.678,434.085 57.543,443.704 
		43.907,445.687 37.809,458.043 31.71,445.687 18.075,443.704 27.94,434.085 25.611,420.505 	"/>
	<polygon clip-path="url(#SVGID_2_)" fill="#E32E2D" points="37.809,374.103 50.005,367.69 47.678,381.271 57.543,390.89 
		43.907,392.874 37.809,405.229 31.71,392.874 18.075,390.89 27.94,381.271 25.611,367.69 	"/>
	<rect x="1455.466" y="335.152" clip-path="url(#SVGID_2_)" fill="#E32E2D" width="143.857" height="131.681"/>
	<rect x="1435" y="-2.458" clip-path="url(#SVGID_2_)" fill="#4B2B7F" width="165" height="100.252"/>
	<polygon clip-path="url(#SVGID_2_)" fill="#14ADE3" points="1572.904,0.599 1545.324,0.599 1559.115,24.798 1572.904,48.997 
		1586.694,24.798 1600,1.452 1600,0.599 	"/>
	<polygon clip-path="url(#SVGID_2_)" fill="#14ADE3" points="1572.904,49.098 1545.324,49.098 1559.115,73.298 1572.904,97.495 
		1586.694,73.298 1600,49.951 1600,49.098 	"/>
	<polygon clip-path="url(#SVGID_2_)" fill="#14ADE3" points="1517.742,0.599 1545.323,0.599 1531.533,24.797 1517.742,48.998 
		1503.952,24.797 1490.162,0.599 	"/>
	<polygon clip-path="url(#SVGID_2_)" fill="#14ADE3" points="1517.742,49.098 1545.323,49.098 1531.533,73.298 1517.742,97.495 
		1503.952,73.298 1490.162,49.098 	"/>
	<polygon clip-path="url(#SVGID_2_)" fill="#14ADE3" points="1462.581,0.599 1490.162,0.599 1476.37,24.797 1462.581,48.998 
		1448.79,24.797 1435,0.599 	"/>
	<polygon clip-path="url(#SVGID_2_)" fill="#14ADE3" points="1462.581,49.098 1490.162,49.098 1476.37,73.298 1462.581,97.495 
		1448.79,73.298 1435,49.098 	"/>
	<polygon clip-path="url(#SVGID_2_)" fill="#F9C223" points="1585.277,335.243 1597.776,356.892 1597.658,444.773 1585.277,466.832 
		1509.304,466.832 1471.32,401.04 1509.304,335.243 	"/>
	<polygon clip-path="url(#SVGID_2_)" fill="#E32E2D" points="1576.146,351.061 1597.165,387.466 1597.658,413.255 1576.146,451.017 
		1518.437,451.017 1489.583,401.04 1518.437,351.061 	"/>
	<polygon clip-path="url(#SVGID_2_)" fill="#F9C223" points="1569.226,363.051 1591.155,401.041 1569.226,439.022 1525.361,439.022 
		1503.431,401.041 1525.361,363.051 	"/>
	<polygon clip-path="url(#SVGID_2_)" fill="#E32E2D" points="1563.053,373.74 1578.812,401.041 1563.053,428.333 1531.532,428.333 
		1515.773,401.041 1531.532,373.74 	"/>
	<rect x="1462.383" y="608.911" clip-path="url(#SVGID_2_)" fill="#F9C223" width="22.938" height="142.075"/>
	<rect x="1495.21" y="608.911" clip-path="url(#SVGID_2_)" fill="#F9C223" width="22.94" height="142.075"/>
	<rect x="1528.037" y="608.911" clip-path="url(#SVGID_2_)" fill="#F9C223" width="22.938" height="142.075"/>
	<rect x="1560.865" y="608.911" clip-path="url(#SVGID_2_)" fill="#F9C223" width="22.938" height="142.075"/>
	<rect x="1593.691" y="608.91" clip-path="url(#SVGID_2_)" fill="#F9C223" width="5.631" height="142.075"/>
	<rect x="1347.398" y="608.909" clip-path="url(#SVGID_2_)" fill="#E32E2D" width="114.984" height="142.078"/>
	<g clip-path="url(#SVGID_2_)">
		<defs>
			<polyline id="SVGID_3_" points="0,1384.243 0,-140.757 1600,-140.757 1600,1384.243 			"/>
		</defs>
		<clipPath id="SVGID_4_">
			<use xlink:href="#SVGID_3_"  overflow="visible"/>
		</clipPath>
		<path clip-path="url(#SVGID_4_)" fill="#14ADE3" d="M1395.495,637.084c0,9.941-8.06,18.001-18.001,18.001
			c-9.942,0-18-8.06-18-18.001s8.058-17.998,18-17.998C1387.436,619.086,1395.495,627.143,1395.495,637.084"/>
		<path clip-path="url(#SVGID_4_)" fill="#4B2B7F" d="M1435.135,477.333c-3.227,0-5.84,2.653-5.84,5.922
			c0,3.269,2.613,5.919,5.84,5.919s5.841-2.65,5.841-5.919C1440.976,479.987,1438.361,477.333,1435.135,477.333"/>
		<path clip-path="url(#SVGID_4_)" fill="#4B2B7F" d="M1435.135,494.954c-3.227,0-5.84,2.648-5.84,5.918s2.613,5.921,5.84,5.921
			s5.841-2.651,5.841-5.921S1438.361,494.954,1435.135,494.954"/>
		<path clip-path="url(#SVGID_4_)" fill="#4B2B7F" d="M1435.135,512.572c-3.227,0-5.84,2.649-5.84,5.918
			c0,3.27,2.613,5.922,5.84,5.922s5.841-2.652,5.841-5.922C1440.976,515.221,1438.361,512.572,1435.135,512.572"/>
		<path clip-path="url(#SVGID_4_)" fill="#4B2B7F" d="M1435.135,530.188c-3.227,0-5.84,2.653-5.84,5.922
			c0,3.268,2.613,5.918,5.84,5.918s5.841-2.65,5.841-5.918C1440.976,532.84,1438.361,530.188,1435.135,530.188"/>
		<path clip-path="url(#SVGID_4_)" fill="#4B2B7F" d="M1455.327,477.333c-3.227,0-5.843,2.653-5.843,5.922
			c0,3.269,2.616,5.919,5.843,5.919c3.225,0,5.84-2.65,5.84-5.919C1461.167,479.987,1458.552,477.333,1455.327,477.333"/>
		<path clip-path="url(#SVGID_4_)" fill="#4B2B7F" d="M1474.55,477.333c-3.226,0-5.841,2.653-5.841,5.922
			c0,3.269,2.615,5.919,5.841,5.919s5.84-2.65,5.84-5.919C1480.39,479.987,1477.775,477.333,1474.55,477.333"/>
		<path clip-path="url(#SVGID_4_)" fill="#4B2B7F" d="M1493.772,477.333c-3.226,0-5.84,2.653-5.84,5.922
			c0,3.269,2.614,5.919,5.84,5.919s5.841-2.65,5.841-5.919C1499.613,479.987,1496.998,477.333,1493.772,477.333"/>
		<path clip-path="url(#SVGID_4_)" fill="#4B2B7F" d="M1512.996,477.333c-3.226,0-5.842,2.653-5.842,5.922
			c0,3.269,2.616,5.919,5.842,5.919c3.227,0,5.843-2.65,5.843-5.919C1518.839,479.987,1516.223,477.333,1512.996,477.333"/>
		<path clip-path="url(#SVGID_4_)" fill="#4B2B7F" d="M1532.22,477.333c-3.223,0-5.843,2.653-5.843,5.922
			c0,3.269,2.62,5.919,5.843,5.919c3.226,0,5.84-2.65,5.84-5.919C1538.06,479.987,1535.445,477.333,1532.22,477.333"/>
		<path clip-path="url(#SVGID_4_)" fill="#4B2B7F" d="M1551.442,477.333c-3.226,0-5.84,2.653-5.84,5.922
			c0,3.269,2.614,5.919,5.84,5.919c3.227,0,5.841-2.65,5.841-5.919C1557.283,479.987,1554.669,477.333,1551.442,477.333"/>
		<path clip-path="url(#SVGID_4_)" fill="#4B2B7F" d="M1570.666,477.333c-3.227,0-5.841,2.653-5.841,5.922
			c0,3.269,2.614,5.919,5.841,5.919s5.841-2.65,5.841-5.919C1576.507,479.987,1573.893,477.333,1570.666,477.333"/>
		<path clip-path="url(#SVGID_4_)" fill="#4B2B7F" d="M1455.327,494.954c-3.227,0-5.843,2.648-5.843,5.918s2.616,5.921,5.843,5.921
			c3.225,0,5.84-2.651,5.84-5.921S1458.552,494.954,1455.327,494.954"/>
		<path clip-path="url(#SVGID_4_)" fill="#4B2B7F" d="M1474.55,494.954c-3.226,0-5.841,2.648-5.841,5.918s2.615,5.921,5.841,5.921
			s5.84-2.651,5.84-5.921S1477.775,494.954,1474.55,494.954"/>
		<path clip-path="url(#SVGID_4_)" fill="#4B2B7F" d="M1493.772,494.954c-3.226,0-5.84,2.648-5.84,5.918s2.614,5.921,5.84,5.921
			s5.841-2.651,5.841-5.921S1496.998,494.954,1493.772,494.954"/>
		<path clip-path="url(#SVGID_4_)" fill="#4B2B7F" d="M1512.996,494.954c-3.226,0-5.842,2.648-5.842,5.918s2.616,5.921,5.842,5.921
			c3.227,0,5.843-2.651,5.843-5.921S1516.223,494.954,1512.996,494.954"/>
		<path clip-path="url(#SVGID_4_)" fill="#4B2B7F" d="M1532.22,494.954c-3.223,0-5.843,2.648-5.843,5.918s2.62,5.921,5.843,5.921
			c3.226,0,5.84-2.651,5.84-5.921S1535.445,494.954,1532.22,494.954"/>
		<path clip-path="url(#SVGID_4_)" fill="#4B2B7F" d="M1551.442,494.954c-3.226,0-5.84,2.648-5.84,5.918s2.614,5.921,5.84,5.921
			c3.227,0,5.841-2.651,5.841-5.921S1554.669,494.954,1551.442,494.954"/>
		<path clip-path="url(#SVGID_4_)" fill="#4B2B7F" d="M1570.666,494.954c-3.227,0-5.841,2.648-5.841,5.918s2.614,5.921,5.841,5.921
			s5.841-2.651,5.841-5.921S1573.893,494.954,1570.666,494.954"/>
		<path clip-path="url(#SVGID_4_)" fill="#4B2B7F" d="M1455.327,512.572c-3.227,0-5.843,2.649-5.843,5.918
			c0,3.27,2.616,5.922,5.843,5.922c3.225,0,5.84-2.652,5.84-5.922C1461.167,515.221,1458.552,512.572,1455.327,512.572"/>
		<path clip-path="url(#SVGID_4_)" fill="#4B2B7F" d="M1474.55,512.572c-3.226,0-5.841,2.649-5.841,5.918
			c0,3.27,2.615,5.922,5.841,5.922s5.84-2.652,5.84-5.922C1480.39,515.221,1477.775,512.572,1474.55,512.572"/>
		<path clip-path="url(#SVGID_4_)" fill="#4B2B7F" d="M1493.772,512.572c-3.226,0-5.84,2.649-5.84,5.918
			c0,3.27,2.614,5.922,5.84,5.922s5.841-2.652,5.841-5.922C1499.613,515.221,1496.998,512.572,1493.772,512.572"/>
		<path clip-path="url(#SVGID_4_)" fill="#4B2B7F" d="M1512.996,512.572c-3.226,0-5.842,2.649-5.842,5.918
			c0,3.27,2.616,5.922,5.842,5.922c3.227,0,5.843-2.652,5.843-5.922C1518.839,515.221,1516.223,512.572,1512.996,512.572"/>
		<path clip-path="url(#SVGID_4_)" fill="#4B2B7F" d="M1532.22,512.572c-3.223,0-5.843,2.649-5.843,5.918
			c0,3.27,2.62,5.922,5.843,5.922c3.226,0,5.84-2.652,5.84-5.922C1538.06,515.221,1535.445,512.572,1532.22,512.572"/>
		<path clip-path="url(#SVGID_4_)" fill="#4B2B7F" d="M1551.442,512.572c-3.226,0-5.84,2.649-5.84,5.918
			c0,3.27,2.614,5.922,5.84,5.922c3.227,0,5.841-2.652,5.841-5.922C1557.283,515.221,1554.669,512.572,1551.442,512.572"/>
		<path clip-path="url(#SVGID_4_)" fill="#4B2B7F" d="M1570.666,512.572c-3.227,0-5.841,2.649-5.841,5.918
			c0,3.27,2.614,5.922,5.841,5.922s5.841-2.652,5.841-5.922C1576.507,515.221,1573.893,512.572,1570.666,512.572"/>
		<path clip-path="url(#SVGID_4_)" fill="#4B2B7F" d="M1455.327,530.188c-3.227,0-5.843,2.653-5.843,5.922
			c0,3.268,2.616,5.918,5.843,5.918c3.225,0,5.84-2.65,5.84-5.918C1461.167,532.84,1458.552,530.188,1455.327,530.188"/>
		<path clip-path="url(#SVGID_4_)" fill="#4B2B7F" d="M1474.55,530.188c-3.226,0-5.841,2.653-5.841,5.922
			c0,3.268,2.615,5.918,5.841,5.918s5.84-2.65,5.84-5.918C1480.39,532.84,1477.775,530.188,1474.55,530.188"/>
		<path clip-path="url(#SVGID_4_)" fill="#4B2B7F" d="M1493.772,530.188c-3.226,0-5.84,2.653-5.84,5.922
			c0,3.268,2.614,5.918,5.84,5.918s5.841-2.65,5.841-5.918C1499.613,532.84,1496.998,530.188,1493.772,530.188"/>
		<path clip-path="url(#SVGID_4_)" fill="#4B2B7F" d="M1512.996,530.188c-3.226,0-5.842,2.653-5.842,5.922
			c0,3.268,2.616,5.918,5.842,5.918c3.227,0,5.843-2.65,5.843-5.918C1518.839,532.84,1516.223,530.188,1512.996,530.188"/>
		<path clip-path="url(#SVGID_4_)" fill="#4B2B7F" d="M1532.22,530.188c-3.223,0-5.843,2.653-5.843,5.922
			c0,3.268,2.62,5.918,5.843,5.918c3.226,0,5.84-2.65,5.84-5.918C1538.06,532.84,1535.445,530.188,1532.22,530.188"/>
		<path clip-path="url(#SVGID_4_)" fill="#4B2B7F" d="M1551.442,530.188c-3.226,0-5.84,2.653-5.84,5.922
			c0,3.268,2.614,5.918,5.84,5.918c3.227,0,5.841-2.65,5.841-5.918C1557.283,532.84,1554.669,530.188,1551.442,530.188"/>
		<path clip-path="url(#SVGID_4_)" fill="#4B2B7F" d="M1570.666,530.188c-3.227,0-5.841,2.653-5.841,5.922
			c0,3.268,2.614,5.918,5.841,5.918s5.841-2.65,5.841-5.918C1576.507,532.84,1573.893,530.188,1570.666,530.188"/>
		<path clip-path="url(#SVGID_4_)" fill="#4B2B7F" d="M1435.135,548.996c-3.227,0-5.84,2.649-5.84,5.919
			c0,3.269,2.613,5.921,5.84,5.921s5.841-2.652,5.841-5.921C1440.976,551.645,1438.361,548.996,1435.135,548.996"/>
		<path clip-path="url(#SVGID_4_)" fill="#4B2B7F" d="M1435.135,566.613c-3.227,0-5.84,2.651-5.84,5.921
			c0,3.268,2.613,5.917,5.84,5.917s5.841-2.649,5.841-5.917C1440.976,569.264,1438.361,566.613,1435.135,566.613"/>
		<path clip-path="url(#SVGID_4_)" fill="#4B2B7F" d="M1435.135,584.233c-3.227,0-5.84,2.651-5.84,5.919
			c0,3.27,2.613,5.918,5.84,5.918s5.841-2.648,5.841-5.918C1440.976,586.884,1438.361,584.233,1435.135,584.233"/>
		<path clip-path="url(#SVGID_4_)" fill="#4B2B7F" d="M1455.327,548.996c-3.227,0-5.843,2.649-5.843,5.919
			c0,3.269,2.616,5.921,5.843,5.921c3.225,0,5.84-2.652,5.84-5.921C1461.167,551.645,1458.552,548.996,1455.327,548.996"/>
		<path clip-path="url(#SVGID_4_)" fill="#4B2B7F" d="M1474.55,548.996c-3.226,0-5.841,2.649-5.841,5.919
			c0,3.269,2.615,5.921,5.841,5.921s5.84-2.652,5.84-5.921C1480.39,551.645,1477.775,548.996,1474.55,548.996"/>
		<path clip-path="url(#SVGID_4_)" fill="#4B2B7F" d="M1493.772,548.996c-3.226,0-5.84,2.649-5.84,5.919
			c0,3.269,2.614,5.921,5.84,5.921s5.841-2.652,5.841-5.921C1499.613,551.645,1496.998,548.996,1493.772,548.996"/>
		<path clip-path="url(#SVGID_4_)" fill="#4B2B7F" d="M1512.996,548.996c-3.226,0-5.842,2.649-5.842,5.919
			c0,3.269,2.616,5.921,5.842,5.921c3.227,0,5.843-2.652,5.843-5.921C1518.839,551.645,1516.223,548.996,1512.996,548.996"/>
		<path clip-path="url(#SVGID_4_)" fill="#4B2B7F" d="M1532.22,548.996c-3.223,0-5.843,2.649-5.843,5.919
			c0,3.269,2.62,5.921,5.843,5.921c3.226,0,5.84-2.652,5.84-5.921C1538.06,551.645,1535.445,548.996,1532.22,548.996"/>
		<path clip-path="url(#SVGID_4_)" fill="#4B2B7F" d="M1551.442,548.996c-3.226,0-5.84,2.649-5.84,5.919
			c0,3.269,2.614,5.921,5.84,5.921c3.227,0,5.841-2.652,5.841-5.921C1557.283,551.645,1554.669,548.996,1551.442,548.996"/>
		<path clip-path="url(#SVGID_4_)" fill="#4B2B7F" d="M1570.666,548.996c-3.227,0-5.841,2.649-5.841,5.919
			c0,3.269,2.614,5.921,5.841,5.921s5.841-2.652,5.841-5.921C1576.507,551.645,1573.893,548.996,1570.666,548.996"/>
		<path clip-path="url(#SVGID_4_)" fill="#4B2B7F" d="M1455.327,566.613c-3.227,0-5.843,2.651-5.843,5.921
			c0,3.268,2.616,5.917,5.843,5.917c3.225,0,5.84-2.649,5.84-5.917C1461.167,569.264,1458.552,566.613,1455.327,566.613"/>
		<path clip-path="url(#SVGID_4_)" fill="#4B2B7F" d="M1474.55,566.613c-3.226,0-5.841,2.651-5.841,5.921
			c0,3.268,2.615,5.917,5.841,5.917s5.84-2.649,5.84-5.917C1480.39,569.264,1477.775,566.613,1474.55,566.613"/>
		<path clip-path="url(#SVGID_4_)" fill="#4B2B7F" d="M1493.772,566.613c-3.226,0-5.84,2.651-5.84,5.921
			c0,3.268,2.614,5.917,5.84,5.917s5.841-2.649,5.841-5.917C1499.613,569.264,1496.998,566.613,1493.772,566.613"/>
		<path clip-path="url(#SVGID_4_)" fill="#4B2B7F" d="M1512.996,566.613c-3.226,0-5.842,2.651-5.842,5.921
			c0,3.268,2.616,5.917,5.842,5.917c3.227,0,5.843-2.649,5.843-5.917C1518.839,569.264,1516.223,566.613,1512.996,566.613"/>
		<path clip-path="url(#SVGID_4_)" fill="#4B2B7F" d="M1532.22,566.613c-3.223,0-5.843,2.651-5.843,5.921
			c0,3.268,2.62,5.917,5.843,5.917c3.226,0,5.84-2.649,5.84-5.917C1538.06,569.264,1535.445,566.613,1532.22,566.613"/>
		<path clip-path="url(#SVGID_4_)" fill="#4B2B7F" d="M1551.442,566.613c-3.226,0-5.84,2.651-5.84,5.921
			c0,3.268,2.614,5.917,5.84,5.917c3.227,0,5.841-2.649,5.841-5.917C1557.283,569.264,1554.669,566.613,1551.442,566.613"/>
		<path clip-path="url(#SVGID_4_)" fill="#4B2B7F" d="M1570.666,566.613c-3.227,0-5.841,2.651-5.841,5.921
			c0,3.268,2.614,5.917,5.841,5.917s5.841-2.649,5.841-5.917C1576.507,569.264,1573.893,566.613,1570.666,566.613"/>
		<path clip-path="url(#SVGID_4_)" fill="#4B2B7F" d="M1455.327,584.233c-3.227,0-5.843,2.651-5.843,5.919
			c0,3.27,2.616,5.918,5.843,5.918c3.225,0,5.84-2.648,5.84-5.918C1461.167,586.884,1458.552,584.233,1455.327,584.233"/>
		<path clip-path="url(#SVGID_4_)" fill="#4B2B7F" d="M1474.55,584.233c-3.226,0-5.841,2.651-5.841,5.919
			c0,3.27,2.615,5.918,5.841,5.918s5.84-2.648,5.84-5.918C1480.39,586.884,1477.775,584.233,1474.55,584.233"/>
		<path clip-path="url(#SVGID_4_)" fill="#4B2B7F" d="M1493.772,584.233c-3.226,0-5.84,2.651-5.84,5.919
			c0,3.27,2.614,5.918,5.84,5.918s5.841-2.648,5.841-5.918C1499.613,586.884,1496.998,584.233,1493.772,584.233"/>
		<path clip-path="url(#SVGID_4_)" fill="#4B2B7F" d="M1512.996,584.233c-3.226,0-5.842,2.651-5.842,5.919
			c0,3.27,2.616,5.918,5.842,5.918c3.227,0,5.843-2.648,5.843-5.918C1518.839,586.884,1516.223,584.233,1512.996,584.233"/>
		<path clip-path="url(#SVGID_4_)" fill="#4B2B7F" d="M1532.22,584.233c-3.223,0-5.843,2.651-5.843,5.919
			c0,3.27,2.62,5.918,5.843,5.918c3.226,0,5.84-2.648,5.84-5.918C1538.06,586.884,1535.445,584.233,1532.22,584.233"/>
		<path clip-path="url(#SVGID_4_)" fill="#4B2B7F" d="M1551.442,584.233c-3.226,0-5.84,2.651-5.84,5.919
			c0,3.27,2.614,5.918,5.84,5.918c3.227,0,5.841-2.648,5.841-5.918C1557.283,586.884,1554.669,584.233,1551.442,584.233"/>
		<path clip-path="url(#SVGID_4_)" fill="#4B2B7F" d="M1570.666,584.233c-3.227,0-5.841,2.651-5.841,5.919
			c0,3.27,2.614,5.918,5.841,5.918s5.841-2.648,5.841-5.918C1576.507,586.884,1573.893,584.233,1570.666,584.233"/>
	</g>
	<g clip-path="url(#SVGID_2_)">
		<defs>
			<rect id="SVGID_5_" x="1347.398" y="608.908" width="114.984" height="142.078"/>
		</defs>
		<clipPath id="SVGID_6_">
			<use xlink:href="#SVGID_5_"  overflow="visible"/>
		</clipPath>
		<path clip-path="url(#SVGID_6_)" fill="#14ADE3" d="M1560.038,780.107c0,59.865-48.532,108.398-108.4,108.398
			s-108.394-48.533-108.394-108.398c0-59.868,48.525-108.4,108.394-108.4S1560.038,720.239,1560.038,780.107"/>
	</g>
	<g clip-path="url(#SVGID_2_)">
		<defs>
			<polyline id="SVGID_7_" points="0,1384.243 0,-140.757 1600,-140.757 1600,1384.243 			"/>
		</defs>
		<clipPath id="SVGID_8_">
			<use xlink:href="#SVGID_7_"  overflow="visible"/>
		</clipPath>
	</g>
	<g clip-path="url(#SVGID_2_)">
		<defs>
			<polyline id="SVGID_9_" points="0,1384.243 0,-140.757 1600,-140.757 1600,1384.243 			"/>
		</defs>
		<clipPath id="SVGID_10_">
			<use xlink:href="#SVGID_9_"  overflow="visible"/>
		</clipPath>
		<rect x="1521.505" y="285.825" clip-path="url(#SVGID_10_)" fill="#14ADE3" width="78.189" height="49.63"/>
		<rect x="1521.504" y="173.739" clip-path="url(#SVGID_10_)" fill="#F9C223" width="78.19" height="21.175"/>
		<rect x="1521.503" y="204.042" clip-path="url(#SVGID_10_)" fill="#F9C223" width="78.189" height="21.175"/>
		<rect x="1521.503" y="234.345" clip-path="url(#SVGID_10_)" fill="#F9C223" width="78.189" height="21.178"/>
		<rect x="1521.503" y="264.65" clip-path="url(#SVGID_10_)" fill="#F9C223" width="78.189" height="21.175"/>
		<rect x="1545.352" y="464.9" clip-path="url(#SVGID_10_)" fill="#14ADE3" width="53.762" height="144.009"/>
		<polygon clip-path="url(#SVGID_10_)" fill="#F9C223" points="1571.188,506.118 1562.031,510.997 1563.778,500.661 
			1556.371,493.346 1566.609,491.833 1571.188,482.431 1575.765,491.833 1586.003,493.346 1578.597,500.661 1580.344,510.997 		"/>
		<polygon clip-path="url(#SVGID_10_)" fill="#F9C223" points="1571.188,546.307 1562.031,551.186 1563.778,540.851 
			1556.371,533.534 1566.609,532.025 1571.188,522.622 1575.765,532.025 1586.003,533.534 1578.597,540.851 1580.344,551.186 		"/>
		<polygon clip-path="url(#SVGID_10_)" fill="#F9C223" points="1571.188,586.496 1562.031,591.374 1563.778,581.039 
			1556.371,573.723 1566.609,572.212 1571.188,562.809 1575.765,572.212 1586.003,573.723 1578.597,581.039 1580.344,591.374 		"/>
		<polygon clip-path="url(#SVGID_10_)" fill="#14ADE3" points="1471.019,321.199 1473.222,325.002 1468.554,324.284 
			1465.251,327.342 1464.573,323.093 1460.324,321.199 1464.573,319.297 1465.251,315.048 1468.554,318.124 1473.222,317.404 		"/>
		<polygon clip-path="url(#SVGID_10_)" fill="#14ADE3" points="1489.171,321.199 1491.37,325.002 1486.706,324.284 
			1483.399,327.342 1482.719,323.093 1478.473,321.199 1482.719,319.297 1483.399,315.048 1486.706,318.124 1491.37,317.404 		"/>
		<polygon clip-path="url(#SVGID_10_)" fill="#14ADE3" points="1507.32,321.199 1509.522,325.002 1504.854,324.284 
			1501.548,327.342 1500.871,323.093 1496.626,321.199 1500.871,319.297 1501.548,315.048 1504.854,318.124 1509.522,317.404 		"/>
		<rect x="1522.096" y="97.489" clip-path="url(#SVGID_10_)" fill="#14ADE3" width="77.986" height="85.148"/>
		<polygon clip-path="url(#SVGID_10_)" fill="#C44791" points="1522,182.637 1522,97.301 1600.682,97.301 		"/>
		<polygon clip-path="url(#SVGID_10_)" fill="#4B2B7F" points="1580.659,171.308 1582.901,170.009 1582.473,172.761 
			1584.281,174.708 1581.78,175.107 1580.659,177.613 1579.533,175.107 1577.037,174.708 1578.852,172.761 1578.422,170.009 		"/>
		<polygon clip-path="url(#SVGID_10_)" fill="#4B2B7F" points="1580.659,160.607 1582.901,159.311 1582.473,162.06 1584.281,164.01 
			1581.78,164.411 1580.659,166.914 1579.533,164.411 1577.037,164.01 1578.852,162.06 1578.422,159.311 		"/>
		<polygon clip-path="url(#SVGID_10_)" fill="#4B2B7F" points="1580.659,149.908 1582.901,148.609 1582.473,151.361 
			1584.281,153.311 1581.78,153.71 1580.659,156.213 1579.533,153.71 1577.037,153.311 1578.852,151.361 1578.422,148.609 		"/>
		<polygon clip-path="url(#SVGID_10_)" fill="#14ADE3" points="1532.497,128.964 1534.739,127.665 1534.315,130.417 
			1536.119,132.364 1533.614,132.763 1532.497,135.269 1531.376,132.763 1528.871,132.364 1530.684,130.417 1530.26,127.665 		"/>
		<polygon clip-path="url(#SVGID_10_)" fill="#14ADE3" points="1532.497,118.263 1534.739,116.967 1534.315,119.716 
			1536.119,121.666 1533.614,122.067 1532.497,124.57 1531.376,122.067 1528.871,121.666 1530.684,119.716 1530.26,116.967 		"/>
		<polygon clip-path="url(#SVGID_10_)" fill="#14ADE3" points="1532.497,107.564 1534.739,106.265 1534.315,109.017 
			1536.119,110.967 1533.614,111.366 1532.497,113.869 1531.376,111.366 1528.871,110.967 1530.684,109.017 1530.26,106.265 		"/>
		<rect x="1468.116" y="96.314" clip-path="url(#SVGID_10_)" fill="#C44791" width="56.877" height="104.72"/>
		<polygon clip-path="url(#SVGID_10_)" fill="#4B2B7F" points="1471.644,96.47 1468,99.779 1468,103.864 1476.142,96.47 		"/>
		<polygon clip-path="url(#SVGID_10_)" fill="#4B2B7F" points="1489.149,96.47 1468,115.678 1468,119.762 1493.646,96.47 		"/>
		<polygon clip-path="url(#SVGID_10_)" fill="#4B2B7F" points="1506.654,96.47 1468,131.576 1468,135.66 1511.151,96.47 		"/>
		<polygon clip-path="url(#SVGID_10_)" fill="#4B2B7F" points="1524.877,96.47 1524.159,96.47 1468,147.473 1468,151.558 
			1524.877,99.903 		"/>
		<polygon clip-path="url(#SVGID_10_)" fill="#4B2B7F" points="1524.877,111.715 1468,163.371 1468,167.456 1524.877,115.8 		"/>
		<polygon clip-path="url(#SVGID_10_)" fill="#4B2B7F" points="1524.877,127.614 1468,179.269 1468,183.354 1524.877,131.698 		"/>
		<polygon clip-path="url(#SVGID_10_)" fill="#4B2B7F" points="1524.877,143.512 1468,195.167 1468,199.251 1524.877,147.597 		"/>
		<polygon clip-path="url(#SVGID_10_)" fill="#4B2B7F" points="1524.877,159.409 1478.872,201.19 1483.369,201.19 1524.877,163.493 
					"/>
		<polygon clip-path="url(#SVGID_10_)" fill="#4B2B7F" points="1524.877,175.307 1496.378,201.19 1500.875,201.19 1524.877,179.391 
					"/>
		<polygon clip-path="url(#SVGID_10_)" fill="#4B2B7F" points="1524.877,191.206 1513.884,201.19 1518.381,201.19 1524.877,195.291 
					"/>
	</g>
	<g clip-path="url(#SVGID_2_)">
		<defs>
			<rect id="SVGID_11_" x="1423" y="465.243" width="122" height="144"/>
		</defs>
		<clipPath id="SVGID_12_">
			<use xlink:href="#SVGID_11_"  overflow="visible"/>
		</clipPath>
		<path clip-path="url(#SVGID_12_)" fill="#C44791" d="M1298.821,608.908h293.905V464.899h-293.905V608.908z M1319.796,596.07
			c-3.227,0-5.845-2.648-5.845-5.918c0-3.268,2.618-5.919,5.845-5.919c3.224,0,5.838,2.651,5.838,5.919
			C1325.634,593.422,1323.02,596.07,1319.796,596.07 M1319.796,578.452c-3.227,0-5.845-2.65-5.845-5.918
			c0-3.27,2.618-5.921,5.845-5.921c3.224,0,5.838,2.651,5.838,5.921C1325.634,575.802,1323.02,578.452,1319.796,578.452
			 M1319.796,560.836c-3.227,0-5.845-2.652-5.845-5.921s2.618-5.919,5.845-5.919c3.224,0,5.838,2.65,5.838,5.919
			S1323.02,560.836,1319.796,560.836 M1319.796,542.027c-3.227,0-5.845-2.649-5.845-5.917c0-3.269,2.618-5.922,5.845-5.922
			c3.224,0,5.838,2.653,5.838,5.922C1325.634,539.378,1323.02,542.027,1319.796,542.027 M1319.796,524.412
			c-3.227,0-5.845-2.652-5.845-5.922c0-3.269,2.618-5.918,5.845-5.918c3.224,0,5.838,2.649,5.838,5.918
			C1325.634,521.76,1323.02,524.412,1319.796,524.412 M1319.796,506.792c-3.227,0-5.845-2.651-5.845-5.921s2.618-5.917,5.845-5.917
			c3.224,0,5.838,2.647,5.838,5.917S1323.02,506.792,1319.796,506.792 M1319.796,489.175c-3.227,0-5.845-2.651-5.845-5.919
			c0-3.269,2.618-5.922,5.845-5.922c3.224,0,5.838,2.653,5.838,5.922C1325.634,486.524,1323.02,489.175,1319.796,489.175
			 M1339.017,596.07c-3.224,0-5.84-2.648-5.84-5.918c0-3.268,2.616-5.919,5.84-5.919c3.229,0,5.843,2.651,5.843,5.919
			C1344.859,593.422,1342.245,596.07,1339.017,596.07 M1339.017,578.452c-3.224,0-5.84-2.65-5.84-5.918
			c0-3.27,2.616-5.921,5.84-5.921c3.229,0,5.843,2.651,5.843,5.921C1344.859,575.802,1342.245,578.452,1339.017,578.452
			 M1339.017,560.836c-3.224,0-5.84-2.652-5.84-5.921s2.616-5.919,5.84-5.919c3.229,0,5.843,2.65,5.843,5.919
			S1342.245,560.836,1339.017,560.836 M1339.017,542.027c-3.224,0-5.84-2.649-5.84-5.917c0-3.269,2.616-5.922,5.84-5.922
			c3.229,0,5.843,2.653,5.843,5.922C1344.859,539.378,1342.245,542.027,1339.017,542.027 M1339.017,524.412
			c-3.224,0-5.84-2.652-5.84-5.922c0-3.269,2.616-5.918,5.84-5.918c3.229,0,5.843,2.649,5.843,5.918
			C1344.859,521.76,1342.245,524.412,1339.017,524.412 M1339.017,506.792c-3.224,0-5.84-2.651-5.84-5.921s2.616-5.917,5.84-5.917
			c3.229,0,5.843,2.647,5.843,5.917S1342.245,506.792,1339.017,506.792 M1339.017,489.175c-3.224,0-5.84-2.651-5.84-5.919
			c0-3.269,2.616-5.922,5.84-5.922c3.229,0,5.843,2.653,5.843,5.922C1344.859,486.524,1342.245,489.175,1339.017,489.175
			 M1358.241,596.07c-3.225,0-5.84-2.648-5.84-5.918c0-3.268,2.615-5.919,5.84-5.919s5.839,2.651,5.839,5.919
			C1364.08,593.422,1361.466,596.07,1358.241,596.07 M1358.241,578.452c-3.225,0-5.84-2.65-5.84-5.918
			c0-3.27,2.615-5.921,5.84-5.921s5.839,2.651,5.839,5.921C1364.08,575.802,1361.466,578.452,1358.241,578.452 M1358.241,560.836
			c-3.225,0-5.84-2.652-5.84-5.921s2.615-5.919,5.84-5.919s5.839,2.65,5.839,5.919S1361.466,560.836,1358.241,560.836
			 M1358.241,542.027c-3.225,0-5.84-2.649-5.84-5.917c0-3.269,2.615-5.922,5.84-5.922s5.839,2.653,5.839,5.922
			C1364.08,539.378,1361.466,542.027,1358.241,542.027 M1358.241,524.412c-3.225,0-5.84-2.652-5.84-5.922
			c0-3.269,2.615-5.918,5.84-5.918s5.839,2.649,5.839,5.918C1364.08,521.76,1361.466,524.412,1358.241,524.412 M1358.241,506.792
			c-3.225,0-5.84-2.651-5.84-5.921s2.615-5.917,5.84-5.917s5.839,2.647,5.839,5.917S1361.466,506.792,1358.241,506.792
			 M1358.241,489.175c-3.225,0-5.84-2.651-5.84-5.919c0-3.269,2.615-5.922,5.84-5.922s5.839,2.653,5.839,5.922
			C1364.08,486.524,1361.466,489.175,1358.241,489.175 M1377.464,596.07c-3.225,0-5.842-2.648-5.842-5.918
			c0-3.268,2.617-5.919,5.842-5.919c3.228,0,5.843,2.651,5.843,5.919C1383.307,593.422,1380.691,596.07,1377.464,596.07
			 M1377.464,578.452c-3.225,0-5.842-2.65-5.842-5.918c0-3.27,2.617-5.921,5.842-5.921c3.228,0,5.843,2.651,5.843,5.921
			C1383.307,575.802,1380.691,578.452,1377.464,578.452 M1377.464,560.836c-3.225,0-5.842-2.652-5.842-5.921
			s2.617-5.919,5.842-5.919c3.228,0,5.843,2.65,5.843,5.919S1380.691,560.836,1377.464,560.836 M1377.464,542.027
			c-3.225,0-5.842-2.649-5.842-5.917c0-3.269,2.617-5.922,5.842-5.922c3.228,0,5.843,2.653,5.843,5.922
			C1383.307,539.378,1380.691,542.027,1377.464,542.027 M1377.464,524.412c-3.225,0-5.842-2.652-5.842-5.922
			c0-3.269,2.617-5.918,5.842-5.918c3.228,0,5.843,2.649,5.843,5.918C1383.307,521.76,1380.691,524.412,1377.464,524.412
			 M1377.464,506.792c-3.225,0-5.842-2.651-5.842-5.921s2.617-5.917,5.842-5.917c3.228,0,5.843,2.647,5.843,5.917
			S1380.691,506.792,1377.464,506.792 M1377.464,489.175c-3.225,0-5.842-2.651-5.842-5.919c0-3.269,2.617-5.922,5.842-5.922
			c3.228,0,5.843,2.653,5.843,5.922C1383.307,486.524,1380.691,489.175,1377.464,489.175 M1396.688,596.07
			c-3.225,0-5.843-2.648-5.843-5.918c0-3.268,2.618-5.919,5.843-5.919c3.228,0,5.839,2.651,5.839,5.919
			C1402.527,593.422,1399.916,596.07,1396.688,596.07 M1396.688,578.452c-3.225,0-5.843-2.65-5.843-5.918
			c0-3.27,2.618-5.921,5.843-5.921c3.228,0,5.839,2.651,5.839,5.921C1402.527,575.802,1399.916,578.452,1396.688,578.452
			 M1396.688,560.836c-3.225,0-5.843-2.652-5.843-5.921s2.618-5.919,5.843-5.919c3.228,0,5.839,2.65,5.839,5.919
			S1399.916,560.836,1396.688,560.836 M1396.688,542.027c-3.225,0-5.843-2.649-5.843-5.917c0-3.269,2.618-5.922,5.843-5.922
			c3.228,0,5.839,2.653,5.839,5.922C1402.527,539.378,1399.916,542.027,1396.688,542.027 M1396.688,524.412
			c-3.225,0-5.843-2.652-5.843-5.922c0-3.269,2.618-5.918,5.843-5.918c3.228,0,5.839,2.649,5.839,5.918
			C1402.527,521.76,1399.916,524.412,1396.688,524.412 M1396.688,506.792c-3.225,0-5.843-2.651-5.843-5.921s2.618-5.917,5.843-5.917
			c3.228,0,5.839,2.647,5.839,5.917S1399.916,506.792,1396.688,506.792 M1396.688,489.175c-3.225,0-5.843-2.651-5.843-5.919
			c0-3.269,2.618-5.922,5.843-5.922c3.228,0,5.839,2.653,5.839,5.922C1402.527,486.524,1399.916,489.175,1396.688,489.175
			 M1415.912,596.07c-3.226,0-5.843-2.648-5.843-5.918c0-3.268,2.617-5.919,5.843-5.919c3.227,0,5.84,2.651,5.84,5.919
			C1421.752,593.422,1419.139,596.07,1415.912,596.07 M1415.912,578.452c-3.226,0-5.843-2.65-5.843-5.918
			c0-3.27,2.617-5.921,5.843-5.921c3.227,0,5.84,2.651,5.84,5.921C1421.752,575.802,1419.139,578.452,1415.912,578.452
			 M1415.912,560.836c-3.226,0-5.843-2.652-5.843-5.921s2.617-5.919,5.843-5.919c3.227,0,5.84,2.65,5.84,5.919
			S1419.139,560.836,1415.912,560.836 M1415.912,542.027c-3.226,0-5.843-2.649-5.843-5.917c0-3.269,2.617-5.922,5.843-5.922
			c3.227,0,5.84,2.653,5.84,5.922C1421.752,539.378,1419.139,542.027,1415.912,542.027 M1415.912,524.412
			c-3.226,0-5.843-2.652-5.843-5.922c0-3.269,2.617-5.918,5.843-5.918c3.227,0,5.84,2.649,5.84,5.918
			C1421.752,521.76,1419.139,524.412,1415.912,524.412 M1415.912,506.792c-3.226,0-5.843-2.651-5.843-5.921s2.617-5.917,5.843-5.917
			c3.227,0,5.84,2.647,5.84,5.917S1419.139,506.792,1415.912,506.792 M1415.912,489.175c-3.226,0-5.843-2.651-5.843-5.919
			c0-3.269,2.617-5.922,5.843-5.922c3.227,0,5.84,2.653,5.84,5.922C1421.752,486.524,1419.139,489.175,1415.912,489.175
			 M1435.136,596.07c-3.229,0-5.84-2.648-5.84-5.918c0-3.268,2.611-5.919,5.84-5.919c3.226,0,5.84,2.651,5.84,5.919
			C1440.976,593.422,1438.361,596.07,1435.136,596.07 M1435.136,578.452c-3.229,0-5.84-2.65-5.84-5.918
			c0-3.27,2.611-5.921,5.84-5.921c3.226,0,5.84,2.651,5.84,5.921C1440.976,575.802,1438.361,578.452,1435.136,578.452
			 M1435.136,560.836c-3.229,0-5.84-2.652-5.84-5.921s2.611-5.919,5.84-5.919c3.226,0,5.84,2.65,5.84,5.919
			S1438.361,560.836,1435.136,560.836 M1435.136,542.027c-3.229,0-5.84-2.649-5.84-5.917c0-3.269,2.611-5.922,5.84-5.922
			c3.226,0,5.84,2.653,5.84,5.922C1440.976,539.378,1438.361,542.027,1435.136,542.027 M1435.136,524.412
			c-3.229,0-5.84-2.652-5.84-5.922c0-3.269,2.611-5.918,5.84-5.918c3.226,0,5.84,2.649,5.84,5.918
			C1440.976,521.76,1438.361,524.412,1435.136,524.412 M1435.136,506.792c-3.229,0-5.84-2.651-5.84-5.921s2.611-5.917,5.84-5.917
			c3.226,0,5.84,2.647,5.84,5.917S1438.361,506.792,1435.136,506.792 M1435.136,489.175c-3.229,0-5.84-2.651-5.84-5.919
			c0-3.269,2.611-5.922,5.84-5.922c3.226,0,5.84,2.653,5.84,5.922C1440.976,486.524,1438.361,489.175,1435.136,489.175
			 M1455.326,596.07c-3.226,0-5.842-2.648-5.842-5.918c0-3.268,2.616-5.919,5.842-5.919s5.84,2.651,5.84,5.919
			C1461.166,593.422,1458.552,596.07,1455.326,596.07 M1455.326,578.452c-3.226,0-5.842-2.65-5.842-5.918
			c0-3.27,2.616-5.921,5.842-5.921s5.84,2.651,5.84,5.921C1461.166,575.802,1458.552,578.452,1455.326,578.452 M1455.326,560.836
			c-3.226,0-5.842-2.652-5.842-5.921s2.616-5.919,5.842-5.919s5.84,2.65,5.84,5.919S1458.552,560.836,1455.326,560.836
			 M1455.326,542.027c-3.226,0-5.842-2.649-5.842-5.917c0-3.269,2.616-5.922,5.842-5.922s5.84,2.653,5.84,5.922
			C1461.166,539.378,1458.552,542.027,1455.326,542.027 M1455.326,524.412c-3.226,0-5.842-2.652-5.842-5.922
			c0-3.269,2.616-5.918,5.842-5.918s5.84,2.649,5.84,5.918C1461.166,521.76,1458.552,524.412,1455.326,524.412 M1455.326,506.792
			c-3.226,0-5.842-2.651-5.842-5.921s2.616-5.917,5.842-5.917s5.84,2.647,5.84,5.917S1458.552,506.792,1455.326,506.792
			 M1455.326,489.175c-3.226,0-5.842-2.651-5.842-5.919c0-3.269,2.616-5.922,5.842-5.922s5.84,2.653,5.84,5.922
			C1461.166,486.524,1458.552,489.175,1455.326,489.175 M1474.55,596.07c-3.227,0-5.841-2.648-5.841-5.918
			c0-3.268,2.614-5.919,5.841-5.919c3.226,0,5.84,2.651,5.84,5.919C1480.39,593.422,1477.775,596.07,1474.55,596.07
			 M1474.55,578.452c-3.227,0-5.841-2.65-5.841-5.918c0-3.27,2.614-5.921,5.841-5.921c3.226,0,5.84,2.651,5.84,5.921
			C1480.39,575.802,1477.775,578.452,1474.55,578.452 M1474.55,560.836c-3.227,0-5.841-2.652-5.841-5.921s2.614-5.919,5.841-5.919
			c3.226,0,5.84,2.65,5.84,5.919S1477.775,560.836,1474.55,560.836 M1474.55,542.027c-3.227,0-5.841-2.649-5.841-5.917
			c0-3.269,2.614-5.922,5.841-5.922c3.226,0,5.84,2.653,5.84,5.922C1480.39,539.378,1477.775,542.027,1474.55,542.027
			 M1474.55,524.412c-3.227,0-5.841-2.652-5.841-5.922c0-3.269,2.614-5.918,5.841-5.918c3.226,0,5.84,2.649,5.84,5.918
			C1480.39,521.76,1477.775,524.412,1474.55,524.412 M1474.55,506.792c-3.227,0-5.841-2.651-5.841-5.921s2.614-5.917,5.841-5.917
			c3.226,0,5.84,2.647,5.84,5.917S1477.775,506.792,1474.55,506.792 M1474.55,489.175c-3.227,0-5.841-2.651-5.841-5.919
			c0-3.269,2.614-5.922,5.841-5.922c3.226,0,5.84,2.653,5.84,5.922C1480.39,486.524,1477.775,489.175,1474.55,489.175
			 M1493.772,596.07c-3.226,0-5.84-2.648-5.84-5.918c0-3.268,2.614-5.919,5.84-5.919c3.225,0,5.841,2.651,5.841,5.919
			C1499.613,593.422,1496.997,596.07,1493.772,596.07 M1493.772,578.452c-3.226,0-5.84-2.65-5.84-5.918
			c0-3.27,2.614-5.921,5.84-5.921c3.225,0,5.841,2.651,5.841,5.921C1499.613,575.802,1496.997,578.452,1493.772,578.452
			 M1493.772,560.836c-3.226,0-5.84-2.652-5.84-5.921s2.614-5.919,5.84-5.919c3.225,0,5.841,2.65,5.841,5.919
			S1496.997,560.836,1493.772,560.836 M1493.772,542.027c-3.226,0-5.84-2.649-5.84-5.917c0-3.269,2.614-5.922,5.84-5.922
			c3.225,0,5.841,2.653,5.841,5.922C1499.613,539.378,1496.997,542.027,1493.772,542.027 M1493.772,524.412
			c-3.226,0-5.84-2.652-5.84-5.922c0-3.269,2.614-5.918,5.84-5.918c3.225,0,5.841,2.649,5.841,5.918
			C1499.613,521.76,1496.997,524.412,1493.772,524.412 M1493.772,506.792c-3.226,0-5.84-2.651-5.84-5.921s2.614-5.917,5.84-5.917
			c3.225,0,5.841,2.647,5.841,5.917S1496.997,506.792,1493.772,506.792 M1493.772,489.175c-3.226,0-5.84-2.651-5.84-5.919
			c0-3.269,2.614-5.922,5.84-5.922c3.225,0,5.841,2.653,5.841,5.922C1499.613,486.524,1496.997,489.175,1493.772,489.175
			 M1512.995,596.07c-3.225,0-5.841-2.648-5.841-5.918c0-3.268,2.616-5.919,5.841-5.919c3.228,0,5.844,2.651,5.844,5.919
			C1518.839,593.422,1516.223,596.07,1512.995,596.07 M1512.995,578.452c-3.225,0-5.841-2.65-5.841-5.918
			c0-3.27,2.616-5.921,5.841-5.921c3.228,0,5.844,2.651,5.844,5.921C1518.839,575.802,1516.223,578.452,1512.995,578.452
			 M1512.995,560.836c-3.225,0-5.841-2.652-5.841-5.921s2.616-5.919,5.841-5.919c3.228,0,5.844,2.65,5.844,5.919
			S1516.223,560.836,1512.995,560.836 M1512.995,542.027c-3.225,0-5.841-2.649-5.841-5.917c0-3.269,2.616-5.922,5.841-5.922
			c3.228,0,5.844,2.653,5.844,5.922C1518.839,539.378,1516.223,542.027,1512.995,542.027 M1512.995,524.412
			c-3.225,0-5.841-2.652-5.841-5.922c0-3.269,2.616-5.918,5.841-5.918c3.228,0,5.844,2.649,5.844,5.918
			C1518.839,521.76,1516.223,524.412,1512.995,524.412 M1512.995,506.792c-3.225,0-5.841-2.651-5.841-5.921s2.616-5.917,5.841-5.917
			c3.228,0,5.844,2.647,5.844,5.917S1516.223,506.792,1512.995,506.792 M1512.995,489.175c-3.225,0-5.841-2.651-5.841-5.919
			c0-3.269,2.616-5.922,5.841-5.922c3.228,0,5.844,2.653,5.844,5.922C1518.839,486.524,1516.223,489.175,1512.995,489.175
			 M1532.22,596.07c-3.224,0-5.843-2.648-5.843-5.918c0-3.268,2.619-5.919,5.843-5.919c3.226,0,5.84,2.651,5.84,5.919
			C1538.06,593.422,1535.445,596.07,1532.22,596.07 M1532.22,578.452c-3.224,0-5.843-2.65-5.843-5.918
			c0-3.27,2.619-5.921,5.843-5.921c3.226,0,5.84,2.651,5.84,5.921C1538.06,575.802,1535.445,578.452,1532.22,578.452
			 M1532.22,560.836c-3.224,0-5.843-2.652-5.843-5.921s2.619-5.919,5.843-5.919c3.226,0,5.84,2.65,5.84,5.919
			S1535.445,560.836,1532.22,560.836 M1532.22,542.027c-3.224,0-5.843-2.649-5.843-5.917c0-3.269,2.619-5.922,5.843-5.922
			c3.226,0,5.84,2.653,5.84,5.922C1538.06,539.378,1535.445,542.027,1532.22,542.027 M1532.22,524.412
			c-3.224,0-5.843-2.652-5.843-5.922c0-3.269,2.619-5.918,5.843-5.918c3.226,0,5.84,2.649,5.84,5.918
			C1538.06,521.76,1535.445,524.412,1532.22,524.412 M1532.22,506.792c-3.224,0-5.843-2.651-5.843-5.921s2.619-5.917,5.843-5.917
			c3.226,0,5.84,2.647,5.84,5.917S1535.445,506.792,1532.22,506.792 M1532.22,489.175c-3.224,0-5.843-2.651-5.843-5.919
			c0-3.269,2.619-5.922,5.843-5.922c3.226,0,5.84,2.653,5.84,5.922C1538.06,486.524,1535.445,489.175,1532.22,489.175
			 M1551.442,596.07c-3.226,0-5.84-2.648-5.84-5.918c0-3.268,2.614-5.919,5.84-5.919s5.84,2.651,5.84,5.919
			C1557.282,593.422,1554.668,596.07,1551.442,596.07 M1551.442,578.452c-3.226,0-5.84-2.65-5.84-5.918
			c0-3.27,2.614-5.921,5.84-5.921s5.84,2.651,5.84,5.921C1557.282,575.802,1554.668,578.452,1551.442,578.452 M1551.442,560.836
			c-3.226,0-5.84-2.652-5.84-5.921s2.614-5.919,5.84-5.919s5.84,2.65,5.84,5.919S1554.668,560.836,1551.442,560.836
			 M1551.442,542.027c-3.226,0-5.84-2.649-5.84-5.917c0-3.269,2.614-5.922,5.84-5.922s5.84,2.653,5.84,5.922
			C1557.282,539.378,1554.668,542.027,1551.442,542.027 M1551.442,524.412c-3.226,0-5.84-2.652-5.84-5.922
			c0-3.269,2.614-5.918,5.84-5.918s5.84,2.649,5.84,5.918C1557.282,521.76,1554.668,524.412,1551.442,524.412 M1551.442,506.792
			c-3.226,0-5.84-2.651-5.84-5.921s2.614-5.917,5.84-5.917s5.84,2.647,5.84,5.917S1554.668,506.792,1551.442,506.792
			 M1551.442,489.175c-3.226,0-5.84-2.651-5.84-5.919c0-3.269,2.614-5.922,5.84-5.922s5.84,2.653,5.84,5.922
			C1557.282,486.524,1554.668,489.175,1551.442,489.175 M1570.666,596.07c-3.227,0-5.841-2.648-5.841-5.918
			c0-3.268,2.614-5.919,5.841-5.919s5.841,2.651,5.841,5.919C1576.507,593.422,1573.893,596.07,1570.666,596.07 M1570.666,578.452
			c-3.227,0-5.841-2.65-5.841-5.918c0-3.27,2.614-5.921,5.841-5.921s5.841,2.651,5.841,5.921
			C1576.507,575.802,1573.893,578.452,1570.666,578.452 M1570.666,560.836c-3.227,0-5.841-2.652-5.841-5.921
			s2.614-5.919,5.841-5.919s5.841,2.65,5.841,5.919S1573.893,560.836,1570.666,560.836 M1570.666,542.027
			c-3.227,0-5.841-2.649-5.841-5.917c0-3.269,2.614-5.922,5.841-5.922s5.841,2.653,5.841,5.922
			C1576.507,539.378,1573.893,542.027,1570.666,542.027 M1570.666,524.412c-3.227,0-5.841-2.652-5.841-5.922
			c0-3.269,2.614-5.918,5.841-5.918s5.841,2.649,5.841,5.918C1576.507,521.76,1573.893,524.412,1570.666,524.412 M1570.666,506.792
			c-3.227,0-5.841-2.651-5.841-5.921s2.614-5.917,5.841-5.917s5.841,2.647,5.841,5.917S1573.893,506.792,1570.666,506.792
			 M1570.666,489.175c-3.227,0-5.841-2.651-5.841-5.919c0-3.269,2.614-5.922,5.841-5.922s5.841,2.653,5.841,5.922
			C1576.507,486.524,1573.893,489.175,1570.666,489.175"/>
	</g>
	<g clip-path="url(#SVGID_2_)">
		<defs>
			<polyline id="SVGID_13_" points="0,1384.243 0,-140.757 1600,-140.757 1600,1384.243 			"/>
		</defs>
		<clipPath id="SVGID_14_">
			<use xlink:href="#SVGID_13_"  overflow="visible"/>
		</clipPath>
		<rect x="1444.475" y="1088.748" clip-path="url(#SVGID_14_)" fill="#E32E2D" width="154.04" height="141.003"/>
		<rect x="1434.193" y="751.139" clip-path="url(#SVGID_14_)" fill="#4B2B7F" width="165.485" height="100.252"/>
		<polygon clip-path="url(#SVGID_14_)" fill="#14ADE3" points="1572.098,754.196 1599.678,754.196 1585.887,778.394 
			1572.098,802.593 1558.307,778.394 1544.516,754.196 		"/>
		<polygon clip-path="url(#SVGID_14_)" fill="#14ADE3" points="1572.098,802.694 1599.678,802.694 1585.887,826.894 
			1572.098,851.091 1558.307,826.894 1544.516,802.694 		"/>
		<polygon clip-path="url(#SVGID_14_)" fill="#14ADE3" points="1516.935,754.196 1544.516,754.196 1530.726,778.394 
			1516.935,802.593 1503.145,778.394 1489.354,754.196 		"/>
		<polygon clip-path="url(#SVGID_14_)" fill="#14ADE3" points="1516.935,802.694 1544.516,802.694 1530.726,826.894 
			1516.935,851.091 1503.145,826.894 1489.354,802.694 		"/>
		<polygon clip-path="url(#SVGID_14_)" fill="#14ADE3" points="1461.773,754.196 1489.354,754.196 1475.563,778.394 
			1461.773,802.593 1447.982,778.394 1434.192,754.196 		"/>
		<polygon clip-path="url(#SVGID_14_)" fill="#14ADE3" points="1461.773,802.694 1489.354,802.694 1475.563,826.894 
			1461.773,851.091 1447.982,826.894 1434.192,802.694 		"/>
		<polygon clip-path="url(#SVGID_14_)" fill="#F9C223" points="1583.476,1088.845 1596.859,1112.028 1596.732,1206.129 
			1583.476,1229.75 1502.124,1229.75 1461.45,1159.3 1502.124,1088.845 		"/>
		<polygon clip-path="url(#SVGID_14_)" fill="#E32E2D" points="1573.699,1105.784 1596.205,1144.766 1596.732,1172.381 
			1573.699,1212.815 1511.902,1212.815 1481.007,1159.3 1511.902,1105.784 		"/>
		<polygon clip-path="url(#SVGID_14_)" fill="#F9C223" points="1566.287,1118.623 1589.77,1159.301 1566.287,1199.972 
			1519.318,1199.972 1495.834,1159.301 1519.318,1118.623 		"/>
		<polygon clip-path="url(#SVGID_14_)" fill="#E32E2D" points="1559.678,1130.069 1576.553,1159.3 1559.678,1188.527 
			1525.925,1188.527 1509.051,1159.3 1525.925,1130.069 		"/>
		<path clip-path="url(#SVGID_14_)" fill="#4B2B7F" d="M1422.705,1240.996c-3.457,0-6.254,2.841-6.254,6.341
			s2.797,6.339,6.254,6.339c3.453,0,6.252-2.839,6.252-6.339S1426.158,1240.996,1422.705,1240.996"/>
		<path clip-path="url(#SVGID_14_)" fill="#4B2B7F" d="M1422.705,1259.863c-3.457,0-6.254,2.835-6.254,6.337
			c0,3.501,2.797,6.34,6.254,6.34c3.453,0,6.252-2.839,6.252-6.34C1428.957,1262.698,1426.158,1259.863,1422.705,1259.863"/>
		<path clip-path="url(#SVGID_14_)" fill="#4B2B7F" d="M1422.705,1278.728c-3.457,0-6.254,2.837-6.254,6.337
			c0,3.501,2.797,6.341,6.254,6.341c3.453,0,6.252-2.84,6.252-6.341C1428.957,1281.565,1426.158,1278.728,1422.705,1278.728"/>
		<path clip-path="url(#SVGID_14_)" fill="#4B2B7F" d="M1422.705,1297.591c-3.457,0-6.254,2.841-6.254,6.341
			s2.797,6.337,6.254,6.337c3.453,0,6.252-2.837,6.252-6.337S1426.158,1297.591,1422.705,1297.591"/>
		<path clip-path="url(#SVGID_14_)" fill="#4B2B7F" d="M1444.326,1240.996c-3.455,0-6.257,2.841-6.257,6.341
			s2.802,6.339,6.257,6.339c3.452,0,6.252-2.839,6.252-6.339S1447.778,1240.996,1444.326,1240.996"/>
		<path clip-path="url(#SVGID_14_)" fill="#4B2B7F" d="M1464.909,1240.996c-3.454,0-6.255,2.841-6.255,6.341
			s2.801,6.339,6.255,6.339s6.253-2.839,6.253-6.339S1468.363,1240.996,1464.909,1240.996"/>
		<path clip-path="url(#SVGID_14_)" fill="#4B2B7F" d="M1485.493,1240.996c-3.455,0-6.253,2.841-6.253,6.341
			s2.798,6.339,6.253,6.339c3.453,0,6.255-2.839,6.255-6.339S1488.946,1240.996,1485.493,1240.996"/>
		<path clip-path="url(#SVGID_14_)" fill="#4B2B7F" d="M1506.077,1240.996c-3.453,0-6.255,2.841-6.255,6.341
			s2.802,6.339,6.255,6.339c3.456,0,6.256-2.839,6.256-6.339S1509.533,1240.996,1506.077,1240.996"/>
		<path clip-path="url(#SVGID_14_)" fill="#4B2B7F" d="M1526.662,1240.996c-3.452,0-6.256,2.841-6.256,6.341
			s2.804,6.339,6.256,6.339c3.454,0,6.253-2.839,6.253-6.339S1530.116,1240.996,1526.662,1240.996"/>
		<path clip-path="url(#SVGID_14_)" fill="#4B2B7F" d="M1547.246,1240.996c-3.454,0-6.254,2.841-6.254,6.341s2.8,6.339,6.254,6.339
			c3.453,0,6.253-2.839,6.253-6.339S1550.699,1240.996,1547.246,1240.996"/>
		<path clip-path="url(#SVGID_14_)" fill="#4B2B7F" d="M1567.829,1240.996c-3.454,0-6.253,2.841-6.253,6.341
			s2.799,6.339,6.253,6.339c3.456,0,6.255-2.839,6.255-6.339S1571.285,1240.996,1567.829,1240.996"/>
		<path clip-path="url(#SVGID_14_)" fill="#4B2B7F" d="M1444.326,1259.863c-3.455,0-6.257,2.835-6.257,6.337
			c0,3.501,2.802,6.34,6.257,6.34c3.452,0,6.252-2.839,6.252-6.34C1450.578,1262.698,1447.778,1259.863,1444.326,1259.863"/>
		<path clip-path="url(#SVGID_14_)" fill="#4B2B7F" d="M1464.909,1259.863c-3.454,0-6.255,2.835-6.255,6.337
			c0,3.501,2.801,6.34,6.255,6.34s6.253-2.839,6.253-6.34C1471.162,1262.698,1468.363,1259.863,1464.909,1259.863"/>
		<path clip-path="url(#SVGID_14_)" fill="#4B2B7F" d="M1485.493,1259.863c-3.455,0-6.253,2.835-6.253,6.337
			c0,3.501,2.798,6.34,6.253,6.34c3.453,0,6.255-2.839,6.255-6.34C1491.748,1262.698,1488.946,1259.863,1485.493,1259.863"/>
		<path clip-path="url(#SVGID_14_)" fill="#4B2B7F" d="M1506.077,1259.863c-3.453,0-6.255,2.835-6.255,6.337
			c0,3.501,2.802,6.34,6.255,6.34c3.456,0,6.256-2.839,6.256-6.34C1512.333,1262.698,1509.533,1259.863,1506.077,1259.863"/>
		<path clip-path="url(#SVGID_14_)" fill="#4B2B7F" d="M1526.662,1259.863c-3.452,0-6.256,2.835-6.256,6.337
			c0,3.501,2.804,6.34,6.256,6.34c3.454,0,6.253-2.839,6.253-6.34C1532.915,1262.698,1530.116,1259.863,1526.662,1259.863"/>
		<path clip-path="url(#SVGID_14_)" fill="#4B2B7F" d="M1547.246,1259.863c-3.454,0-6.254,2.835-6.254,6.337
			c0,3.501,2.8,6.34,6.254,6.34c3.453,0,6.253-2.839,6.253-6.34C1553.499,1262.698,1550.699,1259.863,1547.246,1259.863"/>
		<path clip-path="url(#SVGID_14_)" fill="#4B2B7F" d="M1567.829,1259.863c-3.454,0-6.253,2.835-6.253,6.337
			c0,3.501,2.799,6.34,6.253,6.34c3.456,0,6.255-2.839,6.255-6.34C1574.084,1262.698,1571.285,1259.863,1567.829,1259.863"/>
		<path clip-path="url(#SVGID_14_)" fill="#4B2B7F" d="M1444.326,1278.728c-3.455,0-6.257,2.837-6.257,6.337
			c0,3.501,2.802,6.341,6.257,6.341c3.452,0,6.252-2.84,6.252-6.341C1450.578,1281.565,1447.778,1278.728,1444.326,1278.728"/>
		<path clip-path="url(#SVGID_14_)" fill="#4B2B7F" d="M1464.909,1278.728c-3.454,0-6.255,2.837-6.255,6.337
			c0,3.501,2.801,6.341,6.255,6.341s6.253-2.84,6.253-6.341C1471.162,1281.565,1468.363,1278.728,1464.909,1278.728"/>
		<path clip-path="url(#SVGID_14_)" fill="#4B2B7F" d="M1485.493,1278.728c-3.455,0-6.253,2.837-6.253,6.337
			c0,3.501,2.798,6.341,6.253,6.341c3.453,0,6.255-2.84,6.255-6.341C1491.748,1281.565,1488.946,1278.728,1485.493,1278.728"/>
		<path clip-path="url(#SVGID_14_)" fill="#4B2B7F" d="M1506.077,1278.728c-3.453,0-6.255,2.837-6.255,6.337
			c0,3.501,2.802,6.341,6.255,6.341c3.456,0,6.256-2.84,6.256-6.341C1512.333,1281.565,1509.533,1278.728,1506.077,1278.728"/>
		<path clip-path="url(#SVGID_14_)" fill="#4B2B7F" d="M1526.662,1278.728c-3.452,0-6.256,2.837-6.256,6.337
			c0,3.501,2.804,6.341,6.256,6.341c3.454,0,6.253-2.84,6.253-6.341C1532.915,1281.565,1530.116,1278.728,1526.662,1278.728"/>
		<path clip-path="url(#SVGID_14_)" fill="#4B2B7F" d="M1547.246,1278.728c-3.454,0-6.254,2.837-6.254,6.337
			c0,3.501,2.8,6.341,6.254,6.341c3.453,0,6.253-2.84,6.253-6.341C1553.499,1281.565,1550.699,1278.728,1547.246,1278.728"/>
		<path clip-path="url(#SVGID_14_)" fill="#4B2B7F" d="M1567.829,1278.728c-3.454,0-6.253,2.837-6.253,6.337
			c0,3.501,2.799,6.341,6.253,6.341c3.456,0,6.255-2.84,6.255-6.341C1574.084,1281.565,1571.285,1278.728,1567.829,1278.728"/>
		<path clip-path="url(#SVGID_14_)" fill="#4B2B7F" d="M1444.326,1297.591c-3.455,0-6.257,2.841-6.257,6.341
			s2.802,6.337,6.257,6.337c3.452,0,6.252-2.837,6.252-6.337S1447.778,1297.591,1444.326,1297.591"/>
		<path clip-path="url(#SVGID_14_)" fill="#4B2B7F" d="M1464.909,1297.591c-3.454,0-6.255,2.841-6.255,6.341
			s2.801,6.337,6.255,6.337s6.253-2.837,6.253-6.337S1468.363,1297.591,1464.909,1297.591"/>
		<path clip-path="url(#SVGID_14_)" fill="#4B2B7F" d="M1485.493,1297.591c-3.455,0-6.253,2.841-6.253,6.341
			s2.798,6.337,6.253,6.337c3.453,0,6.255-2.837,6.255-6.337S1488.946,1297.591,1485.493,1297.591"/>
		<path clip-path="url(#SVGID_14_)" fill="#4B2B7F" d="M1506.077,1297.591c-3.453,0-6.255,2.841-6.255,6.341
			s2.802,6.337,6.255,6.337c3.456,0,6.256-2.837,6.256-6.337S1509.533,1297.591,1506.077,1297.591"/>
		<path clip-path="url(#SVGID_14_)" fill="#4B2B7F" d="M1526.662,1297.591c-3.452,0-6.256,2.841-6.256,6.341
			s2.804,6.337,6.256,6.337c3.454,0,6.253-2.837,6.253-6.337S1530.116,1297.591,1526.662,1297.591"/>
		<path clip-path="url(#SVGID_14_)" fill="#4B2B7F" d="M1547.246,1297.591c-3.454,0-6.254,2.841-6.254,6.341s2.8,6.337,6.254,6.337
			c3.453,0,6.253-2.837,6.253-6.337S1550.699,1297.591,1547.246,1297.591"/>
		<path clip-path="url(#SVGID_14_)" fill="#4B2B7F" d="M1567.829,1297.591c-3.454,0-6.253,2.841-6.253,6.341
			s2.799,6.337,6.253,6.337c3.456,0,6.255-2.837,6.255-6.337S1571.285,1297.591,1567.829,1297.591"/>
		<path clip-path="url(#SVGID_14_)" fill="#4B2B7F" d="M1422.705,1317.731c-3.457,0-6.254,2.837-6.254,6.338
			c0,3.5,2.797,6.34,6.254,6.34c3.453,0,6.252-2.84,6.252-6.34C1428.957,1320.568,1426.158,1317.731,1422.705,1317.731"/>
		<path clip-path="url(#SVGID_14_)" fill="#4B2B7F" d="M1422.705,1336.595c-3.457,0-6.254,2.838-6.254,6.34
			c0,3.5,2.797,6.337,6.254,6.337c3.453,0,6.252-2.837,6.252-6.337C1428.957,1339.433,1426.158,1336.595,1422.705,1336.595"/>
		<path clip-path="url(#SVGID_14_)" fill="#4B2B7F" d="M1422.705,1355.462c-3.457,0-6.254,2.838-6.254,6.338
			c0,3.502,2.797,6.337,6.254,6.337c3.453,0,6.252-2.835,6.252-6.337C1428.957,1358.3,1426.158,1355.462,1422.705,1355.462"/>
		<path clip-path="url(#SVGID_14_)" fill="#4B2B7F" d="M1444.326,1317.731c-3.455,0-6.257,2.837-6.257,6.338
			c0,3.5,2.802,6.34,6.257,6.34c3.452,0,6.252-2.84,6.252-6.34C1450.578,1320.568,1447.778,1317.731,1444.326,1317.731"/>
		<path clip-path="url(#SVGID_14_)" fill="#4B2B7F" d="M1464.909,1317.731c-3.454,0-6.255,2.837-6.255,6.338
			c0,3.5,2.801,6.34,6.255,6.34s6.253-2.84,6.253-6.34C1471.162,1320.568,1468.363,1317.731,1464.909,1317.731"/>
		<path clip-path="url(#SVGID_14_)" fill="#4B2B7F" d="M1485.493,1317.731c-3.455,0-6.253,2.837-6.253,6.338
			c0,3.5,2.798,6.34,6.253,6.34c3.453,0,6.255-2.84,6.255-6.34C1491.748,1320.568,1488.946,1317.731,1485.493,1317.731"/>
		<path clip-path="url(#SVGID_14_)" fill="#4B2B7F" d="M1506.077,1317.731c-3.453,0-6.255,2.837-6.255,6.338
			c0,3.5,2.802,6.34,6.255,6.34c3.456,0,6.256-2.84,6.256-6.34C1512.333,1320.568,1509.533,1317.731,1506.077,1317.731"/>
		<path clip-path="url(#SVGID_14_)" fill="#4B2B7F" d="M1526.662,1317.731c-3.452,0-6.256,2.837-6.256,6.338
			c0,3.5,2.804,6.34,6.256,6.34c3.454,0,6.253-2.84,6.253-6.34C1532.915,1320.568,1530.116,1317.731,1526.662,1317.731"/>
		<path clip-path="url(#SVGID_14_)" fill="#4B2B7F" d="M1547.246,1317.731c-3.454,0-6.254,2.837-6.254,6.338
			c0,3.5,2.8,6.34,6.254,6.34c3.453,0,6.253-2.84,6.253-6.34C1553.499,1320.568,1550.699,1317.731,1547.246,1317.731"/>
		<path clip-path="url(#SVGID_14_)" fill="#4B2B7F" d="M1567.829,1317.731c-3.454,0-6.253,2.837-6.253,6.338
			c0,3.5,2.799,6.34,6.253,6.34c3.456,0,6.255-2.84,6.255-6.34C1574.084,1320.568,1571.285,1317.731,1567.829,1317.731"/>
		<path clip-path="url(#SVGID_14_)" fill="#4B2B7F" d="M1444.326,1336.595c-3.455,0-6.257,2.838-6.257,6.34
			c0,3.5,2.802,6.337,6.257,6.337c3.452,0,6.252-2.837,6.252-6.337C1450.578,1339.433,1447.778,1336.595,1444.326,1336.595"/>
		<path clip-path="url(#SVGID_14_)" fill="#4B2B7F" d="M1464.909,1336.595c-3.454,0-6.255,2.838-6.255,6.34
			c0,3.5,2.801,6.337,6.255,6.337s6.253-2.837,6.253-6.337C1471.162,1339.433,1468.363,1336.595,1464.909,1336.595"/>
		<path clip-path="url(#SVGID_14_)" fill="#4B2B7F" d="M1485.493,1336.595c-3.455,0-6.253,2.838-6.253,6.34
			c0,3.5,2.798,6.337,6.253,6.337c3.453,0,6.255-2.837,6.255-6.337C1491.748,1339.433,1488.946,1336.595,1485.493,1336.595"/>
		<path clip-path="url(#SVGID_14_)" fill="#4B2B7F" d="M1506.077,1336.595c-3.453,0-6.255,2.838-6.255,6.34
			c0,3.5,2.802,6.337,6.255,6.337c3.456,0,6.256-2.837,6.256-6.337C1512.333,1339.433,1509.533,1336.595,1506.077,1336.595"/>
		<path clip-path="url(#SVGID_14_)" fill="#4B2B7F" d="M1526.662,1336.595c-3.452,0-6.256,2.838-6.256,6.34
			c0,3.5,2.804,6.337,6.256,6.337c3.454,0,6.253-2.837,6.253-6.337C1532.915,1339.433,1530.116,1336.595,1526.662,1336.595"/>
		<path clip-path="url(#SVGID_14_)" fill="#4B2B7F" d="M1547.246,1336.595c-3.454,0-6.254,2.838-6.254,6.34
			c0,3.5,2.8,6.337,6.254,6.337c3.453,0,6.253-2.837,6.253-6.337C1553.499,1339.433,1550.699,1336.595,1547.246,1336.595"/>
		<path clip-path="url(#SVGID_14_)" fill="#4B2B7F" d="M1567.829,1336.595c-3.454,0-6.253,2.838-6.253,6.34
			c0,3.5,2.799,6.337,6.253,6.337c3.456,0,6.255-2.837,6.255-6.337C1574.084,1339.433,1571.285,1336.595,1567.829,1336.595"/>
		<path clip-path="url(#SVGID_14_)" fill="#4B2B7F" d="M1444.326,1355.462c-3.455,0-6.257,2.838-6.257,6.338
			c0,3.502,2.802,6.337,6.257,6.337c3.452,0,6.252-2.835,6.252-6.337C1450.578,1358.3,1447.778,1355.462,1444.326,1355.462"/>
		<path clip-path="url(#SVGID_14_)" fill="#4B2B7F" d="M1464.909,1355.462c-3.454,0-6.255,2.838-6.255,6.338
			c0,3.502,2.801,6.337,6.255,6.337s6.253-2.835,6.253-6.337C1471.162,1358.3,1468.363,1355.462,1464.909,1355.462"/>
		<path clip-path="url(#SVGID_14_)" fill="#4B2B7F" d="M1485.493,1355.462c-3.455,0-6.253,2.838-6.253,6.338
			c0,3.502,2.798,6.337,6.253,6.337c3.453,0,6.255-2.835,6.255-6.337C1491.748,1358.3,1488.946,1355.462,1485.493,1355.462"/>
		<path clip-path="url(#SVGID_14_)" fill="#4B2B7F" d="M1506.077,1355.462c-3.453,0-6.255,2.838-6.255,6.338
			c0,3.502,2.802,6.337,6.255,6.337c3.456,0,6.256-2.835,6.256-6.337C1512.333,1358.3,1509.533,1355.462,1506.077,1355.462"/>
		<path clip-path="url(#SVGID_14_)" fill="#4B2B7F" d="M1526.662,1355.462c-3.452,0-6.256,2.838-6.256,6.338
			c0,3.502,2.804,6.337,6.256,6.337c3.454,0,6.253-2.835,6.253-6.337C1532.915,1358.3,1530.116,1355.462,1526.662,1355.462"/>
		<path clip-path="url(#SVGID_14_)" fill="#4B2B7F" d="M1547.246,1355.462c-3.454,0-6.254,2.838-6.254,6.338
			c0,3.502,2.8,6.337,6.254,6.337c3.453,0,6.253-2.835,6.253-6.337C1553.499,1358.3,1550.699,1355.462,1547.246,1355.462"/>
		<path clip-path="url(#SVGID_14_)" fill="#4B2B7F" d="M1567.829,1355.462c-3.454,0-6.253,2.838-6.253,6.338
			c0,3.502,2.799,6.337,6.253,6.337c3.456,0,6.255-2.835,6.255-6.337C1574.084,1358.3,1571.285,1355.462,1567.829,1355.462"/>
		<rect x="1520.696" y="1039.42" clip-path="url(#SVGID_14_)" fill="#14ADE3" width="78.189" height="49.63"/>
		<rect x="1520.696" y="927.334" clip-path="url(#SVGID_14_)" fill="#F9C223" width="78.189" height="21.175"/>
		<rect x="1520.696" y="957.639" clip-path="url(#SVGID_14_)" fill="#F9C223" width="78.188" height="21.175"/>
		<rect x="1520.696" y="987.942" clip-path="url(#SVGID_14_)" fill="#F9C223" width="78.188" height="21.178"/>
		<rect x="1520.696" y="1018.246" clip-path="url(#SVGID_14_)" fill="#F9C223" width="78.188" height="21.175"/>
		<rect x="1540.722" y="1227.681" clip-path="url(#SVGID_14_)" fill="#14ADE3" width="57.568" height="154.203"/>
		<polygon clip-path="url(#SVGID_14_)" fill="#F9C223" points="1568.388,1271.817 1558.584,1277.042 1560.455,1265.973 
			1552.522,1258.141 1563.484,1256.522 1568.388,1246.454 1573.291,1256.522 1584.253,1258.141 1576.322,1265.973 
			1578.193,1277.042 		"/>
		<polygon clip-path="url(#SVGID_14_)" fill="#F9C223" points="1568.388,1314.851 1558.584,1320.077 1560.455,1309.009 
			1552.522,1301.173 1563.484,1299.558 1568.388,1289.49 1573.291,1299.558 1584.253,1301.173 1576.322,1309.009 1578.193,1320.077 
					"/>
		<polygon clip-path="url(#SVGID_14_)" fill="#F9C223" points="1568.388,1357.886 1558.584,1363.109 1560.455,1352.042 
			1552.522,1344.208 1563.484,1342.59 1568.388,1332.523 1573.291,1342.59 1584.253,1344.208 1576.322,1352.042 1578.193,1363.109 
					"/>
		<polygon clip-path="url(#SVGID_14_)" fill="#14ADE3" points="1470.211,1074.795 1472.414,1078.599 1467.746,1077.879 
			1464.443,1080.939 1463.767,1076.69 1459.517,1074.795 1463.767,1072.894 1464.443,1068.645 1467.746,1071.719 1472.414,1071 		
			"/>
		<polygon clip-path="url(#SVGID_14_)" fill="#14ADE3" points="1488.363,1074.795 1490.563,1078.599 1485.898,1077.879 
			1482.592,1080.939 1481.911,1076.69 1477.666,1074.795 1481.911,1072.894 1482.592,1068.645 1485.898,1071.719 1490.563,1071 		
			"/>
		<polygon clip-path="url(#SVGID_14_)" fill="#14ADE3" points="1506.513,1074.795 1508.715,1078.599 1504.047,1077.879 
			1500.74,1080.939 1500.063,1076.69 1495.818,1074.795 1500.063,1072.894 1500.74,1068.645 1504.047,1071.719 1508.715,1071 		"/>
		<rect x="1521.288" y="851.084" clip-path="url(#SVGID_14_)" fill="#14ADE3" width="77.986" height="85.148"/>
		<polygon clip-path="url(#SVGID_14_)" fill="#C44791" points="1521.192,936.233 1521.192,850.897 1599.874,850.897 		"/>
		<polygon clip-path="url(#SVGID_14_)" fill="#4B2B7F" points="1579.852,924.905 1582.094,923.606 1581.665,926.358 
			1583.474,928.304 1580.973,928.704 1579.852,931.209 1578.726,928.704 1576.23,928.304 1578.044,926.358 1577.614,923.606 		"/>
		<polygon clip-path="url(#SVGID_14_)" fill="#4B2B7F" points="1579.852,914.204 1582.094,912.908 1581.665,915.657 
			1583.474,917.606 1580.973,918.007 1579.852,920.51 1578.726,918.007 1576.23,917.606 1578.044,915.657 1577.614,912.908 		"/>
		<polygon clip-path="url(#SVGID_14_)" fill="#4B2B7F" points="1579.852,903.504 1582.094,902.206 1581.665,904.958 
			1583.474,906.908 1580.973,907.306 1579.852,909.809 1578.726,907.306 1576.23,906.908 1578.044,904.958 1577.614,902.206 		"/>
		<polygon clip-path="url(#SVGID_14_)" fill="#14ADE3" points="1531.689,882.56 1533.932,881.261 1533.508,884.013 1535.312,885.96 
			1532.807,886.359 1531.689,888.866 1530.568,886.359 1528.063,885.96 1529.877,884.013 1529.453,881.261 		"/>
		<polygon clip-path="url(#SVGID_14_)" fill="#14ADE3" points="1531.689,871.859 1533.932,870.563 1533.508,873.312 
			1535.312,875.262 1532.807,875.663 1531.689,878.166 1530.568,875.663 1528.063,875.262 1529.877,873.312 1529.453,870.563 		"/>
		<polygon clip-path="url(#SVGID_14_)" fill="#14ADE3" points="1531.689,861.161 1533.932,859.861 1533.508,862.613 
			1535.312,864.563 1532.807,864.962 1531.689,867.465 1530.568,864.962 1528.063,864.563 1529.877,862.613 1529.453,859.861 		"/>
	</g>
	<g clip-path="url(#SVGID_2_)">
		<defs>
			<rect id="SVGID_15_" x="1409.71" y="1228.048" width="130.637" height="154.194"/>
		</defs>
		<clipPath id="SVGID_16_">
			<use xlink:href="#SVGID_15_"  overflow="visible"/>
		</clipPath>
		<path clip-path="url(#SVGID_16_)" fill="#C44791" d="M1276.74,1428.141h314.712v-200.46H1276.74V1428.141z M1299.199,1410.27
			c-3.454,0-6.258-3.686-6.258-8.237c0-4.551,2.804-8.239,6.258-8.239c3.453,0,6.252,3.688,6.252,8.239
			C1305.451,1406.584,1302.652,1410.27,1299.199,1410.27 M1299.199,1385.746c-3.454,0-6.258-3.688-6.258-8.237
			c0-4.552,2.804-8.242,6.258-8.242c3.453,0,6.252,3.69,6.252,8.242C1305.451,1382.057,1302.652,1385.746,1299.199,1385.746
			 M1299.199,1361.224c-3.454,0-6.258-3.691-6.258-8.241c0-4.552,2.804-8.239,6.258-8.239c3.453,0,6.252,3.688,6.252,8.239
			C1305.451,1357.533,1302.652,1361.224,1299.199,1361.224 M1299.199,1335.043c-3.454,0-6.258-3.688-6.258-8.238
			s2.804-8.243,6.258-8.243c3.453,0,6.252,3.693,6.252,8.243S1302.652,1335.043,1299.199,1335.043 M1299.199,1310.522
			c-3.454,0-6.258-3.691-6.258-8.243c0-4.551,2.804-8.237,6.258-8.237c3.453,0,6.252,3.687,6.252,8.237
			C1305.451,1306.831,1302.652,1310.522,1299.199,1310.522 M1299.199,1285.996c-3.454,0-6.258-3.69-6.258-8.242
			c0-4.551,2.804-8.237,6.258-8.237c3.453,0,6.252,3.687,6.252,8.237C1305.451,1282.305,1302.652,1285.996,1299.199,1285.996
			 M1299.199,1261.472c-3.454,0-6.258-3.689-6.258-8.24c0-4.549,2.804-8.242,6.258-8.242c3.453,0,6.252,3.693,6.252,8.242
			C1305.451,1257.783,1302.652,1261.472,1299.199,1261.472 M1319.781,1410.27c-3.453,0-6.253-3.686-6.253-8.237
			c0-4.551,2.8-8.239,6.253-8.239c3.458,0,6.256,3.688,6.256,8.239C1326.037,1406.584,1323.239,1410.27,1319.781,1410.27
			 M1319.781,1385.746c-3.453,0-6.253-3.688-6.253-8.237c0-4.552,2.8-8.242,6.253-8.242c3.458,0,6.256,3.69,6.256,8.242
			C1326.037,1382.057,1323.239,1385.746,1319.781,1385.746 M1319.781,1361.224c-3.453,0-6.253-3.691-6.253-8.241
			c0-4.552,2.8-8.239,6.253-8.239c3.458,0,6.256,3.688,6.256,8.239C1326.037,1357.533,1323.239,1361.224,1319.781,1361.224
			 M1319.781,1335.043c-3.453,0-6.253-3.688-6.253-8.238s2.8-8.243,6.253-8.243c3.458,0,6.256,3.693,6.256,8.243
			S1323.239,1335.043,1319.781,1335.043 M1319.781,1310.522c-3.453,0-6.253-3.691-6.253-8.243c0-4.551,2.8-8.237,6.253-8.237
			c3.458,0,6.256,3.687,6.256,8.237C1326.037,1306.831,1323.239,1310.522,1319.781,1310.522 M1319.781,1285.996
			c-3.453,0-6.253-3.69-6.253-8.242c0-4.551,2.8-8.237,6.253-8.237c3.458,0,6.256,3.687,6.256,8.237
			C1326.037,1282.305,1323.239,1285.996,1319.781,1285.996 M1319.781,1261.472c-3.453,0-6.253-3.689-6.253-8.24
			c0-4.549,2.8-8.242,6.253-8.242c3.458,0,6.256,3.693,6.256,8.242C1326.037,1257.783,1323.239,1261.472,1319.781,1261.472
			 M1340.366,1410.27c-3.453,0-6.253-3.686-6.253-8.237c0-4.551,2.8-8.239,6.253-8.239s6.254,3.688,6.254,8.239
			C1346.62,1406.584,1343.819,1410.27,1340.366,1410.27 M1340.366,1385.746c-3.453,0-6.253-3.688-6.253-8.237
			c0-4.552,2.8-8.242,6.253-8.242s6.254,3.69,6.254,8.242C1346.62,1382.057,1343.819,1385.746,1340.366,1385.746 M1340.366,1361.224
			c-3.453,0-6.253-3.691-6.253-8.241c0-4.552,2.8-8.239,6.253-8.239s6.254,3.688,6.254,8.239
			C1346.62,1357.533,1343.819,1361.224,1340.366,1361.224 M1340.366,1335.043c-3.453,0-6.253-3.688-6.253-8.238
			s2.8-8.243,6.253-8.243s6.254,3.693,6.254,8.243S1343.819,1335.043,1340.366,1335.043 M1340.366,1310.522
			c-3.453,0-6.253-3.691-6.253-8.243c0-4.551,2.8-8.237,6.253-8.237s6.254,3.687,6.254,8.237
			C1346.62,1306.831,1343.819,1310.522,1340.366,1310.522 M1340.366,1285.996c-3.453,0-6.253-3.69-6.253-8.242
			c0-4.551,2.8-8.237,6.253-8.237s6.254,3.687,6.254,8.237C1346.62,1282.305,1343.819,1285.996,1340.366,1285.996
			 M1340.366,1261.472c-3.453,0-6.253-3.689-6.253-8.24c0-4.549,2.8-8.242,6.253-8.242s6.254,3.693,6.254,8.242
			C1346.62,1257.783,1343.819,1261.472,1340.366,1261.472 M1360.95,1410.27c-3.453,0-6.255-3.686-6.255-8.237
			c0-4.551,2.802-8.239,6.255-8.239c3.456,0,6.256,3.688,6.256,8.239C1367.206,1406.584,1364.406,1410.27,1360.95,1410.27
			 M1360.95,1385.746c-3.453,0-6.255-3.688-6.255-8.237c0-4.552,2.802-8.242,6.255-8.242c3.456,0,6.256,3.69,6.256,8.242
			C1367.206,1382.057,1364.406,1385.746,1360.95,1385.746 M1360.95,1361.224c-3.453,0-6.255-3.691-6.255-8.241
			c0-4.552,2.802-8.239,6.255-8.239c3.456,0,6.256,3.688,6.256,8.239C1367.206,1357.533,1364.406,1361.224,1360.95,1361.224
			 M1360.95,1335.043c-3.453,0-6.255-3.688-6.255-8.238s2.802-8.243,6.255-8.243c3.456,0,6.256,3.693,6.256,8.243
			S1364.406,1335.043,1360.95,1335.043 M1360.95,1310.522c-3.453,0-6.255-3.691-6.255-8.243c0-4.551,2.802-8.237,6.255-8.237
			c3.456,0,6.256,3.687,6.256,8.237C1367.206,1306.831,1364.406,1310.522,1360.95,1310.522 M1360.95,1285.996
			c-3.453,0-6.255-3.69-6.255-8.242c0-4.551,2.802-8.237,6.255-8.237c3.456,0,6.256,3.687,6.256,8.237
			C1367.206,1282.305,1364.406,1285.996,1360.95,1285.996 M1360.95,1261.472c-3.453,0-6.255-3.689-6.255-8.24
			c0-4.549,2.802-8.242,6.255-8.242c3.456,0,6.256,3.693,6.256,8.242C1367.206,1257.783,1364.406,1261.472,1360.95,1261.472
			 M1381.535,1410.27c-3.453,0-6.256-3.686-6.256-8.237c0-4.551,2.803-8.239,6.256-8.239c3.456,0,6.253,3.688,6.253,8.239
			C1387.788,1406.584,1384.991,1410.27,1381.535,1410.27 M1381.535,1385.746c-3.453,0-6.256-3.688-6.256-8.237
			c0-4.552,2.803-8.242,6.256-8.242c3.456,0,6.253,3.69,6.253,8.242C1387.788,1382.057,1384.991,1385.746,1381.535,1385.746
			 M1381.535,1361.224c-3.453,0-6.256-3.691-6.256-8.241c0-4.552,2.803-8.239,6.256-8.239c3.456,0,6.253,3.688,6.253,8.239
			C1387.788,1357.533,1384.991,1361.224,1381.535,1361.224 M1381.535,1335.043c-3.453,0-6.256-3.688-6.256-8.238
			s2.803-8.243,6.256-8.243c3.456,0,6.253,3.693,6.253,8.243S1384.991,1335.043,1381.535,1335.043 M1381.535,1310.522
			c-3.453,0-6.256-3.691-6.256-8.243c0-4.551,2.803-8.237,6.256-8.237c3.456,0,6.253,3.687,6.253,8.237
			C1387.788,1306.831,1384.991,1310.522,1381.535,1310.522 M1381.535,1285.996c-3.453,0-6.256-3.69-6.256-8.242
			c0-4.551,2.803-8.237,6.256-8.237c3.456,0,6.253,3.687,6.253,8.237C1387.788,1282.305,1384.991,1285.996,1381.535,1285.996
			 M1381.535,1261.472c-3.453,0-6.256-3.689-6.256-8.24c0-4.549,2.803-8.242,6.256-8.242c3.456,0,6.253,3.693,6.253,8.242
			C1387.788,1257.783,1384.991,1261.472,1381.535,1261.472 M1402.121,1410.27c-3.455,0-6.257-3.686-6.257-8.237
			c0-4.551,2.802-8.239,6.257-8.239c3.454,0,6.253,3.688,6.253,8.239C1408.374,1406.584,1405.575,1410.27,1402.121,1410.27
			 M1402.121,1385.746c-3.455,0-6.257-3.688-6.257-8.237c0-4.552,2.802-8.242,6.257-8.242c3.454,0,6.253,3.69,6.253,8.242
			C1408.374,1382.057,1405.575,1385.746,1402.121,1385.746 M1402.121,1361.224c-3.455,0-6.257-3.691-6.257-8.241
			c0-4.552,2.802-8.239,6.257-8.239c3.454,0,6.253,3.688,6.253,8.239C1408.374,1357.533,1405.575,1361.224,1402.121,1361.224
			 M1402.121,1335.043c-3.455,0-6.257-3.688-6.257-8.238s2.802-8.243,6.257-8.243c3.454,0,6.253,3.693,6.253,8.243
			S1405.575,1335.043,1402.121,1335.043 M1402.121,1310.522c-3.455,0-6.257-3.691-6.257-8.243c0-4.551,2.802-8.237,6.257-8.237
			c3.454,0,6.253,3.687,6.253,8.237C1408.374,1306.831,1405.575,1310.522,1402.121,1310.522 M1402.121,1285.996
			c-3.455,0-6.257-3.69-6.257-8.242c0-4.551,2.802-8.237,6.257-8.237c3.454,0,6.253,3.687,6.253,8.237
			C1408.374,1282.305,1405.575,1285.996,1402.121,1285.996 M1402.121,1261.472c-3.455,0-6.257-3.689-6.257-8.24
			c0-4.549,2.802-8.242,6.257-8.242c3.454,0,6.253,3.693,6.253,8.242C1408.374,1257.783,1405.575,1261.472,1402.121,1261.472
			 M1422.704,1410.27c-3.456,0-6.253-3.686-6.253-8.237c0-4.551,2.797-8.239,6.253-8.239c3.455,0,6.253,3.688,6.253,8.239
			C1428.957,1406.584,1426.159,1410.27,1422.704,1410.27 M1422.704,1385.746c-3.456,0-6.253-3.688-6.253-8.237
			c0-4.552,2.797-8.242,6.253-8.242c3.455,0,6.253,3.69,6.253,8.242C1428.957,1382.057,1426.159,1385.746,1422.704,1385.746
			 M1422.704,1361.224c-3.456,0-6.253-3.691-6.253-8.241c0-4.552,2.797-8.239,6.253-8.239c3.455,0,6.253,3.688,6.253,8.239
			C1428.957,1357.533,1426.159,1361.224,1422.704,1361.224 M1422.704,1335.043c-3.456,0-6.253-3.688-6.253-8.238
			s2.797-8.243,6.253-8.243c3.455,0,6.253,3.693,6.253,8.243S1426.159,1335.043,1422.704,1335.043 M1422.704,1310.522
			c-3.456,0-6.253-3.691-6.253-8.243c0-4.551,2.797-8.237,6.253-8.237c3.455,0,6.253,3.687,6.253,8.237
			C1428.957,1306.831,1426.159,1310.522,1422.704,1310.522 M1422.704,1285.996c-3.456,0-6.253-3.69-6.253-8.242
			c0-4.551,2.797-8.237,6.253-8.237c3.455,0,6.253,3.687,6.253,8.237C1428.957,1282.305,1426.159,1285.996,1422.704,1285.996
			 M1422.704,1261.472c-3.456,0-6.253-3.689-6.253-8.24c0-4.549,2.797-8.242,6.253-8.242c3.455,0,6.253,3.693,6.253,8.242
			C1428.957,1257.783,1426.159,1261.472,1422.704,1261.472 M1444.325,1410.27c-3.454,0-6.256-3.686-6.256-8.237
			c0-4.551,2.802-8.239,6.256-8.239c3.453,0,6.254,3.688,6.254,8.239C1450.579,1406.584,1447.778,1410.27,1444.325,1410.27
			 M1444.325,1385.746c-3.454,0-6.256-3.688-6.256-8.237c0-4.552,2.802-8.242,6.256-8.242c3.453,0,6.254,3.69,6.254,8.242
			C1450.579,1382.057,1447.778,1385.746,1444.325,1385.746 M1444.325,1361.224c-3.454,0-6.256-3.691-6.256-8.241
			c0-4.552,2.802-8.239,6.256-8.239c3.453,0,6.254,3.688,6.254,8.239C1450.579,1357.533,1447.778,1361.224,1444.325,1361.224
			 M1444.325,1335.043c-3.454,0-6.256-3.688-6.256-8.238s2.802-8.243,6.256-8.243c3.453,0,6.254,3.693,6.254,8.243
			S1447.778,1335.043,1444.325,1335.043 M1444.325,1310.522c-3.454,0-6.256-3.691-6.256-8.243c0-4.551,2.802-8.237,6.256-8.237
			c3.453,0,6.254,3.687,6.254,8.237C1450.579,1306.831,1447.778,1310.522,1444.325,1310.522 M1444.325,1285.996
			c-3.454,0-6.256-3.69-6.256-8.242c0-4.551,2.802-8.237,6.256-8.237c3.453,0,6.254,3.687,6.254,8.237
			C1450.579,1282.305,1447.778,1285.996,1444.325,1285.996 M1444.325,1261.472c-3.454,0-6.256-3.689-6.256-8.24
			c0-4.549,2.802-8.242,6.256-8.242c3.453,0,6.254,3.693,6.254,8.242C1450.579,1257.783,1447.778,1261.472,1444.325,1261.472
			 M1464.909,1410.27c-3.454,0-6.255-3.686-6.255-8.237c0-4.551,2.801-8.239,6.255-8.239s6.253,3.688,6.253,8.239
			C1471.162,1406.584,1468.363,1410.27,1464.909,1410.27 M1464.909,1385.746c-3.454,0-6.255-3.688-6.255-8.237
			c0-4.552,2.801-8.242,6.255-8.242s6.253,3.69,6.253,8.242C1471.162,1382.057,1468.363,1385.746,1464.909,1385.746
			 M1464.909,1361.224c-3.454,0-6.255-3.691-6.255-8.241c0-4.552,2.801-8.239,6.255-8.239s6.253,3.688,6.253,8.239
			C1471.162,1357.533,1468.363,1361.224,1464.909,1361.224 M1464.909,1335.043c-3.454,0-6.255-3.688-6.255-8.238
			s2.801-8.243,6.255-8.243s6.253,3.693,6.253,8.243S1468.363,1335.043,1464.909,1335.043 M1464.909,1310.522
			c-3.454,0-6.255-3.691-6.255-8.243c0-4.551,2.801-8.237,6.255-8.237s6.253,3.687,6.253,8.237
			C1471.162,1306.831,1468.363,1310.522,1464.909,1310.522 M1464.909,1285.996c-3.454,0-6.255-3.69-6.255-8.242
			c0-4.551,2.801-8.237,6.255-8.237s6.253,3.687,6.253,8.237C1471.162,1282.305,1468.363,1285.996,1464.909,1285.996
			 M1464.909,1261.472c-3.454,0-6.255-3.689-6.255-8.24c0-4.549,2.801-8.242,6.255-8.242s6.253,3.693,6.253,8.242
			C1471.162,1257.783,1468.363,1261.472,1464.909,1261.472 M1485.493,1410.27c-3.455,0-6.254-3.686-6.254-8.237
			c0-4.551,2.799-8.239,6.254-8.239c3.453,0,6.254,3.688,6.254,8.239C1491.747,1406.584,1488.946,1410.27,1485.493,1410.27
			 M1485.493,1385.746c-3.455,0-6.254-3.688-6.254-8.237c0-4.552,2.799-8.242,6.254-8.242c3.453,0,6.254,3.69,6.254,8.242
			C1491.747,1382.057,1488.946,1385.746,1485.493,1385.746 M1485.493,1361.224c-3.455,0-6.254-3.691-6.254-8.241
			c0-4.552,2.799-8.239,6.254-8.239c3.453,0,6.254,3.688,6.254,8.239C1491.747,1357.533,1488.946,1361.224,1485.493,1361.224
			 M1485.493,1335.043c-3.455,0-6.254-3.688-6.254-8.238s2.799-8.243,6.254-8.243c3.453,0,6.254,3.693,6.254,8.243
			S1488.946,1335.043,1485.493,1335.043 M1485.493,1310.522c-3.455,0-6.254-3.691-6.254-8.243c0-4.551,2.799-8.237,6.254-8.237
			c3.453,0,6.254,3.687,6.254,8.237C1491.747,1306.831,1488.946,1310.522,1485.493,1310.522 M1485.493,1285.996
			c-3.455,0-6.254-3.69-6.254-8.242c0-4.551,2.799-8.237,6.254-8.237c3.453,0,6.254,3.687,6.254,8.237
			C1491.747,1282.305,1488.946,1285.996,1485.493,1285.996 M1485.493,1261.472c-3.455,0-6.254-3.689-6.254-8.24
			c0-4.549,2.799-8.242,6.254-8.242c3.453,0,6.254,3.693,6.254,8.242C1491.747,1257.783,1488.946,1261.472,1485.493,1261.472
			 M1506.076,1410.27c-3.453,0-6.254-3.686-6.254-8.237c0-4.551,2.801-8.239,6.254-8.239c3.456,0,6.257,3.688,6.257,8.239
			C1512.333,1406.584,1509.532,1410.27,1506.076,1410.27 M1506.076,1385.746c-3.453,0-6.254-3.688-6.254-8.237
			c0-4.552,2.801-8.242,6.254-8.242c3.456,0,6.257,3.69,6.257,8.242C1512.333,1382.057,1509.532,1385.746,1506.076,1385.746
			 M1506.076,1361.224c-3.453,0-6.254-3.691-6.254-8.241c0-4.552,2.801-8.239,6.254-8.239c3.456,0,6.257,3.688,6.257,8.239
			C1512.333,1357.533,1509.532,1361.224,1506.076,1361.224 M1506.076,1335.043c-3.453,0-6.254-3.688-6.254-8.238
			s2.801-8.243,6.254-8.243c3.456,0,6.257,3.693,6.257,8.243S1509.532,1335.043,1506.076,1335.043 M1506.076,1310.522
			c-3.453,0-6.254-3.691-6.254-8.243c0-4.551,2.801-8.237,6.254-8.237c3.456,0,6.257,3.687,6.257,8.237
			C1512.333,1306.831,1509.532,1310.522,1506.076,1310.522 M1506.076,1285.996c-3.453,0-6.254-3.69-6.254-8.242
			c0-4.551,2.801-8.237,6.254-8.237c3.456,0,6.257,3.687,6.257,8.237C1512.333,1282.305,1509.532,1285.996,1506.076,1285.996
			 M1506.076,1261.472c-3.453,0-6.254-3.689-6.254-8.24c0-4.549,2.801-8.242,6.254-8.242c3.456,0,6.257,3.693,6.257,8.242
			C1512.333,1257.783,1509.532,1261.472,1506.076,1261.472 M1526.662,1410.27c-3.452,0-6.256-3.686-6.256-8.237
			c0-4.551,2.804-8.239,6.256-8.239c3.454,0,6.253,3.688,6.253,8.239C1532.915,1406.584,1530.116,1410.27,1526.662,1410.27
			 M1526.662,1385.746c-3.452,0-6.256-3.688-6.256-8.237c0-4.552,2.804-8.242,6.256-8.242c3.454,0,6.253,3.69,6.253,8.242
			C1532.915,1382.057,1530.116,1385.746,1526.662,1385.746 M1526.662,1361.224c-3.452,0-6.256-3.691-6.256-8.241
			c0-4.552,2.804-8.239,6.256-8.239c3.454,0,6.253,3.688,6.253,8.239C1532.915,1357.533,1530.116,1361.224,1526.662,1361.224
			 M1526.662,1335.043c-3.452,0-6.256-3.688-6.256-8.238s2.804-8.243,6.256-8.243c3.454,0,6.253,3.693,6.253,8.243
			S1530.116,1335.043,1526.662,1335.043 M1526.662,1310.522c-3.452,0-6.256-3.691-6.256-8.243c0-4.551,2.804-8.237,6.256-8.237
			c3.454,0,6.253,3.687,6.253,8.237C1532.915,1306.831,1530.116,1310.522,1526.662,1310.522 M1526.662,1285.996
			c-3.452,0-6.256-3.69-6.256-8.242c0-4.551,2.804-8.237,6.256-8.237c3.454,0,6.253,3.687,6.253,8.237
			C1532.915,1282.305,1530.116,1285.996,1526.662,1285.996 M1526.662,1261.472c-3.452,0-6.256-3.689-6.256-8.24
			c0-4.549,2.804-8.242,6.256-8.242c3.454,0,6.253,3.693,6.253,8.242C1532.915,1257.783,1530.116,1261.472,1526.662,1261.472
			 M1547.245,1410.27c-3.454,0-6.253-3.686-6.253-8.237c0-4.551,2.799-8.239,6.253-8.239c3.455,0,6.254,3.688,6.254,8.239
			C1553.499,1406.584,1550.7,1410.27,1547.245,1410.27 M1547.245,1385.746c-3.454,0-6.253-3.688-6.253-8.237
			c0-4.552,2.799-8.242,6.253-8.242c3.455,0,6.254,3.69,6.254,8.242C1553.499,1382.057,1550.7,1385.746,1547.245,1385.746
			 M1547.245,1361.224c-3.454,0-6.253-3.691-6.253-8.241c0-4.552,2.799-8.239,6.253-8.239c3.455,0,6.254,3.688,6.254,8.239
			C1553.499,1357.533,1550.7,1361.224,1547.245,1361.224 M1547.245,1335.043c-3.454,0-6.253-3.688-6.253-8.238
			s2.799-8.243,6.253-8.243c3.455,0,6.254,3.693,6.254,8.243S1550.7,1335.043,1547.245,1335.043 M1547.245,1310.522
			c-3.454,0-6.253-3.691-6.253-8.243c0-4.551,2.799-8.237,6.253-8.237c3.455,0,6.254,3.687,6.254,8.237
			C1553.499,1306.831,1550.7,1310.522,1547.245,1310.522 M1547.245,1285.996c-3.454,0-6.253-3.69-6.253-8.242
			c0-4.551,2.799-8.237,6.253-8.237c3.455,0,6.254,3.687,6.254,8.237C1553.499,1282.305,1550.7,1285.996,1547.245,1285.996
			 M1547.245,1261.472c-3.454,0-6.253-3.689-6.253-8.24c0-4.549,2.799-8.242,6.253-8.242c3.455,0,6.254,3.693,6.254,8.242
			C1553.499,1257.783,1550.7,1261.472,1547.245,1261.472 M1567.829,1410.27c-3.454,0-6.253-3.686-6.253-8.237
			c0-4.551,2.799-8.239,6.253-8.239c3.456,0,6.255,3.688,6.255,8.239C1574.084,1406.584,1571.285,1410.27,1567.829,1410.27
			 M1567.829,1385.746c-3.454,0-6.253-3.688-6.253-8.237c0-4.552,2.799-8.242,6.253-8.242c3.456,0,6.255,3.69,6.255,8.242
			C1574.084,1382.057,1571.285,1385.746,1567.829,1385.746 M1567.829,1361.224c-3.454,0-6.253-3.691-6.253-8.241
			c0-4.552,2.799-8.239,6.253-8.239c3.456,0,6.255,3.688,6.255,8.239C1574.084,1357.533,1571.285,1361.224,1567.829,1361.224
			 M1567.829,1335.043c-3.454,0-6.253-3.688-6.253-8.238s2.799-8.243,6.253-8.243c3.456,0,6.255,3.693,6.255,8.243
			S1571.285,1335.043,1567.829,1335.043 M1567.829,1310.522c-3.454,0-6.253-3.691-6.253-8.243c0-4.551,2.799-8.237,6.253-8.237
			c3.456,0,6.255,3.687,6.255,8.237C1574.084,1306.831,1571.285,1310.522,1567.829,1310.522 M1567.829,1285.996
			c-3.454,0-6.253-3.69-6.253-8.242c0-4.551,2.799-8.237,6.253-8.237c3.456,0,6.255,3.687,6.255,8.237
			C1574.084,1282.305,1571.285,1285.996,1567.829,1285.996 M1567.829,1261.472c-3.454,0-6.253-3.689-6.253-8.24
			c0-4.549,2.799-8.242,6.253-8.242c3.456,0,6.255,3.693,6.255,8.242C1574.084,1257.783,1571.285,1261.472,1567.829,1261.472"/>
	</g>
	<g clip-path="url(#SVGID_2_)">
		<defs>
			<polyline id="SVGID_17_" points="0,1384.243 0,-140.757 1600,-140.757 1600,1384.243 			"/>
		</defs>
		<clipPath id="SVGID_18_">
			<use xlink:href="#SVGID_17_"  overflow="visible"/>
		</clipPath>
	</g>
	<g clip-path="url(#SVGID_2_)">
	</g>
	<g clip-path="url(#SVGID_2_)">
		<defs>
			<polyline id="SVGID_19_" points="0,1384.243 0,-140.757 1600,-140.757 1600,1384.243 			"/>
		</defs>
		<clipPath id="SVGID_20_">
			<use xlink:href="#SVGID_19_"  overflow="visible"/>
		</clipPath>
	</g>
	<g clip-path="url(#SVGID_2_)">
		<defs>
			<rect id="SVGID_21_" x="133.611" y="643.56" width="318.425" height="206.413"/>
		</defs>
		<clipPath id="SVGID_22_">
			<use xlink:href="#SVGID_21_"  overflow="visible"/>
		</clipPath>
		<g clip-path="url(#SVGID_22_)">
			<defs>
				<rect id="SVGID_23_" x="66.958" y="635.543" width="396.16" height="222.447"/>
			</defs>
			<clipPath id="SVGID_24_">
				<use xlink:href="#SVGID_23_"  overflow="visible"/>
			</clipPath>
		</g>
	</g>
	<g clip-path="url(#SVGID_2_)">
		<defs>
			<polyline id="SVGID_25_" points="0,1384.243 0,-140.757 1600,-140.757 1600,1384.243 			"/>
		</defs>
		<clipPath id="SVGID_26_">
			<use xlink:href="#SVGID_25_"  overflow="visible"/>
		</clipPath>
	</g>
	<g clip-path="url(#SVGID_2_)">
	</g>
	<g clip-path="url(#SVGID_2_)">
		<defs>
			<polyline id="SVGID_27_" points="0,1384.243 0,-140.757 1600,-140.757 1600,1384.243 			"/>
		</defs>
		<clipPath id="SVGID_28_">
			<use xlink:href="#SVGID_27_"  overflow="visible"/>
		</clipPath>
	</g>
	<g clip-path="url(#SVGID_2_)">
		<defs>
			<polyline id="SVGID_29_" points="0,1384.243 0,-140.757 1600,-140.757 1600,1384.243 			"/>
		</defs>
		<clipPath id="SVGID_30_">
			<use xlink:href="#SVGID_29_"  overflow="visible"/>
		</clipPath>
	</g>
	<g clip-path="url(#SVGID_2_)">
		<defs>
			<polyline id="SVGID_31_" points="0,1384.243 0,-140.757 1600,-140.757 1600,1384.243 			"/>
		</defs>
		<clipPath id="SVGID_32_">
			<use xlink:href="#SVGID_31_"  overflow="visible"/>
		</clipPath>
	</g>
	<g clip-path="url(#SVGID_2_)">
		<defs>
			<polyline id="SVGID_33_" points="0,1384.243 0,-140.757 1600,-140.757 1600,1384.243 			"/>
		</defs>
		<clipPath id="SVGID_34_">
			<use xlink:href="#SVGID_33_"  overflow="visible"/>
		</clipPath>
	</g>
	<g clip-path="url(#SVGID_2_)">
		<defs>
			<polyline id="SVGID_35_" points="0,1384.243 0,-140.757 1600,-140.757 1600,1384.243 			"/>
		</defs>
		<clipPath id="SVGID_36_">
			<use xlink:href="#SVGID_35_"  overflow="visible"/>
		</clipPath>
		<rect x="-3" y="812.132" clip-path="url(#SVGID_36_)" fill="#4B2B7F" width="67.492" height="100.252"/>
		<polygon clip-path="url(#SVGID_36_)" fill="#14ADE3" points="36.911,815.189 64.492,815.189 50.701,839.387 36.911,863.587 
			23.121,839.387 9.33,815.189 		"/>
		<polygon clip-path="url(#SVGID_36_)" fill="#14ADE3" points="36.911,863.688 64.492,863.688 50.701,887.888 36.911,912.085 
			23.121,887.888 9.33,863.688 		"/>
		<rect x="0.999" y="598.561" clip-path="url(#SVGID_36_)" fill="#F9C223" width="59.511" height="21.175"/>
		<rect x="1" y="628.865" clip-path="url(#SVGID_36_)" fill="#F9C223" width="59.509" height="21.175"/>
		<rect x="1" y="659.167" clip-path="url(#SVGID_36_)" fill="#F9C223" width="59.509" height="21.178"/>
		<rect x="1" y="689.471" clip-path="url(#SVGID_36_)" fill="#F9C223" width="59.509" height="21.176"/>
	</g>
	<g clip-path="url(#SVGID_2_)">
		<defs>
			<polyline id="SVGID_37_" points="0,1384.243 0,-140.757 1600,-140.757 1600,1384.243 			"/>
		</defs>
		<clipPath id="SVGID_38_">
			<use xlink:href="#SVGID_37_"  overflow="visible"/>
		</clipPath>
	</g>
	<g clip-path="url(#SVGID_2_)">
	</g>
</g>
</svg>
