<?xml version="1.0" encoding="utf-8"?>
<!-- Generator: Adobe Illustrator 16.0.0, SVG Export Plug-In . SVG Version: 6.00 Build 0)  -->
<!DOCTYPE svg PUBLIC "-//W3C//DTD SVG 1.1//EN" "http://www.w3.org/Graphics/SVG/1.1/DTD/svg11.dtd">
<svg version="1.1" id="Layer_1" xmlns="http://www.w3.org/2000/svg" xmlns:xlink="http://www.w3.org/1999/xlink" x="0px" y="0px"
	 width="183.446px" height="34.459px" viewBox="0 0 183.446 34.459" enable-background="new 0 0 183.446 34.459"
	 xml:space="preserve">
<polygon fill="#17ADE4" points="156.604,20.301 149.498,20.301 153.052,14.147 156.604,7.993 160.157,14.147 163.708,20.301 "/>
<polygon fill="#4C2D7F" points="102.019,20.301 94.913,20.301 98.466,14.147 102.019,7.993 105.571,14.147 109.123,20.301 "/>
<path fill="#17ADE4" d="M27.401,17.479v-0.077c0-7.892,6.227-14.358,14.792-14.358c8.568,0,14.715,6.386,14.715,14.277v0.081
	c0,7.892-6.226,14.357-14.794,14.357C33.549,31.759,27.401,25.374,27.401,17.479 M50.523,17.479v-0.077
	c0-4.76-3.491-8.727-8.409-8.727c-4.914,0-8.328,3.888-8.328,8.646v0.081c0,4.758,3.491,8.724,8.407,8.724
	C47.113,26.126,50.523,22.24,50.523,17.479"/>
<polygon fill="#E22F2D" points="60.479,3.519 66.112,3.519 79.117,20.613 79.117,3.519 85.146,3.519 85.146,31.283 79.951,31.283 
	66.506,13.635 66.506,31.283 60.479,31.283 "/>
<path fill="#F8C224" d="M99.204,3.321h5.631l11.896,27.962h-6.385H93.53h-6.229L99.204,3.321z M105.628,19.662l-3.688-9.003
	l-3.69,9.003H105.628z"/>
<path fill="#4C2D7F" d="M153.788,3.321h5.631l11.9,27.962h-6.388h-16.813h-6.229L153.788,3.321z M160.215,19.662l-3.69-9.003
	l-3.688,9.003H160.215z"/>
<rect x="173.835" y="3.519" fill="#C54891" width="6.108" height="27.764"/>
<rect x="173.835" y="3.519" fill="#F8C224" width="6.108" height="8.62"/>
<path fill="#E22F2D" d="M52.228,17.402c0,5.563-4.508,10.073-10.071,10.073c-5.564,0-10.075-4.51-10.075-10.073
	c0-5.564,4.511-10.075,10.075-10.075C47.72,7.327,52.228,11.838,52.228,17.402"/>
<path fill="#F8C224" d="M45.052,17.402c0,1.6-1.297,2.899-2.897,2.899c-1.6,0-2.899-1.299-2.899-2.899c0-1.603,1.299-2.9,2.899-2.9
	C43.755,14.502,45.052,15.799,45.052,17.402"/>
<polygon fill="#E22F2D" points="60.479,31.283 85.146,31.283 79.809,23.623 66.243,12.139 62.088,28.219 "/>
<rect x="79.118" y="3.518" fill="#C54891" width="6.029" height="27.764"/>
<path fill="#4C2D7F" d="M1.227,17.402v0.077c0,7.803,5.812,14.006,13.718,14.266V3.061C6.823,3.433,1.227,9.744,1.227,17.402"/>
<rect x="14.962" y="3.061" fill="#C54891" width="4.245" height="28.684"/>
<rect x="19.226" y="3.061" fill="#17ADE4" width="5.703" height="9.079"/>
<rect x="19.228" y="22.667" fill="#17ADE4" width="5.701" height="9.078"/>
<path fill="#17ADE4" d="M115.37,17.402v0.077c0,7.803,5.812,14.006,13.717,14.266V3.061C120.966,3.433,115.37,9.744,115.37,17.402"
	/>
<rect x="129.105" y="3.061" fill="#4C2D7F" width="4.245" height="28.684"/>
<rect x="133.37" y="3.061" fill="#E22F2D" width="5.703" height="9.078"/>
<rect x="133.37" y="22.667" fill="#E22F2D" width="5.703" height="9.078"/>
</svg>
