<?xml version="1.0" encoding="utf-8"?>
<!-- Generator: Adobe Illustrator 16.0.0, SVG Export Plug-In . SVG Version: 6.00 Build 0)  -->
<!DOCTYPE svg PUBLIC "-//W3C//DTD SVG 1.1//EN" "http://www.w3.org/Graphics/SVG/1.1/DTD/svg11.dtd">
<svg version="1.1" id="Layer_1" xmlns="http://www.w3.org/2000/svg" xmlns:xlink="http://www.w3.org/1999/xlink" x="0px" y="0px"
	 width="200px" height="44.231px" viewBox="0 0 200 44.231" enable-background="new 0 0 200 44.231" xml:space="preserve">
<polygon fill="#0378BF" points="18.347,28.948 20.735,32.313 14.54,41.985 "/>
<polygon fill="#148DCE" points="32.778,25.487 18.347,28.948 20.735,32.313 "/>
<polygon fill="#05B2E5" points="25.028,4.047 18.347,28.948 32.778,25.487 "/>
<polygon fill="#51BCEA" points="14.54,41.985 18.347,28.948 11.266,30.756 "/>
<polygon fill="#1A9AD7" points="18.347,28.948 25.028,4.046 13.857,9.927 "/>
<polygon fill="#1A9AD7" points="-0.026,10.494 11.266,30.757 18.347,28.948 "/>
<polygon fill="#73C5EC" points="-0.026,10.494 18.347,28.948 13.858,9.927 "/>
<polygon fill="#FFFFFF" points="45.471,12.198 61.686,12.198 61.686,14.502 48.001,14.502 48.001,22.165 60.245,22.165 
	60.245,24.473 48.001,24.473 48.001,32.328 61.847,32.328 61.847,34.633 45.471,34.633 "/>
<polygon fill="#FFFFFF" points="69.346,12.198 71.718,12.198 85.852,30.178 85.852,12.198 88.319,12.198 88.319,34.633 
	86.301,34.633 71.815,16.239 71.815,34.633 69.346,34.633 "/>
<path fill="#FFFFFF" d="M111.617,26.396l-5.093-11.41l-5.128,11.41H111.617z M105.367,12.037h2.375l10.219,22.595h-2.721
	l-2.628-5.929h-12.207l-2.662,5.929h-2.595L105.367,12.037z"/>
<polygon fill="#FFFFFF" points="178.541,12.198 181.104,12.198 189.273,24.441 197.445,12.198 200.01,12.198 200.01,34.633 
	197.479,34.633 197.479,16.458 189.31,28.479 189.18,28.479 181.009,16.493 181.009,34.633 178.541,34.633 "/>
<path fill="#FFFFFF" d="M122.487,23.479v-0.066c0-6.343,4.741-11.599,11.344-11.599c4.07,0,6.505,1.442,8.744,3.555l-1.726,1.864
	c-1.893-1.798-4.006-3.085-7.051-3.085c-4.967,0-8.684,4.046-8.684,9.203v0.063c0,5.195,3.746,9.268,8.684,9.268
	c3.073,0,5.096-1.19,7.241-3.24l1.668,1.635c-2.345,2.372-4.903,3.939-8.973,3.939C127.262,35.014,122.487,29.918,122.487,23.479"/>
<path fill="#FFFFFF" d="M168.156,23.479v-0.066c0-5.096-3.723-9.265-8.851-9.265c-5.125,0-8.778,4.108-8.778,9.203v0.063
	c0,5.098,3.721,9.268,8.846,9.268C164.501,32.68,168.156,28.576,168.156,23.479 M147.9,23.479v-0.066
	c0-6.18,4.649-11.599,11.473-11.599c6.822,0,11.406,5.349,11.406,11.537v0.063c0,6.186-4.646,11.602-11.474,11.602
	C152.482,35.014,147.9,29.665,147.9,23.479"/>
</svg>
