<?xml version="1.0" encoding="utf-8"?>
<!-- Generator: Adobe Illustrator 16.0.0, SVG Export Plug-In . SVG Version: 6.00 Build 0)  -->
<!DOCTYPE svg PUBLIC "-//W3C//DTD SVG 1.1//EN" "http://www.w3.org/Graphics/SVG/1.1/DTD/svg11.dtd">
<svg version="1.1" id="Layer_1" xmlns="http://www.w3.org/2000/svg" xmlns:xlink="http://www.w3.org/1999/xlink" x="0px" y="0px"
	 width="630px" height="55px" viewBox="0 0 630 55" enable-background="new 0 0 630 55" xml:space="preserve">
<polygon fill="#17ADE4" points="252.21,32.983 240.836,32.983 246.525,23.134 252.21,13.284 257.899,23.134 263.581,32.983 "/>
<polygon fill="#4C2D7F" points="164.838,32.983 153.464,32.983 159.149,23.134 164.838,13.284 170.523,23.134 176.208,32.983 "/>
<path fill="#17ADE4" d="M45.402,28.467v-0.123c0-12.633,9.966-22.983,23.677-22.983c13.714,0,23.553,10.223,23.553,22.854v0.129
	c0,12.633-9.966,22.98-23.68,22.98C55.241,51.324,45.402,41.104,45.402,28.467 M82.412,28.467v-0.123
	c0-7.619-5.587-13.969-13.46-13.969c-7.866,0-13.33,6.223-13.33,13.84v0.129c0,7.615,5.588,13.964,13.457,13.964
	C76.952,42.308,82.412,36.088,82.412,28.467"/>
<polygon fill="#E22F2D" points="98.346,6.121 107.362,6.121 128.18,33.482 128.18,6.121 137.832,6.121 137.832,50.563 
	129.515,50.563 107.993,22.313 107.993,50.563 98.346,50.563 "/>
<path fill="#F8C224" d="M160.333,5.803h9.012l19.044,44.758h-10.22h-26.917h-9.97L160.333,5.803z M170.614,31.963l-5.903-14.414
	l-5.906,14.414H170.614z"/>
<path fill="#4C2D7F" d="M247.704,5.803h9.012l19.048,44.758H265.54h-26.913h-9.97L247.704,5.803z M257.99,31.963l-5.907-14.414
	l-5.903,14.414H257.99z"/>
<rect x="279.791" y="6.121" fill="#C54891" width="9.778" height="44.441"/>
<rect x="279.791" y="6.121" fill="#F8C224" width="9.778" height="13.798"/>
<path fill="#E22F2D" d="M85.14,28.344c0,8.904-7.216,16.123-16.12,16.123c-8.907,0-16.127-7.219-16.127-16.123
	c0-8.907,7.22-16.127,16.127-16.127C77.924,12.216,85.14,19.437,85.14,28.344"/>
<path fill="#F8C224" d="M73.653,28.344c0,2.561-2.075,4.64-4.637,4.64c-2.561,0-4.64-2.079-4.64-4.64
	c0-2.565,2.079-4.643,4.64-4.643C71.579,23.701,73.653,25.778,73.653,28.344"/>
<polygon fill="#E22F2D" points="98.346,50.563 137.832,50.563 129.286,38.303 107.572,19.919 100.922,45.656 "/>
<rect x="128.18" y="6.121" fill="#C54891" width="9.651" height="44.441"/>
<path fill="#4C2D7F" d="M3.504,28.344v0.123c0,12.49,9.302,22.418,21.957,22.836V5.388C12.462,5.983,3.504,16.085,3.504,28.344"/>
<rect x="25.49" y="5.388" fill="#C54891" width="6.796" height="45.914"/>
<rect x="32.315" y="5.389" fill="#17ADE4" width="9.128" height="14.532"/>
<rect x="32.318" y="36.771" fill="#17ADE4" width="9.125" height="14.53"/>
<path fill="#17ADE4" d="M186.208,28.344v0.123c0,12.49,9.302,22.418,21.957,22.836V5.388
	C195.166,5.983,186.208,16.085,186.208,28.344"/>
<rect x="208.195" y="5.388" fill="#4C2D7F" width="6.795" height="45.914"/>
<rect x="215.023" y="5.389" fill="#E22F2D" width="9.128" height="14.53"/>
<rect x="215.023" y="36.771" fill="#E22F2D" width="9.128" height="14.53"/>
<text transform="matrix(1 0 0 1 336.2285 24.0991)"><tspan x="0" y="0" fill="#4C2D7F" font-family="'EncodeSans-SemiBold'" font-size="19.5983">C</tspan><tspan x="10.975" y="0" fill="#4C2D7F" font-family="'EncodeSans-SemiBold'" font-size="19.5983">onsejo Asesor de la </tspan><tspan x="171.776" y="0" fill="#4C2D7F" font-family="'EncodeSans-SemiBold'" font-size="19.5983">C</tspan><tspan x="182.751" y="0" fill="#4C2D7F" font-family="'EncodeSans-SemiBold'" font-size="19.5983">omunica</tspan><tspan x="254.344" y="0" fill="#4C2D7F" font-family="'EncodeSans-SemiBold'" font-size="19.5983">c</tspan><tspan x="263.24" y="0" fill="#4C2D7F" font-family="'EncodeSans-SemiBold'" font-size="19.5983">ión</tspan></text>
<text transform="matrix(1 0 0 1 336.2285 47.6172)"><tspan x="0" y="0" fill="#4C2D7F" font-family="'EncodeSans-SemiBold'" font-size="19.5983">Audi</tspan><tspan x="38.432" y="0" fill="#4C2D7F" font-family="'EncodeSans-SemiBold'" font-size="19.5983">o</tspan><tspan x="48.956" y="0" fill="#4C2D7F" font-family="'EncodeSans-SemiBold'" font-size="19.5983">visual y la In</tspan><tspan x="146.926" y="0" fill="#4C2D7F" font-family="'EncodeSans-SemiBold'" font-size="19.5983">f</tspan><tspan x="152.414" y="0" fill="#4C2D7F" font-family="'EncodeSans-SemiBold'" font-size="19.5983">an</tspan><tspan x="172.736" y="0" fill="#4C2D7F" font-family="'EncodeSans-SemiBold'" font-size="19.5983">c</tspan><tspan x="181.635" y="0" fill="#4C2D7F" font-family="'EncodeSans-SemiBold'" font-size="19.5983">ia</tspan></text>
<line fill="none" stroke="#535352" stroke-width="3.753" stroke-miterlimit="10" x1="314.131" y1="6.121" x2="314.131" y2="50.563"/>
</svg>
