<?xml version="1.0" encoding="utf-8"?>
<!-- Generator: Adobe Illustrator 16.0.0, SVG Export Plug-In . SVG Version: 6.00 Build 0)  -->
<!DOCTYPE svg PUBLIC "-//W3C//DTD SVG 1.1//EN" "http://www.w3.org/Graphics/SVG/1.1/DTD/svg11.dtd">
<svg version="1.1" id="Layer_1" xmlns="http://www.w3.org/2000/svg" xmlns:xlink="http://www.w3.org/1999/xlink" x="0px" y="0px"
	 width="216.217px" height="33.107px" viewBox="0 0 216.217 33.107" enable-background="new 0 0 216.217 33.107"
	 xml:space="preserve">
<path fill="#FFFFFF" d="M18.753,23.846l-1.772-5.43c-0.061-0.188-0.235-0.313-0.431-0.313H8.993c-0.196,0-0.369,0.125-0.43,0.313
	l-1.772,5.43c-0.061,0.186-0.234,0.313-0.43,0.313H3.596c-0.31,0-0.528-0.305-0.429-0.598L9.939,3.434
	c0.062-0.186,0.235-0.31,0.43-0.31h4.835c0.194,0,0.367,0.124,0.429,0.31l6.772,20.127c0.099,0.293-0.119,0.598-0.429,0.598h-2.793
	C18.987,24.159,18.814,24.032,18.753,23.846 M10.269,15.063h4.99c0.308,0,0.527-0.301,0.431-0.594L13.189,6.83
	c-0.136-0.417-0.725-0.416-0.861,0l-2.49,7.64C9.743,14.762,9.961,15.063,10.269,15.063"/>
<path fill="#FFFFFF" d="M25.177,8.653h2.224c0.225,0,0.417,0.166,0.448,0.39l0.229,1.628h0.199c0.455-0.729,1.054-1.279,1.798-1.647
	c0.744-0.37,1.561-0.556,2.451-0.556c0.277,0,0.556,0.016,0.837,0.046c0.228,0.025,0.4,0.227,0.4,0.456v2.469
	c0,0.266-0.224,0.473-0.489,0.448c-0.278-0.023-0.599-0.036-0.961-0.036c-0.739,0-1.466,0.151-2.181,0.454
	c-0.659,0.28-1.188,0.668-1.586,1.165c-0.065,0.081-0.099,0.187-0.099,0.291v9.945c0,0.25-0.202,0.453-0.452,0.453h-2.818
	c-0.25,0-0.453-0.203-0.453-0.453V9.106C24.724,8.856,24.927,8.653,25.177,8.653"/>
<path fill="#FFFFFF" d="M38.274,30.532c-0.74-0.092-1.441-0.227-2.102-0.398c-0.2-0.053-0.335-0.236-0.335-0.441v-2.018
	c0-0.297,0.282-0.508,0.57-0.434c1.448,0.371,2.827,0.555,4.134,0.555c1.061,0,1.924-0.135,2.587-0.404
	c0.662-0.27,1.153-0.703,1.471-1.301c0.317-0.596,0.476-1.383,0.476-2.357V22.51H44.89c-0.483,0.559-1.073,0.994-1.769,1.307
	c-0.697,0.313-1.481,0.469-2.352,0.469c-1.109,0-2.114-0.268-3.014-0.803c-0.899-0.535-1.62-1.369-2.16-2.5
	c-0.54-1.133-0.81-2.553-0.81-4.258c0-2.728,0.711-4.794,2.132-6.195c1.421-1.402,3.534-2.108,6.339-2.118
	c0.928,0,1.89,0.071,2.885,0.214c0.862,0.123,1.641,0.288,2.339,0.497c0.192,0.057,0.318,0.236,0.318,0.436v13.507
	c0,1.791-0.291,3.246-0.874,4.369s-1.461,1.947-2.636,2.473c-1.175,0.525-2.668,0.789-4.477,0.789
	C39.987,30.696,39.141,30.641,38.274,30.532 M43.746,20.918c0.467-0.186,0.868-0.453,1.204-0.803
	c0.082-0.084,0.125-0.201,0.125-0.32V11.9c0-0.219-0.157-0.412-0.371-0.452c-0.594-0.111-1.18-0.166-1.761-0.166
	c-1.469,0-2.571,0.408-3.304,1.222c-0.735,0.815-1.102,2.113-1.102,3.895c0,1.772,0.308,3.02,0.924,3.745
	c0.616,0.725,1.497,1.088,2.643,1.088C42.673,21.231,43.22,21.125,43.746,20.918"/>
<path fill="#FFFFFF" d="M64.632,17.52H55.98c-0.273,0-0.478,0.242-0.449,0.514c0.08,0.768,0.257,1.395,0.53,1.883
	c0.331,0.592,0.843,1.02,1.534,1.285c0.692,0.266,1.616,0.398,2.772,0.398c0.99,0,2.102-0.137,3.337-0.41
	c0.284-0.063,0.557,0.148,0.557,0.439v1.895c0,0.215-0.148,0.402-0.355,0.449c-1.366,0.313-2.716,0.469-4.051,0.469
	c-1.848,0-3.366-0.279-4.555-0.838s-2.077-1.428-2.665-2.607c-0.587-1.18-0.881-2.713-0.881-4.598c0-1.733,0.27-3.197,0.811-4.392
	c0.539-1.194,1.322-2.091,2.344-2.693c1.024-0.601,2.26-0.902,3.71-0.902c2.112,0,3.718,0.68,4.818,2.04
	c1.099,1.359,1.648,3.38,1.648,6.062v0.556C65.085,17.319,64.882,17.52,64.632,17.52 M56.302,11.865
	c-0.468,0.612-0.737,1.597-0.808,2.951c-0.013,0.257,0.197,0.474,0.454,0.474h5.185c0.257,0,0.467-0.216,0.455-0.474
	c-0.069-1.354-0.327-2.339-0.774-2.951c-0.497-0.683-1.238-1.023-2.223-1.023C57.586,10.842,56.823,11.183,56.302,11.865"/>
<path fill="#FFFFFF" d="M68.309,8.653h2.243c0.224,0,0.414,0.162,0.448,0.383l0.196,1.251h0.199c0.588-0.606,1.281-1.07,2.082-1.392
	c0.801-0.322,1.655-0.484,2.565-0.484c1.601,0,2.866,0.472,3.795,1.415c0.929,0.941,1.393,2.432,1.393,4.469v9.411
	c0,0.25-0.203,0.453-0.453,0.453h-2.818c-0.25,0-0.453-0.203-0.453-0.453v-9.198c0-1.032-0.218-1.769-0.654-2.209
	c-0.435-0.44-1.07-0.661-1.904-0.661c-0.625,0-1.241,0.13-1.847,0.391c-0.555,0.238-1.026,0.586-1.414,1.041
	c-0.071,0.083-0.107,0.19-0.107,0.3v10.336c0,0.25-0.203,0.453-0.453,0.453h-2.818c-0.25,0-0.453-0.203-0.453-0.453V9.106
	C67.856,8.856,68.059,8.653,68.309,8.653"/>
<path fill="#FFFFFF" d="M94.035,21.684v2.076c0,0.215-0.152,0.406-0.363,0.449c-0.778,0.154-1.552,0.232-2.323,0.232
	c-3.677,0-5.514-1.852-5.514-5.557v-6.81c0-0.25-0.203-0.451-0.453-0.451h-1.766c-0.251,0-0.453-0.203-0.453-0.453V9.105
	c0-0.25,0.202-0.453,0.453-0.453h1.816c0.23,0,0.423-0.171,0.45-0.398l0.559-4.729c0.027-0.228,0.22-0.399,0.45-0.399h2.214
	c0.25,0,0.453,0.203,0.453,0.453v4.621c0,0.251,0.203,0.453,0.453,0.453h3.428c0.25,0,0.453,0.203,0.453,0.453v2.065
	c0,0.25-0.203,0.453-0.453,0.453h-3.428c-0.25,0-0.453,0.201-0.453,0.451v6.214c0,0.758,0.097,1.359,0.292,1.805
	c0.193,0.445,0.489,0.764,0.888,0.959c0.397,0.195,0.923,0.291,1.577,0.291c0.337,0,0.738-0.035,1.204-0.109
	C93.791,21.194,94.035,21.409,94.035,21.684"/>
<path fill="#FFFFFF" d="M96.5,5.477c-0.394-0.346-0.59-0.846-0.59-1.499c0-0.654,0.196-1.156,0.59-1.506
	c0.392-0.352,0.983-0.527,1.769-0.527s1.376,0.176,1.77,0.527c0.392,0.35,0.589,0.852,0.589,1.506c0,0.653-0.197,1.153-0.589,1.499
	c-0.394,0.346-0.984,0.519-1.77,0.519S96.893,5.822,96.5,5.477 M96.394,23.706V9.106c0-0.25,0.203-0.453,0.453-0.453h2.832
	c0.25,0,0.453,0.203,0.453,0.453v14.599c0,0.25-0.203,0.453-0.453,0.453h-2.832C96.597,24.159,96.394,23.956,96.394,23.706"/>
<path fill="#FFFFFF" d="M104.279,8.653h2.243c0.223,0,0.413,0.162,0.448,0.383l0.196,1.251h0.199
	c0.588-0.606,1.281-1.07,2.082-1.392c0.801-0.322,1.655-0.484,2.565-0.484c1.602,0,2.866,0.472,3.795,1.415
	c0.93,0.941,1.393,2.432,1.393,4.469v9.411c0,0.25-0.203,0.453-0.453,0.453h-2.817c-0.25,0-0.453-0.203-0.453-0.453v-9.198
	c0-1.032-0.218-1.769-0.653-2.209s-1.072-0.661-1.904-0.661c-0.625,0-1.241,0.13-1.847,0.391c-0.555,0.238-1.026,0.586-1.414,1.041
	c-0.071,0.083-0.108,0.19-0.108,0.3v10.336c0,0.25-0.202,0.453-0.453,0.453h-2.817c-0.25,0-0.453-0.203-0.453-0.453V9.106
	C103.826,8.856,104.029,8.653,104.279,8.653"/>
<path fill="#FFFFFF" d="M129.748,9.001c0.977,0.394,1.703,1.04,2.183,1.94c0.478,0.899,0.717,2.122,0.717,3.666v9.098
	c0,0.25-0.202,0.453-0.453,0.453h-2.243c-0.224,0-0.414-0.162-0.449-0.381l-0.194-1.227h-0.199c-0.464,0.617-1.063,1.084-1.798,1.4
	c-0.734,0.318-1.546,0.477-2.438,0.477c-1.013,0-1.89-0.18-2.629-0.539c-0.738-0.361-1.305-0.869-1.699-1.529
	c-0.393-0.658-0.588-1.434-0.588-2.322c0-1.439,0.492-2.555,1.477-3.34c0.986-0.786,2.545-1.265,4.676-1.436l2.898-0.271V14.38
	c0-0.785-0.125-1.403-0.375-1.854c-0.252-0.449-0.645-0.77-1.18-0.959s-1.252-0.284-2.152-0.284c-0.637,0-1.322,0.054-2.062,0.163
	c-0.532,0.079-1.052,0.186-1.555,0.321c-0.291,0.078-0.577-0.132-0.577-0.433V9.422c0-0.202,0.13-0.384,0.325-0.438
	c0.616-0.172,1.291-0.306,2.026-0.402c0.867-0.114,1.689-0.171,2.465-0.171C127.498,8.411,128.771,8.608,129.748,9.001
	 M127.623,21.473c0.463-0.188,0.881-0.473,1.256-0.857c0.084-0.086,0.129-0.205,0.129-0.326v-2.615c0-0.266-0.228-0.475-0.492-0.449
	l-2.051,0.182c-0.976,0.096-1.688,0.33-2.139,0.705c-0.449,0.373-0.675,0.896-0.675,1.57c0,0.682,0.201,1.201,0.604,1.563
	c0.402,0.361,0.992,0.541,1.769,0.541C126.573,21.786,127.107,21.68,127.623,21.473"/>
<path fill="#FFFFFF" d="M140.991,22.793c-0.968-1-1.45-2.566-1.45-4.699V9.492c0-0.431,0.35-0.78,0.78-0.78h3.688
	c0.43,0,0.779,0.35,0.779,0.78v8.225c0,0.754,0.146,1.291,0.441,1.605c0.293,0.316,0.719,0.477,1.277,0.477
	c0.41,0,0.824-0.088,1.243-0.26c0.421-0.172,0.759-0.412,1.019-0.719V9.492c0-0.431,0.349-0.78,0.779-0.78h3.691
	c0.432,0,0.779,0.35,0.779,0.78V23.25c0,0.43-0.348,0.779-0.779,0.779h-3.535l-0.35-1.496h-0.209
	c-0.566,0.58-1.209,1.016-1.92,1.313c-0.713,0.301-1.471,0.447-2.282,0.447C143.277,24.293,141.959,23.795,140.991,22.793"/>
<path fill="#FFFFFF" d="M157.149,9.492c0-0.432,0.349-0.78,0.78-0.78h3.535l0.349,1.493h0.237c0.539-0.567,1.183-0.999,1.934-1.298
	c0.749-0.298,1.564-0.447,2.451-0.447c1.637,0,2.938,0.504,3.895,1.515c0.959,1.011,1.438,2.58,1.438,4.714v8.562
	c0,0.43-0.35,0.779-0.779,0.779h-3.691c-0.431,0-0.779-0.35-0.779-0.779v-8.228c0-0.753-0.15-1.287-0.454-1.599
	c-0.302-0.312-0.751-0.467-1.349-0.467c-0.437,0-0.862,0.085-1.282,0.257c-0.419,0.172-0.763,0.412-1.033,0.719v9.318
	c0,0.43-0.349,0.779-0.779,0.779h-3.69c-0.432,0-0.78-0.35-0.78-0.779V9.492z"/>
<path fill="#FFFFFF" d="M175.034,6.191c-0.522-0.451-0.782-1.11-0.782-1.977c0-0.855,0.26-1.509,0.782-1.961s1.32-0.679,2.401-0.679
	c1.07,0,1.865,0.227,2.388,0.679c0.521,0.452,0.781,1.105,0.781,1.961c0,0.866-0.261,1.525-0.781,1.977
	c-0.522,0.452-1.317,0.677-2.388,0.677C176.354,6.868,175.557,6.644,175.034,6.191 M174.797,23.25V9.492
	c0-0.432,0.35-0.78,0.78-0.78h3.703c0.431,0,0.78,0.349,0.78,0.78V23.25c0,0.43-0.35,0.779-0.78,0.779h-3.703
	C175.146,24.03,174.797,23.68,174.797,23.25"/>
<path fill="#FFFFFF" d="M185.688,23.499c-0.959-0.539-1.722-1.381-2.289-2.521c-0.568-1.141-0.853-2.57-0.853-4.292
	c0-2.651,0.729-4.688,2.187-6.108c1.457-1.419,3.58-2.131,6.373-2.131c0.42,0,0.926,0.029,1.522,0.085V2.245
	c0-0.432,0.349-0.78,0.778-0.78h3.692c0.431,0,0.779,0.349,0.779,0.78V23.25c0,0.43-0.349,0.779-0.779,0.779h-3.618l-0.322-1.594
	h-0.224c-0.446,0.588-1.008,1.047-1.69,1.375c-0.678,0.332-1.457,0.498-2.33,0.498C187.722,24.309,186.646,24.04,185.688,23.499
	 M191.672,19.862c0.377-0.127,0.695-0.309,0.956-0.551v-6.773c-0.464-0.093-0.968-0.141-1.507-0.141
	c-1.127,0-1.959,0.303-2.502,0.908c-0.539,0.604-0.809,1.601-0.809,2.988c0,1.376,0.23,2.347,0.692,2.912
	c0.459,0.564,1.128,0.844,2.003,0.844C190.906,20.049,191.295,19.987,191.672,19.862"/>
<path fill="#FFFFFF" d="M210.445,9.108c1.08,0.435,1.877,1.144,2.388,2.131c0.512,0.986,0.769,2.326,0.769,4.021v7.99
	c0,0.43-0.349,0.779-0.779,0.779H209.3l-0.362-1.453h-0.236c-0.43,0.598-0.979,1.035-1.65,1.32
	c-0.668,0.285-1.427,0.426-2.275,0.426c-1.051,0-1.961-0.191-2.729-0.572c-0.767-0.383-1.351-0.912-1.752-1.594
	c-0.399-0.678-0.599-1.465-0.599-2.357c0-1.51,0.531-2.674,1.597-3.499c1.065-0.823,2.75-1.305,5.048-1.445l2.151-0.139
	c-0.021-0.577-0.138-1.034-0.357-1.37c-0.219-0.335-0.563-0.577-1.032-0.727c-0.47-0.147-1.115-0.223-1.935-0.223
	c-0.624,0-1.31,0.053-2.058,0.155c-0.752,0.102-1.45,0.25-2.103,0.447V9.102c0.761-0.205,1.603-0.362,2.521-0.474
	c0.916-0.113,1.789-0.167,2.619-0.167C207.932,8.461,209.365,8.677,210.445,9.108 M207.568,20.581
	c0.336-0.102,0.644-0.264,0.923-0.488v-2.529l-1.593,0.113c-0.709,0.047-1.228,0.207-1.557,0.48
	c-0.332,0.275-0.497,0.654-0.497,1.139c0,0.467,0.148,0.82,0.442,1.068c0.292,0.246,0.714,0.369,1.263,0.369
	C206.895,20.733,207.234,20.682,207.568,20.581"/>
</svg>
